<svg xmlns="http://www.w3.org/2000/svg" width="340" height="60" viewBox="0 0 340 60">
  <g id="グループ_34" data-name="グループ 34" transform="translate(-119 -452)">
    <g id="長方形_324" data-name="長方形 324" transform="translate(119 452)" fill="#fff" stroke="#eb4e45" stroke-width="4">
      <rect width="340" height="60" stroke="none"/>
      <rect x="2" y="2" width="336" height="56" fill="none"/>
    </g>
    <path id="パス_50" data-name="パス 50" d="M14.5-4.114a11.8,11.8,0,0,1-3.344,2.046A10.245,10.245,0,0,1,8.008-4.114ZM5.742-8.888H16.236v1.1H5.742Zm0-2.332H16.236v1.1H5.742Zm0-2.31H16.236v1.078H5.742ZM16.3-5.654l-.374.11h-7A13.916,13.916,0,0,0,9.9-6.556h8.382v-8.206H11.528c.132-.33.264-.682.418-1.078h8.338v-1.672H1.738v1.672H9.7c-.088.352-.154.726-.242,1.078h-5.7v8.206H7.436a15.074,15.074,0,0,1-6.38,3.388A5.129,5.129,0,0,1,2.244-1.716,21.39,21.39,0,0,0,6.2-3.52,11.675,11.675,0,0,0,8.91-1.276,38.217,38.217,0,0,1,.836.066a6.775,6.775,0,0,1,.77,1.672A39.092,39.092,0,0,0,11.022-.22a29.3,29.3,0,0,0,9.086,1.958A12.225,12.225,0,0,1,21.274-.088,35.528,35.528,0,0,1,13.4-1.276a11.894,11.894,0,0,0,4.2-3.542ZM26.8-7.216h3.432v1.892H26.8ZM30.228-13.9v1.65H26.8V-13.9ZM26.8-10.648h3.432v1.826H26.8Zm6.82,5.324h-1.5V-13.9H33.7v-1.782H32.12v-2.53H30.228v2.53H26.8v-2.53H24.948v2.53H23.166V-13.9h1.782v8.58H22.9v1.782H33.616ZM25.784-3.19A10.865,10.865,0,0,1,22.836.55a10.431,10.431,0,0,1,1.628,1.21A15.385,15.385,0,0,0,27.72-2.662Zm3.168.792A22.764,22.764,0,0,1,31.24.946l1.65-.99a21,21,0,0,0-2.376-3.212ZM36.5-7.436c.044-.7.044-1.408.044-2.046v-1.166h3.872v3.212Zm3.916-8.118v3.1H36.542v-3.1Zm1.98-1.848H34.606v7.92c0,3.146-.154,7.26-1.892,10.12a7.19,7.19,0,0,1,1.628,1.188,17.489,17.489,0,0,0,2.024-7.414h4.048V-.7c0,.352-.132.44-.462.462-.286,0-1.386.022-2.42-.022a7.019,7.019,0,0,1,.594,1.936A7.641,7.641,0,0,0,41.47,1.3c.682-.308.924-.9.924-1.98Zm9.02-.2-.286.066h-5.3V1.738h1.936V-15.686H50.38c-.44,1.518-1.078,3.52-1.672,5.016a5.893,5.893,0,0,1,1.936,4.136A1.535,1.535,0,0,1,50.2-5.17a1.279,1.279,0,0,1-.726.2c-.33,0-.748,0-1.232-.044a4.628,4.628,0,0,1,.484,1.87,9.329,9.329,0,0,0,1.584-.044,2.75,2.75,0,0,0,1.232-.44c.7-.462.968-1.386.968-2.662a6.355,6.355,0,0,0-1.958-4.6c.748-1.716,1.606-4.026,2.244-5.9Zm4.29,5.874h5.984v2.354H55.7Zm5.984-4v2.288H55.7V-15.73Zm1.386,8.492A24.283,24.283,0,0,1,60.566-4.8,18.613,18.613,0,0,1,59.51-7.612h4.18V-17.49H53.724V-.99c-.88.154-1.694.308-2.376.418l.682,1.98C54.142.946,56.936.33,59.6-.286l-.154-1.782-3.74.7V-7.612H57.75C58.762-3.344,60.61,0,63.844,1.65A8.381,8.381,0,0,1,65.208-.044,9.152,9.152,0,0,1,61.38-3.366c1.056-.792,2.266-1.8,3.3-2.75Zm6.754-6.908H84.106v3.124H86.2v-5.06h-8.14v-2.354H75.878v2.354H67.826v5.06h2ZM78.034-4.73h6.292V-6.644H78.034V-9.878h5.192v-1.958H70.84v1.958h5.082v8.536a6.3,6.3,0,0,1-3.586-3.872A26.9,26.9,0,0,0,72.864-8.1l-2.112-.2c-.462,3.85-1.584,6.93-4,8.734a11.065,11.065,0,0,1,1.694,1.408,11.2,11.2,0,0,0,3.1-4.576c2,3.454,5.17,4.18,9.482,4.18h5.236a6.171,6.171,0,0,1,.77-2.068c-1.254.044-4.95.044-5.9.044a22.987,22.987,0,0,1-3.1-.2Zm24.728.132a15.884,15.884,0,0,1,2.618,3.5l1.628-1.056A15.732,15.732,0,0,0,104.3-5.544Zm11.264-5.544v-1.892H108.79v-2.4h4.246V-16.28H108.79v-2.2h-2.024v2.2h-4.114v1.848h4.114v2.4h-5.412v1.892h8.074v2.354h-7.282L101.97-9.02l-2.31.682v-3.894h2.046v-1.936H99.66v-4.29H97.768v4.29h-1.43c.176-.924.286-1.892.4-2.838l-1.76-.308a25.5,25.5,0,0,1-1.364,7.172,15.432,15.432,0,0,1,1.474.924,19.068,19.068,0,0,0,.9-3.014h1.782V-7.81c-1.518.44-2.9.814-4,1.078l.528,1.958,3.476-1.034V1.716H99.66V-6.4l2.112-.66V-5.9h7.656V-.7c0,.308-.11.4-.462.4-.352.022-1.54.022-2.772-.022a8.132,8.132,0,0,1,.638,2.046,11.85,11.85,0,0,0,3.63-.33c.748-.352.99-.946.99-2.046V-5.9h2.4V-7.788h-2.4v-2.354Zm4.884-5.5h4.928v3.7H118.91Zm2.244,7.612c.088-.7.132-1.408.176-2.112h4.488v-7.3H117.04v7.3h2.288c-.2,3.828-.682,8.1-3.63,10.472a5.124,5.124,0,0,1,1.408,1.43c2.31-1.936,3.322-4.862,3.828-7.964h3.08c-.176,3.96-.4,5.522-.77,5.918-.154.22-.374.242-.726.242a22.161,22.161,0,0,1-2.354-.11,4.228,4.228,0,0,1,.572,1.8,16.6,16.6,0,0,0,2.662-.044,1.88,1.88,0,0,0,1.5-.7c.594-.682.814-2.728,1.056-8.1.022-.264.022-.836.022-.836Zm8.6-7.788h-1.98V-3.674h1.98Zm3.278-2.2V-.858c0,.4-.154.528-.572.55-.44,0-1.826.022-3.322-.044a9.474,9.474,0,0,1,.726,2.09A12.876,12.876,0,0,0,134,1.386c.77-.374,1.078-.968,1.078-2.244v-17.16Zm11.528.286h-5.676v1.606h5.676Zm-1.54,13.706V-.858h-2.574V-4.026Zm1.716-1.65h-5.984V1.716h1.694V.77h4.29Zm-5.962-1.452h5.874V-8.712h-5.874ZM144.65-11.7h-5.874v1.584h5.874Zm-6.82-1.43h7.414v-1.628H137.83Zm14.7,9.9V-4.576h2.552v1.342ZM148.28-4.576h2.508v1.342H148.28Zm2.508-2.684v1.342H148.28V-7.26Zm4.29,0v1.342h-2.552V-7.26Zm-4.84-5.346H153.3v1.21h-3.058Zm0-2.64H153.3v1.166h-3.058Zm7.9,12.012H156.97v-5.5h-4.444V-9.79h5.566V-11.4h-2.948v-1.21H157.3V-14.08h-2.156v-1.166h2.6v-1.5h-2.6v-1.716H153.3v1.716h-3.058v-1.716H148.39v1.716h-2.464v1.5h2.464v1.166h-2.046v1.474h2.046v1.21h-3.058V-9.79h5.456v1.056h-4.246v5.5H145.31v1.628h1.232V1.738h1.738V-1.606h6.8V-.22c0,.264-.066.352-.352.374-.286,0-1.254,0-2.2-.044a6.385,6.385,0,0,1,.484,1.606,9.444,9.444,0,0,0,3.1-.264c.682-.264.858-.726.858-1.65V-1.606h1.166Zm12.364-6.2c1.65-.594,3.74-1.364,5.7-2.112l-.33-1.5c-2.222.792-4.51,1.562-6.072,2.046Zm4.29-4.422a11.821,11.821,0,0,0-2.926-1.914l-1.012,1.188a14.313,14.313,0,0,1,2.882,2.046Zm-9,1.276c-2.156.77-4.312,1.54-5.808,2.024l.77,1.672c1.562-.616,3.476-1.452,5.346-2.222Zm-.616-1.21a11.077,11.077,0,0,0-2.838-1.958l-1.012,1.188A12.282,12.282,0,0,1,164.12-12.5ZM175.054-4H165v-1.76h10.054ZM165-.638v-1.8h10.054v1.8Zm3.96-8.69a3.069,3.069,0,0,0,.11-.88V-17.4h-8.514V-15.8H167.2v5.588c0,.22-.066.308-.352.308-.264,0-1.1,0-1.98-.022a6.389,6.389,0,0,1,.528,1.5,8.39,8.39,0,0,0,2.882-.242A1.248,1.248,0,0,0,168.74-9a14.358,14.358,0,0,1-.638,1.672h-5.148V1.782H165V.968h10.054v.814h2.134V-7.326H170.1c.308-.528.616-1.1.924-1.672Zm9.922-8.074h-8.536V-15.8h6.6v5.566c0,.242-.066.308-.352.33-.286,0-1.254,0-2.178-.044a6.314,6.314,0,0,1,.55,1.606,9.217,9.217,0,0,0,3.058-.264c.66-.286.858-.726.858-1.628Zm20,2.6-1.43-1.056a6.673,6.673,0,0,1-1.914.22h-8.162a23.538,23.538,0,0,1-2.4-.154v2.486c.352-.022,1.54-.132,2.4-.132h8.074a18.1,18.1,0,0,1-3.5,5.808,24.72,24.72,0,0,1-9.042,6.446L184.69.682a28.88,28.88,0,0,0,8.47-6.336A49.372,49.372,0,0,1,198.99.77l1.936-1.716a58.476,58.476,0,0,0-6.292-6.446,30.112,30.112,0,0,0,3.608-6.27A7.592,7.592,0,0,1,198.88-14.806Zm16.17-2.53-2.508-.792a10.3,10.3,0,0,1-.836,1.98,20.175,20.175,0,0,1-7.04,7.5l1.87,1.452a24.915,24.915,0,0,0,5.808-5.764H219.3a18.032,18.032,0,0,1-2.75,5.544c-1.474-1.012-3.014-2-4.334-2.772l-1.518,1.562c1.276.814,2.86,1.892,4.378,2.992a18.7,18.7,0,0,1-8.316,5.06l2,1.76a20.956,20.956,0,0,0,8.162-5.434c.9.726,1.738,1.408,2.354,1.98L220.9-4.2c-.682-.55-1.54-1.21-2.464-1.87a25.191,25.191,0,0,0,3.366-6.644,11.069,11.069,0,0,1,.594-1.364l-1.782-1.1a5.122,5.122,0,0,1-1.65.242h-5.3c.088-.154.154-.286.242-.44C214.148-15.818,214.61-16.676,215.05-17.336Zm12.034,7.524v2.728c.748-.066,2.068-.11,3.278-.11H242.33c.968,0,1.98.088,2.464.11V-9.812c-.55.044-1.408.132-2.464.132H230.362C229.174-9.68,227.81-9.768,227.084-9.812Zm27.06,7.788a23.031,23.031,0,0,1-.176,2.816h2.706a25.773,25.773,0,0,1-.176-2.816v-6.8a57.6,57.6,0,0,1,8.316,3.432l.99-2.4a74.57,74.57,0,0,0-9.306-3.52V-14.74c0-.77.088-1.738.154-2.464h-2.706a15.926,15.926,0,0,1,.2,2.464Z" transform="translate(156.164 490.48)"/>
  </g>
</svg>
