<svg xmlns="http://www.w3.org/2000/svg" width="690.866" height="43.801" viewBox="0 0 690.866 43.801">
  <g id="グループ_49" data-name="グループ 49" transform="translate(-354.567 -2044.25)">
    <path id="パス_68" data-name="パス 68" d="M9.28-24.736,6.112-23.392c1.472,3.424,3.1,7.008,4.576,9.7-3.264,2.336-5.44,4.96-5.44,8.352,0,5.12,4.544,6.912,10.72,6.912a60.92,60.92,0,0,0,10.176-.8l.032-3.616A50.37,50.37,0,0,1,15.84-1.728c-4.768,0-7.168-1.472-7.168-4,0-2.336,1.792-4.32,4.608-6.176a82.667,82.667,0,0,1,8.48-4.608c1.024-.544,1.92-.992,2.752-1.5l-1.6-2.944a18.211,18.211,0,0,1-2.592,1.7c-1.632.9-4.256,2.176-6.88,3.776A73.031,73.031,0,0,1,9.28-24.736Zm15.712-.384-2.08.864a39.267,39.267,0,0,1,2.56,4.48l2.08-.928A43.853,43.853,0,0,0,24.992-25.12Zm3.648-1.344-2.08.864a30.315,30.315,0,0,1,2.624,4.416l2.08-.928A42.481,42.481,0,0,0,28.64-26.464Zm17.312,1.216-3.584-.16a13.12,13.12,0,0,1-.16,2.88c-.064.48-.16,1.088-.256,1.76h-.16a40.519,40.519,0,0,1-6.3-.544v3.136c1.76.16,3.744.256,5.856.288a50.536,50.536,0,0,1-3.68,11.136L40.672-5.7a9.262,9.262,0,0,1,.928-1.44c2.048-2.5,5.472-3.808,9.216-3.808,3.488,0,5.312,1.728,5.312,3.9,0,5.024-7.136,6.112-14.4,5.056l.864,3.232C52.608,2.3,59.488-.224,59.488-7.1c0-3.9-3.2-6.56-8.32-6.56a15.114,15.114,0,0,0-8.544,2.4,62.133,62.133,0,0,0,1.76-6.688A117.5,117.5,0,0,0,57.28-19.3l-.064-3.072a74.556,74.556,0,0,1-12.224,1.5q.192-.816.288-1.44C45.5-23.232,45.664-24.288,45.952-25.248Zm28.736-.128-.8,3.04c2.464.64,9.5,2.112,12.64,2.528l.736-3.1A93.78,93.78,0,0,1,74.688-25.376ZM74.4-19.3l-3.392-.448A120.02,120.02,0,0,1,69.376-6.592l2.944.7a6.511,6.511,0,0,1,1.088-1.7,12.011,12.011,0,0,1,9.44-4.064c3.072,0,5.28,1.7,5.28,4.064,0,4.224-4.992,6.88-14.88,5.632l.96,3.3C86.72,2.4,91.584-1.76,91.584-7.52c0-3.808-3.264-6.976-8.48-6.976a15.4,15.4,0,0,0-9.984,3.552C73.408-12.9,73.952-17.28,74.4-19.3Zm50.912,8.064c0-6.688-4.864-12.064-12.544-12.064-8.032,0-14.3,6.144-14.3,13.312,0,5.344,2.912,8.864,6.08,8.864s5.824-3.616,7.744-10.144a63.719,63.719,0,0,0,1.92-8.992c4.928.608,7.744,4.288,7.744,8.928,0,5.152-3.648,8.16-7.744,9.088a19.777,19.777,0,0,1-2.848.448l1.888,3.008C121.024.1,125.312-4.512,125.312-11.232ZM101.7-10.3c0-3.968,3.36-8.96,9.12-9.888a50.946,50.946,0,0,1-1.76,8.256c-1.472,4.928-2.976,7.008-4.416,7.008C103.264-4.928,101.7-6.624,101.7-10.3ZM133.28-22.272v3.552c.832-.064,2.464-.128,3.712-.128h14.944V-4.576H136.608c-1.376,0-2.784-.1-3.712-.16V-1.12c.928-.064,2.528-.128,3.84-.128H151.9c0,.672-.032,1.28-.032,1.728h3.648c-.064-.7-.128-2.272-.128-3.392V-19.456c0-.832.032-1.984.064-2.688-.576.032-1.7.064-2.56.064h-15.9C135.936-22.08,134.4-22.176,133.28-22.272Zm29.824,8V-10.3c1.088-.1,3.008-.16,4.768-.16H185.28c1.408,0,2.88.128,3.584.16v-3.968c-.8.064-2.048.192-3.584.192H167.872C166.144-14.08,164.16-14.208,163.1-14.272Zm53.376-7.264-2.08-1.536a9.706,9.706,0,0,1-2.784.32H199.744a34.237,34.237,0,0,1-3.488-.224v3.616c.512-.032,2.24-.192,3.488-.192h11.744A26.327,26.327,0,0,1,206.4-11.1a35.956,35.956,0,0,1-13.152,9.376L195.84.992a42.008,42.008,0,0,0,12.32-9.216,71.814,71.814,0,0,1,8.48,9.344l2.816-2.5a85.056,85.056,0,0,0-9.152-9.376,43.8,43.8,0,0,0,5.248-9.12A11.046,11.046,0,0,1,216.48-21.536Zm20.448-3.84-3.584-.192a13.55,13.55,0,0,1-.032,2.528c-.064.832-.16,1.856-.32,3.008a31.138,31.138,0,0,1-6.816-1.216l-.16,2.944a40.633,40.633,0,0,0,6.656,1.12c-.224,1.7-.448,3.488-.672,5.184a27.064,27.064,0,0,1-6.56-1.28l-.16,3.072a34.988,34.988,0,0,0,6.4,1.088c-.128,1.44-.224,2.656-.224,3.488,0,5.312,3.552,7.328,8.192,7.328,6.624,0,10.912-3.136,10.912-7.936,0-2.752-1.056-4.992-3.2-7.52l-3.552.736c2.24,1.984,3.392,4.224,3.392,6.4,0,3.008-2.816,5.088-7.488,5.088-3.424,0-5.12-1.7-5.12-4.608,0-.672.064-1.664.16-2.784h1.216c2.08,0,4.032-.128,5.984-.32l.1-3.008a51.1,51.1,0,0,1-6.56.384h-.448c.192-1.664.416-3.488.64-5.152h.064a61.545,61.545,0,0,0,6.432-.32l.1-3.008a42.753,42.753,0,0,1-6.208.416c.16-1.216.288-2.208.384-2.912C236.576-23.616,236.7-24.384,236.928-25.376ZM257.152,0h13.44V-3.04h-4.608V-23.584H263.2a13.85,13.85,0,0,1-5.12,1.824v2.336H262.3V-3.04h-5.152Zm29.824-25.088-3.744-.384a35.768,35.768,0,0,1-.736,6.88c-1.824.16-3.552.288-4.576.32-1.088.032-2.016.064-3.1,0l.32,3.456c.9-.16,2.368-.352,3.168-.448.736-.1,2.048-.256,3.52-.416-1.152,4.352-3.456,11.264-6.656,15.584l3.3,1.312C281.632-3.9,283.9-11.3,285.088-16c1.216-.128,2.272-.192,2.944-.192,2.016,0,3.264.48,3.264,3.232,0,3.328-.48,7.392-1.44,9.376a2.507,2.507,0,0,1-2.624,1.536,16.665,16.665,0,0,1-3.9-.64L283.84.64a17.994,17.994,0,0,0,3.808.448c2.24,0,3.9-.576,4.928-2.784,1.344-2.688,1.824-7.84,1.824-11.616,0-4.48-2.336-5.728-5.44-5.728-.736,0-1.888.064-3.2.192.288-1.5.576-3.04.768-4.032C286.656-23.584,286.816-24.416,286.976-25.088Zm11.04,3.232-2.976,1.28c2.24,2.72,4.64,8.448,5.536,11.84l3.168-1.472C302.72-13.216,300-19.2,298.016-21.856Zm15.84,11.808a41.686,41.686,0,0,0,.288-4.736H327.9v4.736ZM327.9-22.368v4.736h-13.76v-4.736Zm3.136-2.88H311.1V-15.2c0,5.024-.48,11.3-5.472,15.584A11.291,11.291,0,0,1,307.9,2.56a17.674,17.674,0,0,0,5.472-9.728H327.9v5.6c0,.672-.256.928-.96.928-.768.032-3.328.064-5.824-.064a12.456,12.456,0,0,1,1.28,3.136c3.328,0,5.5-.064,6.848-.608,1.28-.48,1.792-1.408,1.792-3.328Zm17.472,1.92v2.208h-6.048v-2.208Zm-6.048,6.688v-2.368h6.048v2.368Zm8.864,2.208V-25.568H339.52v28.1h2.944v-16.96Zm5.376-2.144v-2.432h6.24v2.432Zm6.24-6.752v2.208H356.7v-2.208ZM349.312-2.656V-5.312h6.5v2.656Zm6.5-7.328v2.5h-6.5v-2.5Zm10.144-15.584h-12.1v11.2h9.088V-1.216c0,.544-.16.7-.736.736-.512,0-2.048.032-3.616-.032V-12.224h-12V1.184h2.72v-1.6h8.64A13.329,13.329,0,0,1,358.88,2.5c2.688,0,4.448-.032,5.568-.512,1.152-.512,1.5-1.472,1.5-3.168Zm32,14.336c0-6.688-4.864-12.064-12.544-12.064-8.032,0-14.3,6.144-14.3,13.312,0,5.344,2.912,8.864,6.08,8.864s5.824-3.616,7.744-10.144a63.718,63.718,0,0,0,1.92-8.992c4.928.608,7.744,4.288,7.744,8.928,0,5.152-3.648,8.16-7.744,9.088A19.778,19.778,0,0,1,384-1.792l1.888,3.008C393.664.1,397.952-4.512,397.952-11.232Zm-23.616.928c0-3.968,3.36-8.96,9.12-9.888a50.947,50.947,0,0,1-1.76,8.256c-1.472,4.928-2.976,7.008-4.416,7.008C375.9-4.928,374.336-6.624,374.336-10.3Zm56.608-15.2H414.752v2.752h16.192Zm-4.1,13.28h-8.1v-4.864h8.1Zm2.912-7.488H416v10.08h13.76Zm-3.424,18.4c.8-1.7,1.728-4.448,2.56-6.848l-2.944-.64a43.879,43.879,0,0,1-2.112,6.848Zm-5.28-.864a26.536,26.536,0,0,0-1.664-6.432L416.864-8a30.149,30.149,0,0,1,1.5,6.528ZM415.232-4.16c-.736-.9-3.712-4.384-4.992-5.7.1-.576.16-1.184.224-1.76h4.448V-14.4h-4.288v-5.728h3.9V-22.88h-7.3c.288-1.088.544-2.208.736-3.36l-2.816-.512c-.608,3.712-1.792,7.456-3.488,9.824a16.4,16.4,0,0,1,2.56,1.408,22.874,22.874,0,0,0,2.144-4.608h1.44V-14.4h-5.664v2.784h5.5c-.384,4.064-1.7,8.544-5.728,11.968a10.524,10.524,0,0,1,2.048,2.08A18.222,18.222,0,0,0,409.6-6.816a61.689,61.689,0,0,1,3.712,5.12ZM413.344-.9V1.888h17.984V-.9Zm26.272-9.6h4.992v2.752h-4.992Zm4.992-9.728v2.4h-4.992v-2.4Zm-4.992,4.736h4.992v2.656h-4.992Zm9.92,7.744H447.36v-12.48h2.3v-2.592h-2.3V-26.5h-2.752v3.68h-4.992V-26.5h-2.688v3.68h-2.592v2.592h2.592v12.48h-2.976v2.592h15.584Zm-11.392,3.1A15.8,15.8,0,0,1,433.856.8a15.173,15.173,0,0,1,2.368,1.76,22.378,22.378,0,0,0,4.736-6.432Zm4.608,1.152a33.113,33.113,0,0,1,3.328,4.864l2.4-1.44a30.554,30.554,0,0,0-3.456-4.672Zm10.976-7.328c.064-1.024.064-2.048.064-2.976v-1.7h5.632v4.672Zm5.7-11.808v4.512h-5.632v-4.512Zm2.88-2.688H450.976v11.52c0,4.576-.224,10.56-2.752,14.72a10.458,10.458,0,0,1,2.368,1.728c1.824-2.912,2.592-6.976,2.944-10.784h5.888v7.1c0,.512-.192.64-.672.672-.416,0-2.016.032-3.52-.032a10.209,10.209,0,0,1,.864,2.816c2.368.032,3.9-.032,4.864-.544.992-.448,1.344-1.312,1.344-2.88ZM472.992-13.28h6.848v1.856h-6.848ZM479.84-19.1h-6.848v-1.76h6.848Zm0,3.84h-6.848v-1.824h6.848Zm15.008,10.24v-2.4h-12.8v-1.7h11.936v-2.3h-11.3V-13.28h8.864v-1.984h-8.864v-1.824h8.8V-19.1h-8.8v-1.76H492.9v-2.368H482.848c.608-.96,1.216-2.08,1.792-3.2l-3.3-.416a28.138,28.138,0,0,1-1.568,3.616h-5.44c.7-1.024,1.312-2.08,1.888-3.072l-3.1-.608a26.607,26.607,0,0,1-7.52,9.056,10.477,10.477,0,0,1,2.112,2.016,28.749,28.749,0,0,0,2.5-2.3V-9.12h8.9v1.7H466.432v2.4H476.8a35.7,35.7,0,0,1-11.232,4.8,17.327,17.327,0,0,1,1.92,2.432A36.056,36.056,0,0,0,479.1-3.744V2.5h2.944v-6.3A36.942,36.942,0,0,0,493.7,2.048,12.081,12.081,0,0,1,495.52-.384a35.848,35.848,0,0,1-11.04-4.64Zm19.264-5.568v-7.744h8.32v7.744Zm-11.392,0v-7.744h8.288v7.744Zm11.392-10.656v-5.568h-3.1v5.568H499.744V-5.792h2.976V-7.68h8.288V2.5h3.1V-7.68h8.32v1.728h3.1v-15.3Zm16.928-.192.32,3.488c3.584-.768,11.04-1.536,14.272-1.856a12.836,12.836,0,0,0-5.44,10.4c0,7.04,6.56,10.4,12.832,10.72l1.152-3.424c-5.28-.224-10.72-2.176-10.72-8a10.61,10.61,0,0,1,7.072-9.632,30.837,30.837,0,0,1,6.24-.448v-3.232c-2.208.064-5.408.256-8.832.544-5.888.512-11.584,1.056-13.92,1.28C533.376-21.536,532.256-21.472,531.04-21.44Zm21.12,4.8-1.92.832a30.253,30.253,0,0,1,2.56,4.48l1.984-.9A44.673,44.673,0,0,0,552.16-16.64Zm3.552-1.376-1.92.864a30.03,30.03,0,0,1,2.688,4.416l1.952-.928A46.216,46.216,0,0,0,555.712-18.016Zm25.376-7.52h-3.68c.064.32.16,1.312.256,2.336.032.384.032.928.064,1.632-4.576.064-10.528.224-14.144.288l.1,3.072c3.968-.256,9.216-.448,14.08-.512,0,.928.032,1.888.032,2.72A6.4,6.4,0,0,0,576-16.224a5.779,5.779,0,0,0-5.952,5.76A5.344,5.344,0,0,0,575.424-4.9a5.012,5.012,0,0,0,2.24-.48c-1.536,2.464-4.48,3.872-8.256,4.7l2.72,2.688c7.584-2.208,9.856-7.232,9.856-11.488a7.881,7.881,0,0,0-1.12-4.256c0-1.44,0-3.3-.032-5.024,4.64,0,7.68.064,9.568.16l.064-3.008h-9.6c0-.64,0-1.216.032-1.6A18.645,18.645,0,0,1,581.088-25.536Zm-8.032,15.008a2.883,2.883,0,0,1,2.912-3.008,2.638,2.638,0,0,1,2.5,1.536c.416,3.008-.832,4.32-2.5,4.32A2.808,2.808,0,0,1,573.056-10.528Z" transform="translate(404 2078)"/>
    <path id="線_5" data-name="線 5" d="M.5,50h-1V0h1Z" transform="translate(355 2044.5) rotate(-30)"/>
    <path id="線_6" data-name="線 6" d="M.5,50h-1V0h1Z" transform="translate(1045 2044.5) rotate(30)"/>
  </g>
</svg>
