<svg xmlns="http://www.w3.org/2000/svg" width="380" height="230.344" viewBox="0 0 380 230.344">
  <g id="グループ_47" data-name="グループ 47" transform="translate(-740 -1326.656)">
    <rect id="長方形_4" data-name="長方形 4" width="380" height="168" transform="translate(740 1389)" fill="#0158a8"/>
    <path id="パス_58" data-name="パス 58" d="M18.76-22.148H15.568A21.547,21.547,0,0,1,15.82-19.6c.028.672.056,1.512.084,2.436H6.132a21.973,21.973,0,0,1-2.8-.2v2.968q1.386-.084,2.856-.084h8.54A34.143,34.143,0,0,1,2.1-4.172l2.016,2.3A38.788,38.788,0,0,0,16.016-11.9c.056,3.416.084,6.916.084,9.016,0,.756-.28,1.12-1.036,1.12a28.48,28.48,0,0,1-3.836-.308L11.452.812C12.936.9,14.56.98,16.1.98c1.876,0,2.828-.9,2.828-2.52-.028-3.612-.14-8.792-.224-12.936h4.088c.7,0,1.708.028,2.464.056v-2.94a22.532,22.532,0,0,1-2.6.2h-4c0-.952-.028-1.764-.028-2.436A15.554,15.554,0,0,1,18.76-22.148ZM34.524-20.86,32.48-18.676a60.731,60.731,0,0,1,7,5.936l2.212-2.268A58.756,58.756,0,0,0,34.524-20.86ZM31.64-2.128,33.516.756A30.872,30.872,0,0,0,44.24-3.416a28.629,28.629,0,0,0,9.828-10.136L52.36-16.6A26.659,26.659,0,0,1,42.644-6.048,29.094,29.094,0,0,1,31.64-2.128ZM62.384-21.112v2.884c.784-.056,1.792-.084,2.688-.084H75.936c.952,0,2.072.028,2.772.084v-2.884a26.75,26.75,0,0,1-2.744.14H65.072A25.615,25.615,0,0,1,62.384-21.112Zm18.536,7.7-1.988-1.232a5.555,5.555,0,0,1-1.792.252H62.8c-.812,0-1.876-.084-2.968-.2v2.912c1.064-.084,2.3-.112,2.968-.112H77.056a13.2,13.2,0,0,1-3.108,5.6,18.838,18.838,0,0,1-9.8,5.04l2.184,2.52A20.69,20.69,0,0,0,76.356-4.592a19.812,19.812,0,0,0,4.116-7.84A4.918,4.918,0,0,1,80.92-13.412Zm5.208,2.968L87.5-7.672a57.287,57.287,0,0,0,10.332-4.34v9.744a32.446,32.446,0,0,1-.168,3.3h3.472a21.056,21.056,0,0,1-.2-3.3v-11.62a47.233,47.233,0,0,0,7.532-6.132l-2.352-2.24A34.563,34.563,0,0,1,98.336-15.6,46.237,46.237,0,0,1,86.128-10.444Zm32.4-10.416-2.044,2.184a60.732,60.732,0,0,1,7,5.936l2.212-2.268A58.756,58.756,0,0,0,118.524-20.86ZM115.64-2.128,117.516.756A30.872,30.872,0,0,0,128.24-3.416a28.629,28.629,0,0,0,9.828-10.136L136.36-16.6a26.659,26.659,0,0,1-9.716,10.556A29.094,29.094,0,0,1,115.64-2.128Zm34.048-20.44h-7.224v2.044h7.224Zm-1.96,17.444v4.032h-3.276V-5.124Zm2.184-2.1H142.3V2.184h2.156V.98h5.46Zm-7.588-1.848H149.8v-2.016h-7.476ZM149.8-14.9h-7.476v2.016H149.8Zm-8.68-1.82h9.436v-2.072H141.12Zm18.7,12.6V-5.824h3.248v1.708Zm-5.4-1.708h3.192v1.708H154.42Zm3.192-3.416v1.708H154.42V-9.24Zm5.46,0v1.708h-3.248V-9.24Zm-6.16-6.8H160.8v1.54h-3.892Zm0-3.36H160.8v1.484h-3.892ZM166.964-4.116H165.48v-7h-5.656V-12.46h7.084V-14.5h-3.752v-1.54H165.9V-17.92h-2.744V-19.4h3.3v-1.9h-3.3v-2.184H160.8v2.184h-3.892v-2.184H154.56v2.184h-3.136v1.9h3.136v1.484h-2.6v1.876h2.6v1.54h-3.892v2.044h6.944v1.344h-5.4v7H150.64v2.072h1.568V2.212h2.212V-2.044h8.652V-.28c0,.336-.084.448-.448.476-.364,0-1.6,0-2.8-.056a8.127,8.127,0,0,1,.616,2.044,12.02,12.02,0,0,0,3.948-.336c.868-.336,1.092-.924,1.092-2.1V-2.044h1.484Zm15.736-7.9c2.1-.756,4.76-1.736,7.252-2.688l-.42-1.9c-2.828,1.008-5.74,1.988-7.728,2.6Zm5.46-5.628a15.045,15.045,0,0,0-3.724-2.436l-1.288,1.512a18.217,18.217,0,0,1,3.668,2.6Zm-11.452,1.624c-2.744.98-5.488,1.96-7.392,2.576l.98,2.128c1.988-.784,4.424-1.848,6.8-2.828Zm-.784-1.54a14.1,14.1,0,0,0-3.612-2.492l-1.288,1.512A15.632,15.632,0,0,1,174.58-15.9ZM188.5-5.1H175.7v-2.24h12.8ZM175.7-.812v-2.3h12.8v2.3Zm5.04-11.06a3.906,3.906,0,0,0,.14-1.12v-9.156H170.044V-20.1H178.5v7.112c0,.28-.084.392-.448.392-.336,0-1.4,0-2.52-.028a8.132,8.132,0,0,1,.672,1.9,10.678,10.678,0,0,0,3.668-.308,1.588,1.588,0,0,0,.588-.42,18.278,18.278,0,0,1-.812,2.128H173.1V2.268h2.6V1.232h12.8V2.268h2.716V-9.324H182.2c.392-.672.784-1.4,1.176-2.128Zm12.628-10.276H182.5V-20.1h8.4v7.084c0,.308-.084.392-.448.42-.364,0-1.6,0-2.772-.056a8.035,8.035,0,0,1,.7,2.044,11.731,11.731,0,0,0,3.892-.336c.84-.364,1.092-.924,1.092-2.072Z" transform="translate(831.9 1500.492)" fill="#fff"/>
    <path id="パス_57" data-name="パス 57" d="M1.408,0H7.84V-1.216H5.488V-11.744H4.368a7.065,7.065,0,0,1-2.432.848v.928h2.08v8.752H1.408ZM16.064-12.9C15.952-10.784,15.952-3.152,9.472.16a4.049,4.049,0,0,1,.96.912c4.048-2.192,5.7-6.048,6.4-9.248.768,3.2,2.528,7.3,6.656,9.248A3.587,3.587,0,0,1,24.368.1c-6.016-2.752-6.88-10.144-7.024-12.256.016-.272.016-.528.032-.736Zm10.08,2.368.144,1.392c1.728-.368,5.808-.752,7.52-.944a6.5,6.5,0,0,0-2.992,5.408C30.816-1.1,34.192.48,37.152.592l.464-1.328c-2.608-.1-5.52-1.088-5.52-4.208a5.631,5.631,0,0,1,3.664-5.072,13.4,13.4,0,0,1,3.136-.256v-1.28c-1.072.048-2.576.144-4.32.288-2.944.24-5.968.544-7.008.656C27.264-10.576,26.752-10.544,26.144-10.528ZM36.592-8.3l-.816.352A14.853,14.853,0,0,1,37.088-5.7L37.9-6.08A18.99,18.99,0,0,0,36.592-8.3Zm1.744-.672-.784.368A14.83,14.83,0,0,1,38.9-6.368l.832-.4A21.132,21.132,0,0,0,38.336-8.976Zm6.5,2.256H48.56v1.1H44.832ZM48.56-9.472H44.832v-1.072H48.56Zm0,1.9H44.832V-8.624H48.56Zm7.424,4.88v-.976h-6.56v-.992h6.112v-.96H49.7v-1.1h4.64v-.848H49.7V-8.624h4.592v-.848H49.7v-1.072h5.216v-.944H49.664c.3-.512.64-1.12.96-1.712L49.3-13.392a13.531,13.531,0,0,1-.832,1.9H45.376a19.425,19.425,0,0,0,1.008-1.68l-1.232-.24a14.082,14.082,0,0,1-3.776,4.7,3.56,3.56,0,0,1,.848.784,16.074,16.074,0,0,0,1.5-1.44v4.7h4.528v.992H41.792v.976h5.472A17.184,17.184,0,0,1,41.408.064a4.666,4.666,0,0,1,.784.976,18.72,18.72,0,0,0,6.064-3.264V1.2h1.168V-2.256A18.141,18.141,0,0,0,55.536.928,5.038,5.038,0,0,1,56.3-.048a17.074,17.074,0,0,1-5.84-2.64Zm9.472-2.448v-4.24h4.592v4.24Zm-5.808,0v-4.24h4.576v4.24Zm5.808-5.408v-2.848H64.224v2.848H58.48v7.568h1.168v-.992h4.576V1.216h1.232V-3.968h4.592v.912h1.216v-7.488Z" transform="translate(893.592 1459.408)" fill="#fff"/>
    <g id="icon1" transform="translate(879 1326.656)">
      <g id="グループ_41" data-name="グループ 41" transform="translate(0 0)">
        <rect id="長方形_327" data-name="長方形 327" width="101.16" height="101.16" fill="none"/>
      </g>
      <g id="グループ_44" data-name="グループ 44" transform="translate(0 16.873)">
        <g id="グループ_43" data-name="グループ 43">
          <g id="グループ_42" data-name="グループ 42">
            <path id="パス_59" data-name="パス 59" d="M84.367,59.057A8.462,8.462,0,0,0,92.8,50.62V8.437A8.462,8.462,0,0,0,84.367,0H16.873A8.462,8.462,0,0,0,8.437,8.437V50.62a8.462,8.462,0,0,0,8.437,8.437H0v8.437H101.241V59.057ZM16.873,8.437H84.367V50.62H16.873Z" fill="#fff" stroke="#333" stroke-width="1"/>
          </g>
        </g>
      </g>
    </g>
  </g>
</svg>
