<svg xmlns="http://www.w3.org/2000/svg" width="380" height="247.077" viewBox="0 0 380 247.077">
  <g id="グループ_46" data-name="グループ 46" transform="translate(-280 -1309.923)">
    <rect id="長方形_5" data-name="長方形 5" width="380" height="168" transform="translate(280 1389)" fill="#eb4e45"/>
    <path id="パス_56" data-name="パス 56" d="M21.588-22.624l-1.792.756A33.421,33.421,0,0,1,22.008-18l1.848-.784A40.576,40.576,0,0,0,21.588-22.624Zm3.164-1.2-1.792.756a28.1,28.1,0,0,1,2.3,3.864l1.82-.812A33.1,33.1,0,0,0,24.752-23.828ZM14.476-21.112l-3.248-1.064a13.118,13.118,0,0,1-1.036,2.52A23.949,23.949,0,0,1,1.4-10.388l2.464,1.82A29.009,29.009,0,0,0,10.948-15.4h8.764a21.026,21.026,0,0,1-4.256,8.26A22.41,22.41,0,0,1,4.228-.168l2.6,2.352a25.455,25.455,0,0,0,11.2-7.756,27.712,27.712,0,0,0,4.928-9.52,9.583,9.583,0,0,1,.784-1.708l-2.3-1.4a7.476,7.476,0,0,1-2.1.28H12.6c.168-.252.28-.476.42-.728C13.328-19.208,13.916-20.272,14.476-21.112ZM42.42-.616,44.268.924a8.7,8.7,0,0,1,1.064-.7A29.461,29.461,0,0,0,54.88-7.5L53.172-9.912a19.7,19.7,0,0,1-7.616,6.44V-18.956a16.864,16.864,0,0,1,.14-2.24H42.448a20.522,20.522,0,0,1,.168,2.24V-2.38A8.076,8.076,0,0,1,42.42-.616ZM29.512-.868,32.2.924a15.731,15.731,0,0,0,4.984-7.84c.756-2.8.868-8.764.868-11.956a20.958,20.958,0,0,1,.14-2.24H34.944a8.726,8.726,0,0,1,.224,2.268c0,3.22,0,8.68-.812,11.172A12.961,12.961,0,0,1,29.512-.868Zm29.2-11.62v3.472c.952-.084,2.632-.14,4.172-.14H78.12c1.232,0,2.52.112,3.136.14v-3.472c-.7.056-1.792.168-3.136.168H62.888C61.376-12.32,59.64-12.432,58.716-12.488ZM104.86-20.3a1.769,1.769,0,0,1,1.736-1.764A1.793,1.793,0,0,1,108.36-20.3a1.769,1.769,0,0,1-1.764,1.736A1.745,1.745,0,0,1,104.86-20.3Zm-1.484,0a3.476,3.476,0,0,0,.084.756,9.506,9.506,0,0,1-1.2.056H88.676c-.924,0-2.24-.112-3.024-.2v3.136c.728-.056,1.848-.112,3.024-.112h13.776a20.289,20.289,0,0,1-3.5,8.6C96.628-5.152,93.464-2.744,88-1.4l2.408,2.632a21.777,21.777,0,0,0,11.116-7.588c2.268-3,3.556-7.42,4.2-10.276.028-.168.084-.364.112-.532a3.475,3.475,0,0,0,.756.084,3.227,3.227,0,0,0,3.248-3.22,3.245,3.245,0,0,0-3.248-3.22A3.22,3.22,0,0,0,103.376-20.3Zm16.632-2.268h-7.224v2.044h7.224Zm-1.96,17.444v4.032h-3.276V-5.124Zm2.184-2.1h-7.616V2.184h2.156V.98h5.46Zm-7.588-1.848h7.476v-2.016h-7.476ZM120.12-14.9h-7.476v2.016h7.476Zm-8.68-1.82h9.436v-2.072H111.44Zm18.7,12.6V-5.824h3.248v1.708Zm-5.4-1.708h3.192v1.708H124.74Zm3.192-3.416v1.708H124.74V-9.24Zm5.46,0v1.708h-3.248V-9.24Zm-6.16-6.8h3.892v1.54h-3.892Zm0-3.36h3.892v1.484h-3.892ZM137.284-4.116H135.8v-7h-5.656V-12.46h7.084V-14.5h-3.752v-1.54h2.744V-17.92h-2.744V-19.4h3.3v-1.9h-3.3v-2.184h-2.352v2.184h-3.892v-2.184H124.88v2.184h-3.136v1.9h3.136v1.484h-2.6v1.876h2.6v1.54h-3.892v2.044h6.944v1.344h-5.4v7H120.96v2.072h1.568V2.212h2.212V-2.044h8.652V-.28c0,.336-.084.448-.448.476-.364,0-1.6,0-2.8-.056a8.127,8.127,0,0,1,.616,2.044,12.02,12.02,0,0,0,3.948-.336c.868-.336,1.092-.924,1.092-2.1V-2.044h1.484Zm15.736-7.9c2.1-.756,4.76-1.736,7.252-2.688l-.42-1.9c-2.828,1.008-5.74,1.988-7.728,2.6Zm5.46-5.628a15.045,15.045,0,0,0-3.724-2.436l-1.288,1.512a18.217,18.217,0,0,1,3.668,2.6Zm-11.452,1.624c-2.744.98-5.488,1.96-7.392,2.576l.98,2.128c1.988-.784,4.424-1.848,6.8-2.828Zm-.784-1.54a14.1,14.1,0,0,0-3.612-2.492l-1.288,1.512A15.632,15.632,0,0,1,144.9-15.9ZM158.816-5.1h-12.8v-2.24h12.8ZM146.02-.812v-2.3h12.8v2.3Zm5.04-11.06a3.906,3.906,0,0,0,.14-1.12v-9.156H140.364V-20.1h8.456v7.112c0,.28-.084.392-.448.392-.336,0-1.4,0-2.52-.028a8.132,8.132,0,0,1,.672,1.9,10.678,10.678,0,0,0,3.668-.308,1.588,1.588,0,0,0,.588-.42,18.278,18.278,0,0,1-.812,2.128h-6.552V2.268h2.6V1.232h12.8V2.268h2.716V-9.324h-9.016c.392-.672.784-1.4,1.176-2.128Zm12.628-10.276H152.824V-20.1h8.4v7.084c0,.308-.084.392-.448.42-.364,0-1.6,0-2.772-.056a8.035,8.035,0,0,1,.7,2.044,11.731,11.731,0,0,0,3.892-.336c.84-.364,1.092-.924,1.092-2.072Z" transform="translate(387.6 1500.828)" fill="#fff"/>
    <path id="パス_55" data-name="パス 55" d="M4.24-13.36A18.1,18.1,0,0,1,.576-7.024a11.473,11.473,0,0,1,.688,1.152A15.624,15.624,0,0,0,2.672-7.7V1.2H3.808V-9.552a26.671,26.671,0,0,0,1.536-3.472Zm6.384,8.288v-3.92h3.12v3.92Zm-4.192,0v-3.92H9.456v3.92ZM10.624-10.1v-3.12H9.456v3.12H5.3v7.152H6.432V-3.952H9.456V1.2h1.168V-3.952h3.12v.912h1.168V-10.1Zm11.5-1.68v1.328H18.672v-1.328ZM18.672-8.16V-9.568h3.456V-8.16Zm4.592.912V-12.7H17.488V1.232h1.184v-8.48ZM25.84-5.12v1.472H22.08V-5.12ZM22.08-1.2V-2.752h3.76V-1.2Zm4.864.944V-6.048H21.008V.544H22.08v-.8Zm-1.12-7.888V-9.568h3.584v1.424Zm3.584-3.632v1.328H25.824v-1.328Zm1.2-.928h-5.92v5.472h4.72V-.368c0,.288-.1.384-.368.384C28.752.032,27.776.048,26.8,0a4.382,4.382,0,0,1,.416,1.216A9.107,9.107,0,0,0,29.9,1.008c.528-.208.7-.608.7-1.36Zm6.32.256-1.264.528a53.623,53.623,0,0,0,2.32,4.928c-1.712,1.2-2.768,2.5-2.768,4.144,0,2.4,2.176,3.3,5.184,3.3a31.5,31.5,0,0,0,5.056-.4V-1.376a23.807,23.807,0,0,1-5.12.544c-2.528,0-3.792-.832-3.792-2.16,0-1.216.9-2.272,2.384-3.232A53.153,53.153,0,0,1,43.792-8.88c.464-.24.864-.448,1.232-.672l-.7-1.136a8.739,8.739,0,0,1-1.136.752c-.88.48-2.608,1.328-4.112,2.24A34.456,34.456,0,0,1,36.928-12.448ZM61.552-7.6H56.88V-9.152h4.672Zm0,2.416H56.88V-6.752h4.672Zm0,2.464H56.88V-4.3h4.672Zm-5.776-7.36v8.288h6.9V-10.08H59.344c.144-.464.3-.992.448-1.52h3.424v-1.024h-8.08V-11.6H58.5c-.1.5-.208,1.04-.32,1.52Zm-1.136-2.5H49.36v1.088h5.28Zm.608,9.632c-.512.192-1.04.384-1.536.576v-5.3H55.1v-1.12H48.88v1.12h1.248v1.52A9.008,9.008,0,0,1,48.512-.352a6.975,6.975,0,0,1,.816.7C50.96-1.584,51.2-4.24,51.2-6.128V-7.664h1.44v5.68c-.3.1-.576.192-.816.272l.448,1.04c.96-.416,2.08-.88,3.184-1.376Zm2.08,1.456A9.6,9.6,0,0,1,53.952.48a9.434,9.434,0,0,1,.8.8A11.62,11.62,0,0,0,58.368-.88Zm2.48.656a18.719,18.719,0,0,1,2.8,2.1l.928-.688a17.189,17.189,0,0,0-2.832-2Zm6.384-4.8c.1-.7.192-1.456.288-2.176h3.472V-12.56H65.024v1.1h3.84v2.544H65.5c-.144,1.552-.432,3.632-.688,4.9l1.12.144.1-.672H68.96c-.208,2.992-.464,4.176-.784,4.528a.645.645,0,0,1-.544.176A16.217,16.217,0,0,1,65.9.08a2.449,2.449,0,0,1,.32,1.1,12.364,12.364,0,0,0,1.9,0A1.487,1.487,0,0,0,69.184.736c.464-.512.736-2,.976-5.856.016-.144.032-.512.032-.512Zm12.1,1.184A20.068,20.068,0,0,1,76.144-2.7,10.785,10.785,0,0,1,75.2-4.9h4.112V-5.968h-6.64V-7.312H78v-.9H72.672V-9.536H78v-.9H72.672v-1.312h5.952v-1.04H71.536v6.816H70.224V-4.9h1.344v4.56c-.5.08-.96.16-1.36.208l.24,1.136c1.472-.272,3.44-.64,5.328-.992l-.048-1.04c-1.024.176-2.08.352-3.04.512V-4.9H74.16c.784,2.864,2.24,5.088,4.576,6.128A4.863,4.863,0,0,1,79.52.224a6.335,6.335,0,0,1-2.912-2.256,23.434,23.434,0,0,0,2.656-1.856ZM85.856-1.68A1.169,1.169,0,0,1,87.136-2.7,2.182,2.182,0,0,1,89.28-.528a8.215,8.215,0,0,1-1.3.1C86.736-.432,85.856-.912,85.856-1.68ZM83.808-11.792l.048,1.328c.336-.048.7-.08,1.056-.1.848-.048,4.048-.192,4.9-.224-.816.72-2.816,2.4-3.712,3.136-.928.784-2.976,2.5-4.3,3.584l.912.944c2.032-2.064,3.456-3.2,6.128-3.2,2.08,0,3.584,1.184,3.584,2.752a2.81,2.81,0,0,1-2,2.736,3.1,3.1,0,0,0-3.264-2.832,2.247,2.247,0,0,0-2.464,2.08c0,1.328,1.328,2.272,3.5,2.272,3.392,0,5.5-1.664,5.5-4.24,0-2.16-1.9-3.76-4.56-3.76a6.77,6.77,0,0,0-2.224.336c1.248-1.04,3.424-2.9,4.224-3.5.288-.24.608-.448.9-.656l-.736-.928a3.773,3.773,0,0,1-.864.128c-.848.08-4.656.208-5.488.208A9.54,9.54,0,0,1,83.808-11.792Z" transform="translate(422.424 1459.36)" fill="#fff"/>
    <g id="icon2" transform="translate(403 1309.923)">
      <rect id="長方形_328" data-name="長方形 328" width="134.625" height="134.625" transform="translate(0 0)" fill="none"/>
      <g id="グループ_45" data-name="グループ 45" transform="translate(0 33.691)">
        <path id="パス_60" data-name="パス 60" d="M67.882,38.122a58.539,58.539,0,0,1,23.584,5.054,17.1,17.1,0,0,1,10.107,15.161v8.984H34.191V58.337c0-6.738,3.931-12.915,10.107-15.161A58.539,58.539,0,0,1,67.882,38.122ZM22.961,39.806a11.23,11.23,0,1,0-11.23-11.23A11.263,11.263,0,0,0,22.961,39.806Zm6.177,6.177a21.054,21.054,0,0,0-6.177-.562A37.68,37.68,0,0,0,7.238,48.791,11.3,11.3,0,0,0,.5,59.46v8.984H25.768V59.46A26.677,26.677,0,0,1,29.138,45.983ZM112.8,39.806a11.23,11.23,0,1,0-11.23-11.23A11.263,11.263,0,0,0,112.8,39.806ZM135.265,58.9c0-4.492-2.808-8.423-6.738-10.669A37.68,37.68,0,0,0,112.8,44.86a21.054,21.054,0,0,0-6.177.562A26.084,26.084,0,0,1,110,58.337v8.984h25.268ZM67.882.5A16.545,16.545,0,0,1,84.728,17.346a16.846,16.846,0,1,1-33.691,0A16.545,16.545,0,0,1,67.882.5Z" transform="translate(-0.5 -0.5)" fill="#fff" stroke="#333" stroke-width="1"/>
      </g>
    </g>
  </g>
</svg>
