<svg xmlns="http://www.w3.org/2000/svg" width="412.756" height="186.846" viewBox="0 0 412.756 186.846">
  <path id="パス_49" data-name="パス 49" d="M8.626-27.094v3.952c3.04.228,6.346.418,10.222.418,3.534,0,7.942-.266,10.564-.456v-3.952c-2.812.266-6.916.532-10.6.532A87.248,87.248,0,0,1,8.626-27.094Zm2.28,15.656L6.992-11.78a23.277,23.277,0,0,0-.76,5.358c0,4.978,4.408,7.676,12.578,7.676A54.426,54.426,0,0,0,31.844-.076l-.038-4.18a48.743,48.743,0,0,1-13.148,1.52c-5.814,0-8.474-1.9-8.474-4.6A13.546,13.546,0,0,1,10.906-11.438Zm61.9-1.9c0-7.942-5.776-14.326-14.9-14.326-9.538,0-16.986,7.3-16.986,15.808,0,6.346,3.458,10.526,7.22,10.526s6.916-4.294,9.2-12.046a75.668,75.668,0,0,0,2.28-10.678c5.852.722,9.2,5.092,9.2,10.6,0,6.118-4.332,9.69-9.2,10.792a23.486,23.486,0,0,1-3.382.532l2.242,3.572C67.716.114,72.808-5.358,72.808-13.338Zm-28.044,1.1c0-4.712,3.99-10.64,10.83-11.742a60.5,60.5,0,0,1-2.09,9.8C51.756-8.322,49.97-5.852,48.26-5.852,46.626-5.852,44.764-7.866,44.764-12.236Zm56.278,5.13a20.387,20.387,0,0,1-5.776,3.534,17.7,17.7,0,0,1-5.434-3.534ZM85.918-15.352h18.126v1.9H85.918Zm0-4.028h18.126v1.9H85.918Zm0-3.99h18.126v1.862H85.918Zm18.24,13.6-.646.19H91.428A24.036,24.036,0,0,0,93.1-11.324h14.478V-25.5H95.912c.228-.57.456-1.178.722-1.862h14.4v-2.888H79v2.888H92.758c-.152.608-.266,1.254-.418,1.862H82.5v14.174h6.346c-2.242,2.242-5.966,4.37-11.02,5.852a8.859,8.859,0,0,1,2.052,2.508,36.946,36.946,0,0,0,6.84-3.116A20.167,20.167,0,0,0,91.39-2.2,66.011,66.011,0,0,1,77.444.114,11.7,11.7,0,0,1,78.774,3,67.523,67.523,0,0,0,95.038-.38,50.614,50.614,0,0,0,110.732,3a21.117,21.117,0,0,1,2.014-3.154A61.366,61.366,0,0,1,99.142-2.2,20.544,20.544,0,0,0,106.4-8.322ZM116.85-25.46l.38,4.142c4.256-.912,13.11-1.824,16.948-2.2a15.243,15.243,0,0,0-6.46,12.35c0,8.36,7.79,12.35,15.238,12.73l1.368-4.066c-6.27-.266-12.73-2.584-12.73-9.5,0-4.484,3.344-9.918,8.4-11.438a36.619,36.619,0,0,1,7.41-.532v-3.838c-2.622.076-6.422.3-10.488.646-6.992.608-13.756,1.254-16.53,1.52C119.624-25.574,118.294-25.5,116.85-25.46Zm25.08,5.7-2.28.988a35.933,35.933,0,0,1,3.04,5.32l2.356-1.064A53.049,53.049,0,0,0,141.93-19.76Zm4.218-1.634-2.28,1.026a35.661,35.661,0,0,1,3.192,5.244l2.318-1.1A54.891,54.891,0,0,0,146.148-21.394ZM164.312-27.7a27.854,27.854,0,0,0-6.84-3.914l-1.938,2.546a29.261,29.261,0,0,1,6.726,4.218Zm-1.938,9.88a32.513,32.513,0,0,0-6.992-3.686l-1.938,2.66a29.062,29.062,0,0,1,6.878,4.028Zm-1.292,5.89A115.045,115.045,0,0,1,154.546.228l3.04,2.242c2.052-3.648,4.37-8.17,6.194-12.16ZM176.32-22.648h5.662v7.828h-5.776c.076-1.368.114-2.7.114-4.066Zm12.122,11.134V-14.82h-3V-25.954h-9.12v-5.89h-3.5v5.89H165.87v3.306h6.954v3.724c0,1.368-.038,2.736-.152,4.1h-8.778v3.306h8.284C171.114-6.916,168.492-2.7,162.07.57a15.147,15.147,0,0,1,2.85,2.508c6.5-3.42,9.348-8.018,10.526-13,2.128,6.042,5.586,10.564,10.868,13A13.126,13.126,0,0,1,188.784,0c-5.092-2.014-8.512-6.156-10.3-11.514Zm11.742,7.372c0-1.52,1.748-2.774,4.978-2.774a17.215,17.215,0,0,1,3.458.342c.038.836.038,1.6.038,2.128,0,2.432-1.634,3.078-3.762,3.078C201.628-1.368,200.184-2.508,200.184-4.142ZM212.154-30.4h-4.066a12.468,12.468,0,0,1,.19,2.394v2.318h-1.634a68.85,68.85,0,0,1-9.538-.836l.038,3.458c2.47.3,7.03.684,9.538.684h1.558v4.674H206.3a74.29,74.29,0,0,1-9.386-.684l.038,3.572c2.622.3,6.84.494,9.272.494h2.09c.038,1.406.114,2.964.152,4.446-.912-.076-1.824-.152-2.812-.152-5.662,0-9.044,2.47-9.044,6.118,0,3.8,3.078,5.928,8.778,5.928,4.978,0,7.068-2.622,7.068-5.51,0-.532-.038-1.178-.076-1.976A29.217,29.217,0,0,1,220.894.076l2.2-3.382A30.511,30.511,0,0,0,212.192-9.12c-.076-1.71-.19-3.534-.266-5.282,3.648-.152,6.8-.418,10.3-.836l.038-3.534c-3.306.456-6.65.8-10.412.95v-4.712c3.686-.152,7.22-.494,10.032-.836v-3.5a83.494,83.494,0,0,1-9.994,1.064c.038-.836.038-1.558.076-2.014C212-28.88,212.078-29.716,212.154-30.4ZM242.288-4.218a2.526,2.526,0,0,1,2.774-2.166c2.508,0,4.18,1.938,4.484,4.712a20.25,20.25,0,0,1-2.7.152C244.15-1.52,242.288-2.546,242.288-4.218ZM236.74-28.424l.114,3.914c.874-.114,1.862-.19,2.812-.228,1.976-.114,8.55-.418,10.564-.494-1.9,1.672-6.308,5.32-8.436,7.068-2.242,1.862-6.992,5.852-9.956,8.284l2.774,2.812c4.484-4.788,8.056-7.638,14.136-7.638,4.75,0,8.246,2.584,8.246,6.156a6.173,6.173,0,0,1-4.028,5.966,7.5,7.5,0,0,0-7.9-6.65c-3.762,0-6.27,2.546-6.27,5.358,0,3.458,3.5,5.776,8.74,5.776,8.55,0,13.376-4.332,13.376-10.374,0-5.32-4.712-9.234-11.058-9.234a15.743,15.743,0,0,0-4.56.646c2.7-2.2,7.372-6.156,9.31-7.6.8-.608,1.6-1.14,2.394-1.634l-2.09-2.736a11.33,11.33,0,0,1-2.432.342c-2.052.19-10.716.418-12.692.418A27.6,27.6,0,0,1,236.74-28.424Zm46.7,19h3.116l.874-13.984.114-5.016h-5.092l.114,5.016ZM285,.266a2.786,2.786,0,0,0,2.85-2.888A2.786,2.786,0,0,0,285-5.51a2.786,2.786,0,0,0-2.85,2.888A2.786,2.786,0,0,0,285,.266ZM35.53,55.366V51.794H20.824V44.118H17.1v7.676H2.546v3.572H14.972C11.856,61.56,6.726,67.374,1.216,70.3a20.4,20.4,0,0,1,2.508,2.926c5.32-3.192,10.032-8.512,13.376-14.668V68.666H10.146v3.572H17.1v6.726h3.724V72.238h6.8V68.666h-6.8V58.52c3.344,6.156,8.018,11.514,13.452,14.592A16.036,16.036,0,0,1,36.936,70c-5.7-2.888-10.868-8.512-13.946-14.63ZM73.074,50.92V47.956H50.084c.38-1.026.76-2.09,1.1-3.154L47.462,44c-1.482,5.244-4.408,10.146-8.094,13.072a26.206,26.206,0,0,1,3.268,2.28,28.844,28.844,0,0,0,6.08-8.436Zm-3.5,5.358V53.39H47.8v2.888Zm-12.35,6a27.463,27.463,0,0,1-3.876,5.472c-2.28-1.52-4.674-2.926-6.84-4.1l-2.546,2.318c2.2,1.254,4.56,2.736,6.84,4.294a36.116,36.116,0,0,1-10.26,6.384A19.474,19.474,0,0,1,43.13,79.42a41.2,41.2,0,0,0,10.488-7.106,46.944,46.944,0,0,1,6.156,5.4l2.812-2.66A47.5,47.5,0,0,0,56.2,69.692a35.222,35.222,0,0,0,4.446-6.27ZM43.434,58.824v3H64.486C64.714,71.858,65.626,79,70.908,79.04c2.508-.038,3.23-1.862,3.5-6.574A17.878,17.878,0,0,1,72.01,70.3c-.038,3.116-.228,5.206-.912,5.244-2.546,0-3.078-7.258-3.04-16.72ZM78.85,50.54l.38,4.142c4.256-.912,13.11-1.824,16.948-2.2a15.243,15.243,0,0,0-6.46,12.35c0,8.36,7.79,12.35,15.238,12.73l1.368-4.066c-6.27-.266-12.73-2.584-12.73-9.5,0-4.484,3.344-9.918,8.4-11.438a36.619,36.619,0,0,1,7.41-.532V48.184c-2.622.076-6.422.3-10.488.646-6.992.608-13.756,1.254-16.53,1.52C81.624,50.426,80.294,50.5,78.85,50.54Zm25.08,5.7-2.28.988a35.934,35.934,0,0,1,3.04,5.32l2.356-1.064A53.052,53.052,0,0,0,103.93,56.24Zm4.218-1.634-2.28,1.026a35.661,35.661,0,0,1,3.192,5.244l2.318-1.1A54.889,54.889,0,0,0,108.148,54.606Zm33.06,12.35V74.4h-16.34V66.956ZM121.41,79.04h3.458V77.558h16.34V79.04h3.61V63.764H121.41Zm2.926-22.724a40.648,40.648,0,0,0,8.55-8.664,43.5,43.5,0,0,0,8.968,8.664Zm6.574-12.122c-2.888,4.75-9.12,10.45-15.618,13.756a13.582,13.582,0,0,1,2.166,2.812,51.77,51.77,0,0,0,6.118-3.876V59.47H142.5v-2.7a49.5,49.5,0,0,0,6.156,3.838,15.686,15.686,0,0,1,2.318-3.154A42.145,42.145,0,0,1,134.52,44.194Zm41.306,20.9a31.684,31.684,0,0,0,5.434-3.8,28.6,28.6,0,0,0,5.624,3.8Zm.57,9.348V68.1h9.386v6.346Zm-5.358-12.2c-.722-.874-3.686-4.522-4.712-5.624V55.328h3.268l-.266.228a18.514,18.514,0,0,1,2.736,2.356,33.372,33.372,0,0,0,3.344-3.534,29.107,29.107,0,0,0,3.458,4.6,29.886,29.886,0,0,1-9.348,5.358Zm14.06-11.058a24.062,24.062,0,0,1-3.914,5.624,22.741,22.741,0,0,1-3.8-5.092l.342-.532Zm2.242-3.192-.646.152h-7.22a33.594,33.594,0,0,0,1.444-3.154l-3.382-.912a27.923,27.923,0,0,1-6.574,10.032V52.06h-4.636V44.118H159.41V52.06h-5.358v3.268h5.016c-1.14,4.9-3.5,10.488-5.89,13.642a14.8,14.8,0,0,1,1.71,3.154,36.925,36.925,0,0,0,4.522-9.576V78.964h3.306V60.61c.912,1.368,1.9,2.888,2.47,3.952l-.228.076a12.982,12.982,0,0,1,2.014,2.85c.874-.3,1.71-.646,2.546-1.026V79h3.268V77.52h9.386v1.368h3.42V66.158c.418.19.836.342,1.254.494a15.4,15.4,0,0,1,2.2-2.964,26.141,26.141,0,0,1-9.044-4.674,27.409,27.409,0,0,0,5.928-9.994Zm24.206-2.242-3.952-.3a18.923,18.923,0,0,1-.874,4.522c-.76.038-1.52.038-2.242.038a49.118,49.118,0,0,1-6.536-.418v3.572c2.128.152,4.75.228,6.346.228h1.1a38.181,38.181,0,0,1-8.588,11.1l3.268,2.432a41.329,41.329,0,0,1,3.458-4.066,9.685,9.685,0,0,1,6.308-2.736,3.058,3.058,0,0,1,3.116,1.9c-4.408,2.242-8.968,5.206-8.968,9.88,0,4.712,4.408,6.042,10.07,6.042a96.765,96.765,0,0,0,10.564-.684l.114-3.838a64.708,64.708,0,0,1-10.564.988c-3.838,0-6.308-.532-6.308-3.116,0-2.242,2.052-3.99,5.32-5.776-.038,1.862-.076,4.028-.152,5.358h3.61c-.038-1.824-.076-4.864-.114-7.03,2.66-1.216,5.13-2.2,7.068-2.964,1.14-.456,2.774-1.064,3.876-1.406l-1.558-3.5c-1.216.608-2.318,1.1-3.61,1.672-1.786.836-3.724,1.634-6.08,2.736-.722-2.128-2.7-3.23-5.092-3.23a11.16,11.16,0,0,0-4.864,1.14,30.493,30.493,0,0,0,2.926-5.016,117.412,117.412,0,0,0,12.5-.988V48.754a87.607,87.607,0,0,1-11.172,1.1C207.4,48.222,207.708,46.816,207.936,45.752ZM237.424,72.77V67.336H256.2V72.77ZM256.2,58.52v5.472H237.424V58.52Zm0-8.74v5.4H237.424v-5.4Zm-22.344-3.458V78.736h3.572V76.228H256.2v2.508h3.724V46.322Zm46.7,13.87c-1.444.418-2.888.8-4.294,1.178V54.8H280.4V51.528H276.26V44.156h-3.5v7.372h-4.978V54.8h4.978v7.562c-2.09.57-3.99.988-5.51,1.368l.912,3.42c1.406-.38,2.964-.8,4.6-1.292v9.2c0,.57-.19.722-.722.722-.456.038-2.014.038-3.61-.038a13.8,13.8,0,0,1,1.026,3.23c2.546.038,4.18-.076,5.32-.608,1.1-.532,1.482-1.482,1.482-3.306V64.828l4.75-1.368Zm16.568,4.94v3.192H285.95V65.132ZM285.95,74.4V71.1h11.172V74.4Zm-3.344,4.56h3.344v-1.71h11.172v1.52h3.5V62.206H282.606Zm6.308-22.686c-2.318,0-2.774-.228-2.774-1.558V52.44a76.289,76.289,0,0,0,13.908-3.724l-2.622-2.584A60.735,60.735,0,0,1,286.14,49.59V44.232h-3.5V54.72c0,3.724,1.254,4.75,6,4.75h8.17c3.99,0,5.054-1.33,5.51-6.46a11.054,11.054,0,0,1-3.192-1.292c-.266,3.876-.57,4.56-2.546,4.56Zm39.368-10.6h-4.37c.076.38.19,1.558.3,2.774.038.456.038,1.1.076,1.938-5.434.076-12.5.266-16.8.342l.114,3.648c4.712-.3,10.944-.532,16.72-.608,0,1.1.038,2.242.038,3.23a7.6,7.6,0,0,0-2.128-.266,6.863,6.863,0,0,0-7.068,6.84,6.346,6.346,0,0,0,6.384,6.612,5.952,5.952,0,0,0,2.66-.57c-1.824,2.926-5.32,4.6-9.8,5.586l3.23,3.192c9.006-2.622,11.7-8.588,11.7-13.642a9.359,9.359,0,0,0-1.33-5.054c0-1.71,0-3.914-.038-5.966,5.51,0,9.12.076,11.362.19l.076-3.572h-11.4c0-.76,0-1.444.038-1.9A22.141,22.141,0,0,1,328.282,45.676ZM318.744,63.5a3.424,3.424,0,0,1,3.458-3.572,3.133,3.133,0,0,1,2.964,1.824c.494,3.572-.988,5.13-2.964,5.13A3.334,3.334,0,0,1,318.744,63.5Zm40.736-17.86-4.18-.418a31.011,31.011,0,0,1-1.1,6.5c-1.33.114-2.66.152-3.914.152-1.52,0-3.344-.076-4.826-.228l.266,3.534c1.52.076,3.116.114,4.56.114.912,0,1.824-.038,2.774-.076a57.067,57.067,0,0,1-7.98,13.87l3.648,1.862a67.989,67.989,0,0,0,8.246-16.15,51.007,51.007,0,0,0,6.8-1.368l-.114-3.5a36.334,36.334,0,0,1-5.586,1.292C358.644,49.1,359.176,46.968,359.48,45.638Zm-2.052,26.334c0-1.558,1.71-2.7,4.218-2.7a13.23,13.23,0,0,1,3.534.494c.038.494.038.95.038,1.292,0,2.052-.95,3.648-3.838,3.648C358.8,74.708,357.428,73.606,357.428,71.972ZM368.41,57.418h-3.724c.076,2.508.266,6.08.38,9.082a21.786,21.786,0,0,0-3.23-.266c-4.712,0-7.942,2.508-7.942,6.08,0,3.952,3.572,5.852,7.98,5.852,5.016,0,6.954-2.622,6.954-5.852V71.25a29.657,29.657,0,0,1,5.7,4.256l2.014-3.23a24.762,24.762,0,0,0-7.866-4.788c-.114-2.166-.228-4.37-.266-5.624C368.372,60.344,368.334,59.014,368.41,57.418Zm7.144,1.444,2.166-3.154a67.267,67.267,0,0,0-9.12-5.092l-1.938,2.926A48.32,48.32,0,0,1,375.554,58.862Zm17.138-13-.95,3.61c2.926.76,11.286,2.508,15.01,3l.874-3.686A111.365,111.365,0,0,1,392.692,45.866Zm-.342,7.22-4.028-.532a142.518,142.518,0,0,1-1.938,15.618l3.5.836a7.732,7.732,0,0,1,1.292-2.014,14.263,14.263,0,0,1,11.21-4.826c3.648,0,6.27,2.014,6.27,4.826,0,5.016-5.928,8.17-17.67,6.688l1.14,3.914c14.858,1.254,20.634-3.686,20.634-10.526,0-4.522-3.876-8.284-10.07-8.284A18.293,18.293,0,0,0,390.83,63C391.172,60.686,391.818,55.48,392.35,53.086ZM9.044,136.8c.912-3.04,1.786-6.118,2.584-9.31h.19c.836,3.154,1.672,6.27,2.622,9.31l1.1,3.762H7.9ZM0,152H4.484l2.394-7.98h9.728L18.962,152h4.674l-9.272-28.006H9.272Zm25.156,0H44.764v-3.724H30.628l13.984-21.622v-2.66H26.448v3.724h12.73L25.156,149.34Zm30.1-15.2c.912-3.04,1.786-6.118,2.584-9.31h.19c.836,3.154,1.672,6.27,2.622,9.31l1.1,3.762H54.112ZM46.208,152h4.484l2.394-7.98h9.728L65.17,152h4.674l-9.272-28.006H55.48Zm27.322,0h3.952V138.168c0-2.508-.342-6.118-.532-8.664H77.1l2.2,6.46,4.9,13.338h2.736l4.864-13.338,2.242-6.46H94.2c-.228,2.546-.57,6.156-.57,8.664V152h4.1V123.994H92.644L87.59,138.168c-.646,1.862-1.178,3.762-1.824,5.624h-.19c-.646-1.862-1.216-3.762-1.862-5.624l-5.13-14.174H73.53Zm31.54,0h4.408V123.994H105.07Zm11.742,0h4.18V138.814c0-3.04-.342-6.27-.57-9.158h.19l2.926,5.852L132.81,152h4.522V123.994h-4.18v13.072c0,3.04.342,6.422.57,9.31h-.19l-2.926-5.928-9.272-16.454h-4.522Zm33.25-15.2c.912-3.04,1.786-6.118,2.584-9.31h.19c.836,3.154,1.672,6.27,2.622,9.31l1.1,3.762h-7.638ZM141.018,152H145.5l2.394-7.98h9.728L159.98,152h4.674l-9.272-28.006H150.29Zm47.272-19.912h-5.852v-3.306h5.852Zm0,6.232h-5.852v-3.306h5.852Zm0,6.346h-5.852v-3.42h5.852Zm-9.31,3H200.3v-3h-8.626v-3.42h6.916V138.32h-6.916v-3.306h7.03v-2.926h-7.03v-3.306h7.98v-3h-7.41c.722-1.406,1.482-3,2.166-4.522l-3.838-.76a33.976,33.976,0,0,1-1.862,5.282h-5.244a42.22,42.22,0,0,0,2.242-4.56l-3.534-.988a29.015,29.015,0,0,1-8.626,11.856,18.008,18.008,0,0,1,2.66,2.736,31.262,31.262,0,0,0,2.774-2.736Zm-3.534-20.52a28.247,28.247,0,0,0-6-6.08l-2.7,1.976a27.133,27.133,0,0,1,5.852,6.346Zm-1.026,7.714h-7.942v3.268h4.56v9.158a52.4,52.4,0,0,1-4.978,3.876l1.748,3.5c1.862-1.634,3.534-3.154,5.13-4.712,2.318,2.926,5.586,4.18,10.3,4.37,4.408.152,12.464.076,16.834-.114a15.389,15.389,0,0,1,1.14-3.458c-4.826.342-13.642.456-17.936.266-4.218-.19-7.22-1.368-8.854-3.99ZM209,129.39h25.384v5.586h3.5v-8.7h-5.51c1.178-1.444,2.432-3.116,3.534-4.75l-3.724-1.178a39.934,39.934,0,0,1-3.686,5.928h-6.422l1.862-.722a22.527,22.527,0,0,0-3.078-5.624l-3.078,1.14a28.145,28.145,0,0,1,2.66,5.206h-7.03l1.368-.646a23.318,23.318,0,0,0-3.534-5.092L208.2,121.9a23.976,23.976,0,0,1,2.964,4.37h-5.472v8.7H209ZM238.45,141.4H223.478V140.9a34.106,34.106,0,0,0,8.892-6.536l-2.28-1.71-.76.19H211.508v3.078h14.44a30.064,30.064,0,0,1-4.294,2.85h-1.786V141.4h-14.82v3.268h14.82V150.9c0,.57-.19.722-.95.76s-3.42.038-6.08-.076A19.012,19.012,0,0,1,214.32,155c3.306,0,5.548-.038,7.106-.532,1.558-.532,2.052-1.52,2.052-3.458v-6.346H238.45Zm33.174-14.972-2.47-1.824a11.526,11.526,0,0,1-3.306.38h-14.1a40.656,40.656,0,0,1-4.142-.266v4.294c.608-.038,2.66-.228,4.142-.228H265.7a31.264,31.264,0,0,1-6.042,10.032,42.7,42.7,0,0,1-15.618,11.134l3.078,3.23a49.884,49.884,0,0,0,14.63-10.944,85.28,85.28,0,0,1,10.07,11.1l3.344-2.964a101.006,101.006,0,0,0-10.868-11.134,52.01,52.01,0,0,0,6.232-10.83A13.114,13.114,0,0,1,271.624,126.426Zm28.044-3.99-4.408-1.444a16.846,16.846,0,0,1-1.406,3.42,32.249,32.249,0,0,1-11.932,12.578l3.344,2.508a39.684,39.684,0,0,0,9.652-9.31h11.856A28.534,28.534,0,0,1,301,141.4c-3.382,3.952-7.9,7.3-15.238,9.5l3.534,3.154c7.106-2.736,11.7-6.194,15.2-10.526a37.609,37.609,0,0,0,6.688-12.92,13,13,0,0,1,1.064-2.318l-3.116-1.9a8.925,8.925,0,0,1-2.85.38h-9.12c.19-.3.38-.646.532-.95C298.11,125.058,298.908,123.576,299.668,122.436Zm20.672,12.616v4.712c1.292-.114,3.572-.19,5.662-.19h20.672c1.672,0,3.42.152,4.256.19v-4.712c-.95.076-2.432.228-4.256.228H326C323.95,135.28,321.594,135.128,320.34,135.052Zm53.884,16.112,2.508,2.09a11.813,11.813,0,0,1,1.444-.95,39.983,39.983,0,0,0,12.958-10.488l-2.318-3.268a26.733,26.733,0,0,1-10.336,8.74V126.274a22.887,22.887,0,0,1,.19-3.04h-4.408a27.851,27.851,0,0,1,.228,3.04v22.5A10.959,10.959,0,0,1,374.224,151.164Zm-17.518-.342,3.648,2.432a21.349,21.349,0,0,0,6.764-10.64c1.026-3.8,1.178-11.894,1.178-16.226a28.444,28.444,0,0,1,.19-3.04h-4.408a11.843,11.843,0,0,1,.3,3.078c0,4.37,0,11.78-1.1,15.162A17.59,17.59,0,0,1,356.706,150.822Z" transform="translate(0 31.844)" fill="#fff"/>
</svg>
