<svg xmlns="http://www.w3.org/2000/svg" width="792" height="208" viewBox="0 0 792 208">
  <g id="グループ_15" data-name="グループ 15" transform="translate(613 -2841)">
    <rect id="長方形_314" data-name="長方形 314" width="780" height="160" transform="translate(-601 2889)" fill="#45ccc4"/>
    <g id="長方形_315" data-name="長方形 315" transform="translate(-613 2877)" fill="none" stroke="#333" stroke-width="1">
      <rect width="780" height="160" stroke="none"/>
      <rect x="0.5" y="0.5" width="779" height="159" fill="none"/>
    </g>
    <g id="楕円形_9" data-name="楕円形 9" transform="translate(-259 2841)" fill="#333" stroke="#333" stroke-width="1">
      <circle cx="36" cy="36" r="36" stroke="none"/>
      <circle cx="36" cy="36" r="35.5" fill="none"/>
    </g>
    <path id="パス_37" data-name="パス 37" d="M1.634,0H20.482V-4.712H14.4c-1.33,0-3.192.152-4.6.3,5.13-5.016,9.348-10.488,9.348-15.58,0-5.244-3.534-8.664-8.854-8.664-3.838,0-6.346,1.482-8.93,4.256l3.04,3.04c1.444-1.558,3.116-2.888,5.168-2.888,2.7,0,4.218,1.71,4.218,4.56,0,4.332-4.522,9.614-12.16,16.454Z" transform="translate(-234.368 2891.652)" fill="#fff"/>
    <path id="パス_42" data-name="パス 42" d="M22.9-23.52C18.116-22.484,9.548-21.756,2.38-21.448a6.327,6.327,0,0,1,.476,1.764c7.252-.28,15.9-.98,21.5-2.156Zm-7.448,7.476a16.826,16.826,0,0,0-1.484-4.06l-1.876.42a16.276,16.276,0,0,1,1.4,4.116ZM4.06-13.552H23.884v3.808h2.044V-15.4H21.14c.84-1.232,1.82-2.744,2.576-4.116l-2.1-.644a34.638,34.638,0,0,1-2.6,4.76H6.832l1.652-.532A16.5,16.5,0,0,0,6.5-19.6L4.7-19.1a19.758,19.758,0,0,1,1.848,3.7H2.1v5.656H4.06ZM19.4-8.456a15.253,15.253,0,0,1-5.32,4.816A16.444,16.444,0,0,1,8.6-8.456Zm1.736-2.016-.42.084H5.46v1.932h1.2l-.28.112A19.806,19.806,0,0,0,12.04-2.576,38.709,38.709,0,0,1,1.512.224,7.88,7.88,0,0,1,2.744,2.072,37.646,37.646,0,0,0,14.028-1.4,32.709,32.709,0,0,0,25.2,2.072,7.912,7.912,0,0,1,26.46.14,35.726,35.726,0,0,1,16.1-2.576,17.443,17.443,0,0,0,22.512-9.6ZM37.66-22.456H30.52v1.68h7.14ZM36.092-5.544V-.868h-4V-5.544Zm1.792-1.708h-7.56V2.1h1.764V.84h5.8Zm-7.5-2.156h7.392V-11.06H30.38Zm7.392-5.46H30.38v1.652h7.392Zm-8.6-2.156H38.5v-1.708H29.176ZM47.6-3.948V-5.964h3.808v2.016ZM42.168-5.964h3.668v2.016H42.168Zm3.668-3.5V-7.42H42.168V-9.464Zm5.572,0V-7.42H47.6V-9.464ZM44.66-16.156h4.424v1.876H44.66Zm0-3.3h4.424V-17.7H44.66ZM54.88-3.948H53.34v-7.084H47.6v-1.6h7.252V-14.28H50.96v-1.876h2.912V-17.7H50.96V-19.46h3.472v-1.6H50.96v-2.352H49.084v2.352H44.66v-2.352h-1.9v2.352h-3.3v1.6h3.3V-17.7H40.012v1.54h2.744v1.876H38.7v1.652h7.14v1.6H40.348v7.084h-1.68v1.68h1.68v4.4h1.82v-4.4h9.24v2.3c0,.336-.084.42-.476.42-.336.028-1.6.028-2.94,0a7.32,7.32,0,0,1,.532,1.68A12.747,12.747,0,0,0,52.36,1.82c.756-.28.98-.784.98-1.764V-2.268h1.54ZM71.12-.756V-7.868h8.988V-9.884H71.12v-6.1H81.144v-2.044H71.12v-5.376H68.992v5.376H63.308a38.433,38.433,0,0,0,1.568-4.48l-2.1-.448c-1.092,3.976-2.884,7.84-5.18,10.3a13.941,13.941,0,0,1,1.9,1.232,25.123,25.123,0,0,0,2.912-4.564h6.58v6.1H60.676v2.016h8.316V-.756H57.652V1.26H82.46V-.756Zm38.3-9.044c0-5.684-4.172-10.3-10.724-10.3-6.832,0-12.236,5.32-12.236,11.4,0,4.62,2.492,7.476,4.984,7.476,2.6,0,4.816-2.94,6.524-8.708A55.08,55.08,0,0,0,99.652-18a7.8,7.8,0,0,1,7.476,8.12c0,4.844-3.528,7.5-7.112,8.316a21.15,21.15,0,0,1-2.408.364L98.924.868C105.56,0,109.424-3.92,109.424-9.8Zm-20.776.9c0-3.808,3.3-8.4,8.68-9.072a45.749,45.749,0,0,1-1.568,7.56c-1.428,4.732-2.912,6.608-4.228,6.608C90.272-3.808,88.648-5.376,88.648-8.9ZM120.54-20.132a19.088,19.088,0,0,0-4.844-3l-1.2,1.484a18.925,18.925,0,0,1,4.76,3.108Zm-1.148,7.168a22.42,22.42,0,0,0-5.124-2.548l-1.148,1.6a20.592,20.592,0,0,1,5.1,2.744ZM115.7,1.764c1.428-2.6,3.08-6.048,4.312-8.988L118.44-8.456A79.241,79.241,0,0,1,113.876.476ZM126.812-18.7h4.956v3.136h-4.956Zm11.844,5.012v-1.876h-4.9V-18.7H137.9v-1.82h-4.144v-2.884h-1.988v2.884h-4.956v-2.884H124.88v2.884h-4v1.82h4v3.136h-4.956v1.876h8.344v2.352H121.1V2.1h1.876V-9.492h5.488v5.684h-2.24V-7.98h-1.4V-.532h1.4v-1.68h6.216V-.924h1.372V-7.98H132.44v4.172h-2.352V-9.492h5.74v9.38c0,.336-.112.448-.5.476-.392,0-1.708,0-3.136-.056a7.55,7.55,0,0,1,.56,1.764,14.6,14.6,0,0,0,4.06-.28c.756-.308.952-.868.952-1.9V-11.34h-7.476v-2.352Zm8.176-6.356h14.84v5.488h-14.84ZM155.2-6.328h9.38V-8.26H155.2v-4.312h8.624v-9.492h-19.04v9.492H153.1v11.34A8.813,8.813,0,0,1,147.9-6.748a32.247,32.247,0,0,0,.7-3.5l-2.212-.252c-.392,4-1.736,8.708-5.04,11.256a8.574,8.574,0,0,1,1.456,1.4,13.932,13.932,0,0,0,4.284-6.3c2.66,4.844,6.944,5.908,12.88,5.908h6.16a7.294,7.294,0,0,1,.756-2.016c-1.176.028-5.936.028-6.8.028a24.114,24.114,0,0,1-4.872-.42ZM194.32-18.76v-1.9H183.876v-2.744h-2.128v2.744H171.472v8.008c0,4.032-.2,9.688-2.492,13.664a8.049,8.049,0,0,1,1.708,1.176c2.408-4.228,2.744-10.528,2.744-14.84v-6.1Zm-6.72,4.844v2.94h-6.776v-2.94Zm2.016,4.62v-4.62h4.508v-1.708h-4.508V-18.06H187.6v2.436h-6.776V-18.06h-1.988v2.436h-4.452v1.708h4.452V-9.3Zm-.448,3.472a12.868,12.868,0,0,1-4.732,3.556A12.542,12.542,0,0,1,179.9-5.824ZM190.9-7.616l-.364.084H174.72v1.708h4.312l-1.12.42a14.088,14.088,0,0,0,4.4,4A37.982,37.982,0,0,1,173.684.392a7.2,7.2,0,0,1,.868,1.736A37.925,37.925,0,0,0,184.408-.28a31.939,31.939,0,0,0,9.212,2.464,6.173,6.173,0,0,1,1.2-1.764,35.606,35.606,0,0,1-8.232-1.764,13.83,13.83,0,0,0,5.628-5.572ZM198.464,0H209.72V-2.128H205.6V-20.552h-1.96a12.364,12.364,0,0,1-4.256,1.484v1.624h3.64V-2.128h-4.564Zm20.86.364c3.892,0,6.384-3.556,6.384-10.7,0-7.112-2.492-10.584-6.384-10.584-3.92,0-6.412,3.444-6.412,10.584S215.4.364,219.324.364Zm0-2.044c-2.352,0-3.92-2.6-3.92-8.652,0-5.992,1.568-8.54,3.92-8.54,2.324,0,3.892,2.548,3.892,8.54C223.216-4.284,221.648-1.68,219.324-1.68ZM234.864.364c3.892,0,6.384-3.556,6.384-10.7,0-7.112-2.492-10.584-6.384-10.584-3.92,0-6.412,3.444-6.412,10.584S230.944.364,234.864.364Zm0-2.044c-2.352,0-3.92-2.6-3.92-8.652,0-5.992,1.568-8.54,3.92-8.54,2.324,0,3.892,2.548,3.892,8.54C238.756-4.284,237.188-1.68,234.864-1.68Zm13.5-6.272c2.828,0,4.676-2.38,4.676-6.524,0-4.116-1.848-6.44-4.676-6.44-2.8,0-4.648,2.324-4.648,6.44C243.712-10.332,245.56-7.952,248.36-7.952Zm0-1.6c-1.6,0-2.716-1.652-2.716-4.928s1.12-4.872,2.716-4.872c1.624,0,2.744,1.6,2.744,4.872S249.984-9.548,248.36-9.548Zm.616,9.912h1.708l11.34-21.28h-1.736Zm13.692,0c2.8,0,4.648-2.352,4.648-6.5,0-4.116-1.848-6.44-4.648-6.44s-4.676,2.324-4.676,6.44C257.992-1.988,259.868.364,262.668.364Zm0-1.568c-1.624,0-2.716-1.652-2.716-4.928S261.044-11,262.668-11c1.6,0,2.716,1.6,2.716,4.872S264.264-1.2,262.668-1.2Z" transform="translate(-345.512 2979.52)"/>
  </g>
</svg>
