<svg xmlns="http://www.w3.org/2000/svg" width="311.112" height="135.961" viewBox="0 0 311.112 135.961">
  <path id="パス_15" data-name="パス 15" d="M53.962-16.612c2.322-.5,6.057-.909,8.278-1.918,1.312-.606,1.918-1.918,2.726-3.23L69-28.221l-6.763-1.11C66.783-35.994,78.089-55.78,78.089-63.25c0-4.946-6.763-5.35-10.4-5.35-5.956,0-13.527.3-39.975,6.36-5.855,1.312-11.306,2.423-15.243,7.369C10.454-52.448,4.7-42.354,4.7-39.426c0,1.817.909,3.028,7.773.909l11.71-3.634c.808-.2,3.028-.5,3.028-1.716,0-1.009-1.211-.909-1.918-.909l-5.249.1-.2-.2A144.634,144.634,0,0,1,53.76-54.366c7.672-1.211,8.177-.808,8.379-.808,1.716,0,3.23-.1,3.23,1.918,0,4.946-8.177,18.877-11.508,23.319L38.416-27.01c-3.836.707-10.5,2.827-13.628,4.845-2.625,1.716-3.028,4.139-2.625,6.965.2,1.413,4.442,1.413,5.148,1.312L42.353-15.1,30.543-2.58a19.339,19.339,0,0,0-10.5,6.36c-1.918,2.019-6.158,7.268-6.158,10.095A2.416,2.416,0,0,0,16.309,16.4C20.953,16.4,33.268,5.193,36.7,1.558Zm52.695-1.615c-5.35,4.24-13.83,11.609-21,11.609-3.23,0-6.562-1.312-6.259-5.148l.2-2.221c19.382-6.36,24.328-13.83,24.328-18.776,0-4.038-4.038-4.845-7.268-4.845C83.54-37.71,68.9-24.183,69.306-10.959c.2,6.663,3.634,13.224,11,13.224,9.994,0,21.1-9.489,27.256-16.656Zm-26.448-.707c2.726-6.663,8.581-11.508,13.628-12.82.707-.2,1.211.4,1.211,1.11C95.149-28.928,89.092-21.962,80.209-18.934Zm57.136-8.379.2.2C117.559-6.921,114.43-7.224,112.411-6.82c-1.514.3-1.918-1.514-2.019-2.019C110.392-13.786,113.319-19.943,137.345-27.312Zm-5.451,13.628.2.2c-1.312,2.726-3.735,8.076-3.735,11.306,0,2.927,1.514,5.35,4.845,5.35,4.946,0,18.473-10.8,22.814-15.748l-.808-3.735c-4.341,2.927-10.095,8.076-14.335,8.076-1.615,0-3.129-.707-3.129-2.423,0-4.745,8.782-11.811,8.782-15.041,0-2.221-1.009-3.331-2.927-4.139.909-.3,3.533-1.312,3.533-2.524s-1.918-4.946-6.562-4.845c-11.71.3-37.956,13.224-37.552,25.843.2,5.249,6.057,11.912,8.883,11.912,2.322,0,8.782-5.249,10.7-6.763Zm52.19-28.265c1.009-1.413,3.937-4.745,3.937-6.562,0-1.615-1.918-1.918-3.23-1.918-5.855,0-8.076,4.745-11.1,8.883-10.8.4-11.609,2.019-17.06,10.9l-1.11,1.817c5.35-.808,3.432-.4,9.59-.4-3.735,6.36-9.287,11.508-15.344,16.152l1.11,3.836,5.148-4.139.2.2C154.91-10.252,153.6-6.416,153.6-3.085c0,4.038,2.423,6.763,6.36,6.763,8.581,0,19.483-10.8,25.439-16.253l-.5-4.442c-10.5,7.47-14.133,10.5-17.363,10.5-2.322,0-3.028-1.312-3.028-3.533,0-6.057,5.754-14.335,9.186-18.776,11.1.707,11.912-3.028,16.656-12.618Zm19.382,24.732c-4.745,4.24-10.3,7.167-12.114,7.167-.707,0-.808-1.009-.808-1.514,0-4.24,2.423-6.461,5.552-8.681,3.937-2.827,4.543-3.735,7.672-7.268,1.11-.909,3.836-3.735,4.038-5.35.4-3.028-4.745-2.12-6.158-2.12a7.5,7.5,0,0,0-4.442,1.11c-6.461,4.24-14.032,14.335-14.032,24.126,0,4.341,2.726,9.994,7.672,9.994,5.552,0,12.316-9.085,16.253-12.517l.2.2c-1.009,2.625-2.12,5.451-2.12,8.48,0,3.533,2.221,6.663,5.956,6.663,7.47,0,18.171-11.609,23.319-16.555l-.606-4.341c-3.028,2.423-11.71,9.489-15.546,9.489-1.615,0-2.524-.606-2.524-2.221,0-4.543,7.167-12.517,10.4-15.445,1.615-1.413,4.341-3.735,4.139-6.158-.4-5.249-1.514-5.552-2.322-5.552-2.524,0-12.417,9.59-14.536,11.508Zm47.142-6.36.2.2c-4.038,4.845-9.287,10.2-9.287,17.06,0,3.836,2.625,7.773,6.864,7.773,5.754,0,17.363-11.205,21.2-15.546l-.707-3.735c-3.331,2.524-9.691,9.085-14.032,9.085a3.093,3.093,0,0,1-3.129-2.827c0-4.038,4.946-8.984,7.874-11.508,2.322-1.918,4.24-3.432,4.24-6.562a10.119,10.119,0,0,0-2.423-5.35c-1.009-1.211-6.562,0-16.051,1.312a6.876,6.876,0,0,0,.707-2.827,1.791,1.791,0,0,0-1.817-1.716c-2.423,0-12.719,7.268-12.719,14.536,0,2.12.606,2.927,2.726,3.129a35.535,35.535,0,0,1-6.663,7.369l.4,4.442c4.341-4.341,8.581-6.965,12.114-12.517Zm54.108,5.35c-5.35,4.24-13.83,11.609-21,11.609-3.23,0-6.562-1.312-6.259-5.148l.2-2.221c19.382-6.36,24.328-13.83,24.328-18.776,0-4.038-4.038-4.845-7.268-4.845-13.123-.1-27.761,13.426-27.357,26.65.2,6.663,3.634,13.224,11,13.224,9.994,0,21.1-9.489,27.256-16.656Zm-26.448-.707c2.726-6.663,8.581-11.508,13.628-12.82.707-.2,1.211.4,1.211,1.11C293.208-28.928,287.151-21.962,278.268-18.934Z" transform="matrix(0.985, -0.174, 0.174, 0.985, 7.284, 120.629)"/>
</svg>
