<svg xmlns="http://www.w3.org/2000/svg" width="792" height="208" viewBox="0 0 792 208">
  <g id="グループ_24" data-name="グループ 24" transform="translate(613 -2577)">
    <rect id="長方形_312" data-name="長方形 312" width="780" height="160" transform="translate(-601 2625)" fill="#45ccc4"/>
    <g id="長方形_313" data-name="長方形 313" transform="translate(-613 2613)" fill="none" stroke="#333" stroke-width="1">
      <rect width="780" height="160" stroke="none"/>
      <rect x="0.5" y="0.5" width="779" height="159" fill="none"/>
    </g>
    <g id="グループ_9" data-name="グループ 9" transform="translate(-938 -1149)">
      <g id="楕円形_9" data-name="楕円形 9" transform="translate(679 3726)" fill="#333" stroke="#333" stroke-width="1">
        <circle cx="36" cy="36" r="36" stroke="none"/>
        <circle cx="36" cy="36" r="35.5" fill="none"/>
      </g>
      <path id="パス_27" data-name="パス 27" d="M3.116,0h16.91V-4.522H14.744V-28.158H10.6a17.543,17.543,0,0,1-6.536,2.394v3.458H9.158V-4.522H3.116Z" transform="translate(703.884 3776.158)" fill="#fff"/>
    </g>
    <path id="パス_43" data-name="パス 43" d="M21.672-17.976H17.584v-1.988h4.088Zm0,3.416H17.584v-1.988h4.088ZM6.048-16.548H9.856v1.988H6.048Zm0-3.416H9.856v1.988H6.048Zm9.744,3.416v1.988H11.676v-1.988Zm0-3.416v1.988H11.676v-1.988Zm7.9-1.484h-6.1v-2.016H15.792v2.016H11.676v-2.016H9.856v2.016H4.116v8.4H23.688ZM26.1-11.592H2.016v1.568H26.1Zm-7.728,8.4A18.581,18.581,0,0,1,16.744-.364l.588.224H10.388l.7-.252a11.574,11.574,0,0,0-1.512-2.8ZM7.2-7.112H20.72v2.464H7.2ZM18.648-.14c.5-.728,1.092-1.652,1.624-2.6l-1.2-.448H22.82V-8.568H5.18v5.376H9.156l-1.4.448A11.511,11.511,0,0,1,9.1-.14H1.568V1.512h24.92V-.14ZM40.908-6.3v2.212h-6.5V-6.3ZM49.7-4.088H42.924V-6.3H49.7ZM42.924-.364V-2.632H49.7V-.364ZM34.412-2.632h6.5V-.364h-6.5Zm-1.988,4.76h1.988v-.9H49.7v.784h2.044V-7.868H32.424ZM50.008-17.948H34.076v1.512H50.008ZM36.176-13.3h11.76v2.38H36.176ZM49.952-9.436v-5.348H34.272v5.348ZM42.98-21.588v-1.848h-2.1v1.848H30.352v5.264H32.34V-19.8H51.688v3.472h2.044v-5.264Zm25.648-.644-2.464-.224a23.227,23.227,0,0,1-.868,4.844c-1.092.084-2.156.14-3.164.14a26.412,26.412,0,0,1-3.416-.2l.14,2.1c1.064.056,2.24.084,3.276.084.812,0,1.652-.028,2.492-.084A41.435,41.435,0,0,1,58.632-5.1l2.156,1.12a49.523,49.523,0,0,0,6.1-11.816,37.973,37.973,0,0,0,5.1-1.036l-.056-2.1a27.06,27.06,0,0,1-4.4,1.036C67.984-19.516,68.376-21.224,68.628-22.232ZM67.088-2.8c0-1.288,1.4-2.24,3.444-2.24a9.708,9.708,0,0,1,2.884.42c.028.476.028.9.028,1.26,0,1.54-.784,2.772-3.108,2.772C68.152-.588,67.088-1.484,67.088-2.8Zm8.148-10.78H73.052c.056,1.988.2,4.76.308,7.056a12.5,12.5,0,0,0-2.744-.28c-3.164,0-5.6,1.624-5.6,4.2,0,2.772,2.52,4.032,5.6,4.032,3.472,0,4.9-1.82,4.9-4.06,0-.336,0-.728-.028-1.176a20.929,20.929,0,0,1,4.536,3.22l1.2-1.9A19.21,19.21,0,0,0,75.4-5.964c-.056-1.736-.168-3.556-.2-4.592C75.18-11.564,75.18-12.432,75.236-13.58Zm5.6.756,1.26-1.848A42.294,42.294,0,0,0,75.572-18.4l-1.148,1.708A32.788,32.788,0,0,1,80.836-12.824Zm17.388-9.212H95.592a16.974,16.974,0,0,1,.2,2.324c0,1.008-.056,1.96-.112,2.856H90.748a29.305,29.305,0,0,1-3.192-.168v2.38a29.878,29.878,0,0,1,3.22-.112h4.7c-.756,5.768-2.772,9.268-5.544,11.788A13.8,13.8,0,0,1,87.052-.9L89.1.756c4.676-3.22,7.588-7.476,8.6-15.512h7.84c0,3-.364,9.884-1.428,12.012a1.516,1.516,0,0,1-1.624.924,34.066,34.066,0,0,1-4.172-.308L98.588.2c1.456.084,3.08.2,4.508.2a2.906,2.906,0,0,0,3-1.708c1.26-2.688,1.6-10.836,1.708-13.524a8.758,8.758,0,0,1,.14-1.372L106.372-17a10.091,10.091,0,0,1-1.792.14H97.916c.056-.924.112-1.876.14-2.884C98.084-20.412,98.14-21.392,98.224-22.036Zm35.5.784H131.1a20.088,20.088,0,0,1,.14,2.436v4.424c0,5.292-.336,7.56-2.324,9.884A12.836,12.836,0,0,1,122.22-.784l1.82,1.932A14.955,14.955,0,0,0,130.7-2.94c2.016-2.408,2.94-4.62,2.94-11.34v-4.536C133.644-19.768,133.672-20.552,133.728-21.252Zm-12.992.224h-2.548c.056.532.112,1.512.112,2.016v9.324a18.351,18.351,0,0,1-.14,2.156h2.576c-.056-.5-.112-1.428-.112-2.128v-9.352C120.624-19.684,120.68-20.5,120.736-21.028Zm30.24,1.232c.084.336.28,1.428.588,2.94-2.632.42-5.068.784-6.16.9-.9.112-1.624.168-2.324.2l.476,2.52c.84-.2,1.484-.336,2.268-.476,1.064-.2,3.5-.588,6.16-1.008.336,1.736.728,3.724,1.12,5.628-3.192.5-6.244.98-7.644,1.176-.728.112-1.82.224-2.464.252l.5,2.436c.588-.168,1.372-.308,2.464-.5,1.372-.252,4.368-.756,7.532-1.288.532,2.772.98,5.04,1.092,5.656.2.84.28,1.68.42,2.632l2.548-.476c-.252-.784-.476-1.736-.672-2.548-.14-.644-.588-2.884-1.148-5.628,2.744-.42,5.348-.84,6.888-1.092,1.036-.168,1.932-.308,2.52-.364L164.7-11.2c-.616.168-1.4.336-2.492.532-1.4.252-4.06.728-6.888,1.176-.364-1.876-.756-3.864-1.12-5.6,2.688-.42,5.236-.84,6.524-1.036.728-.112,1.6-.224,2.016-.28l-.476-2.352a17.562,17.562,0,0,1-1.988.476c-1.176.224-3.752.644-6.468,1.092-.336-1.568-.532-2.716-.588-3.024-.084-.616-.224-1.4-.252-1.932l-2.52.448A13.118,13.118,0,0,1,150.976-19.8Zm37.66,6.468-1.708-.812a4.807,4.807,0,0,1-1.4.2h-8.512a19.116,19.116,0,0,1-2.212-.168v2.352c.7-.028,1.428-.084,2.24-.084h8.9c-.084,1.6-.9,7.056-1.316,9.408H174.5c-.84,0-1.652-.056-2.324-.112V-.224c.812-.056,1.456-.084,2.324-.084H189.84c.588,0,1.624.028,2.128.056V-2.52c-.588.056-1.6.084-2.212.084h-2.744c.392-2.576,1.2-8.12,1.428-10.024A6.229,6.229,0,0,1,188.636-13.328Zm13.832-7.532v2.324c.756-.056,1.652-.084,2.52-.084h10.976c.952,0,1.9.028,2.576.084V-20.86a17.44,17.44,0,0,1-2.548.14h-11A17.509,17.509,0,0,1,202.468-20.86Zm18.116,7.392-1.6-1.008a3.72,3.72,0,0,1-1.54.224H202.692a26.464,26.464,0,0,1-2.744-.168v2.352c1.008-.056,2.072-.084,2.744-.084H217.56a14.314,14.314,0,0,1-3.332,6.188A18.658,18.658,0,0,1,204.372-.84l1.736,1.988A20.276,20.276,0,0,0,216.132-4.7a19.283,19.283,0,0,0,4.088-7.952A4.9,4.9,0,0,1,220.584-13.468Zm17.192-7.42-2.8-.56a17.616,17.616,0,0,1-.532,2.688c-.784,2.744-3.64,11.7-5.208,15.568-.5.028-.98.056-1.4.084-.812.028-1.764.056-2.6.028l.42,2.6c.812-.112,1.624-.252,2.324-.308,3.752-.336,13.132-1.372,17.444-1.932.644,1.372,1.176,2.66,1.54,3.668l2.352-1.064a78.891,78.891,0,0,0-6.216-11.4l-2.1.952a39.765,39.765,0,0,1,3.416,5.74c-3.08.42-8.456,1.008-12.572,1.4,1.4-3.64,4.172-12.236,4.984-14.868C237.188-19.46,237.5-20.188,237.776-20.888Z" transform="translate(-336.568 2715.464)"/>
  </g>
</svg>
