<svg xmlns="http://www.w3.org/2000/svg" width="792" height="208" viewBox="0 0 792 208">
  <g id="グループ_18" data-name="グループ 18" transform="translate(613 -3131)">
    <rect id="長方形_316" data-name="長方形 316" width="780" height="160" transform="translate(-601 3179)" fill="#45ccc4"/>
    <g id="長方形_317" data-name="長方形 317" transform="translate(-613 3167)" fill="none" stroke="#333" stroke-width="1">
      <rect width="780" height="160" stroke="none"/>
      <rect x="0.5" y="0.5" width="779" height="159" fill="none"/>
    </g>
    <g id="楕円形_9" data-name="楕円形 9" transform="translate(-259 3131)" fill="#333" stroke="#333" stroke-width="1">
      <circle cx="36" cy="36" r="36" stroke="none"/>
      <circle cx="36" cy="36" r="35.5" fill="none"/>
    </g>
    <path id="パス_38" data-name="パス 38" d="M10.412.532c5.358,0,9.88-3,9.88-8.17,0-3.686-2.432-6.042-5.586-6.916v-.19c2.964-1.178,4.674-3.382,4.674-6.422,0-4.788-3.686-7.486-9.12-7.486a12.476,12.476,0,0,0-8.436,3.458l2.85,3.42a7.643,7.643,0,0,1,5.32-2.47c2.394,0,3.762,1.292,3.762,3.5,0,2.508-1.672,4.294-6.84,4.294v3.99c6.118,0,7.752,1.748,7.752,4.484,0,2.546-1.938,3.952-4.788,3.952A8.933,8.933,0,0,1,3.61-6.916L.988-3.382A11.954,11.954,0,0,0,10.412.532Z" transform="translate(-233.988 3180.652)" fill="#fff"/>
    <path id="パス_44" data-name="パス 44" d="M9.66-22.456H2.52v1.68H9.66ZM8.092-5.544V-.868h-4V-5.544ZM9.884-7.252H2.324V2.1H4.088V.84h5.8ZM2.38-9.408H9.772V-11.06H2.38Zm7.392-5.46H2.38v1.652H9.772Zm-8.6-2.156H10.5v-1.708H1.176ZM19.6-3.948V-5.964h3.808v2.016ZM14.168-5.964h3.668v2.016H14.168Zm3.668-3.5V-7.42H14.168V-9.464Zm5.572,0V-7.42H19.6V-9.464ZM16.66-16.156h4.424v1.876H16.66Zm0-3.3h4.424V-17.7H16.66ZM26.88-3.948H25.34v-7.084H19.6v-1.6h7.252V-14.28H22.96v-1.876h2.912V-17.7H22.96V-19.46h3.472v-1.6H22.96v-2.352H21.084v2.352H16.66v-2.352h-1.9v2.352h-3.3v1.6h3.3V-17.7H12.012v1.54h2.744v1.876H10.7v1.652h7.14v1.6H12.348v7.084h-1.68v1.68h1.68v4.4h1.82v-4.4h9.24v2.3c0,.336-.084.42-.476.42-.336.028-1.6.028-2.94,0a7.32,7.32,0,0,1,.532,1.68A12.747,12.747,0,0,0,24.36,1.82c.756-.28.98-.784.98-1.764V-2.268h1.54ZM37.1-7.168V-2.38H32.228V-7.168Zm-.252-10.276v4.116h-4.62v-4.116Zm-4.62,5.88H38.7v-7.672H34.58c.5-1.148,1.092-2.6,1.54-3.864l-2.24-.336a31.858,31.858,0,0,1-1.2,4.2H30.324V1.288h1.9V-.588h6.748V-8.96H32.228Zm22.428-8.512v-1.876H39.816v1.876H46.2v3.444H40.852V-2.044h1.9V-14.728H46.2V2.1h1.96V-14.728h3.724V-4.256c0,.28-.084.392-.392.392-.28,0-1.148,0-2.156-.028a7.191,7.191,0,0,1,.56,1.82A7.912,7.912,0,0,0,53-2.408c.644-.308.812-.9.812-1.82v-12.4H48.16v-3.444ZM68.488-3.36c0-1.372,1.484-2.268,3.584-2.268a9.529,9.529,0,0,1,2.856.448c.028.364.028.7.028.98,0,1.848-.7,3.052-3.052,3.052C69.888-1.148,68.488-1.932,68.488-3.36Zm8.484-18.2h-2.52c.056.476.112,1.232.112,1.708v3.472c-.868.028-1.764.056-2.632.056-1.68,0-3.164-.084-4.76-.224v2.1c1.652.112,3.108.2,4.7.2.9,0,1.792-.028,2.688-.056.028,2.3.2,5.04.28,7.2a12.84,12.84,0,0,0-2.6-.252c-3.668,0-5.768,1.876-5.768,4.228,0,2.52,2.072,4,5.824,4,3.78,0,4.844-2.212,4.844-4.508v-.588A22.778,22.778,0,0,1,81.368-.98L82.6-2.856a18.456,18.456,0,0,0-5.544-3.612c-.112-2.352-.308-5.152-.336-7.98,1.68-.112,3.3-.28,4.844-.532v-2.156a47.28,47.28,0,0,1-4.844.644c.028-1.316.056-2.632.084-3.388Q76.846-20.72,76.972-21.56Zm-13.832.168-2.464-.2a16.8,16.8,0,0,1-.168,1.988A83.313,83.313,0,0,0,59.22-7.812a33.819,33.819,0,0,0,1.064,8.848L62.244.9c-.028-.308-.056-.7-.056-.98a5.016,5.016,0,0,1,.112-1.26c.28-1.372,1.316-4.228,1.988-6.188l-1.148-.9c-.476,1.148-1.148,2.856-1.6,4.116a26.266,26.266,0,0,1-.28-3.892,69.424,69.424,0,0,1,1.4-11.284A14.56,14.56,0,0,1,63.14-21.392ZM110.32-5.124V-6.972H98.448A12.332,12.332,0,0,0,98.9-9.6h8.316V-11.34h-8.26v-2.492H107.6v-1.484h2.1v-5.376h-10.7v-2.716H96.936v2.716H86.268v5.376h2.016v-3.5H107.6v3.22H98.952V-17.92H96.88V-15.6H88.62v1.764h8.26v2.492H89.068V-9.6h7.756a8.807,8.807,0,0,1-.532,2.632H85.848v1.848H95.34c-1.456,2.1-4.312,4.06-9.772,5.572a8.218,8.218,0,0,1,1.26,1.68c6.384-1.9,9.436-4.48,10.892-7.252h.252c2.128,4,5.936,6.356,11.4,7.308a7.963,7.963,0,0,1,1.26-1.792c-4.872-.7-8.456-2.52-10.444-5.516Zm15.344-12.208V-23.38h-2.156v6.048h-9.072v2.072h8.96c-.42,5.236-2.212,11.368-9.8,15.876a7.448,7.448,0,0,1,1.6,1.652c8.12-4.956,9.968-11.732,10.36-17.528H135.1c-.532,9.856-1.148,13.8-2.156,14.756a1.605,1.605,0,0,1-1.288.42c-.7,0-2.492-.028-4.4-.2a4.555,4.555,0,0,1,.7,2.128,36.193,36.193,0,0,0,4.48.084,3.077,3.077,0,0,0,2.38-1.12c1.232-1.4,1.82-5.572,2.436-17.052.028-.308.056-1.092.056-1.092Zm22.988-2.94a20.7,20.7,0,0,0-4.956-2.94l-1.148,1.54a20.755,20.755,0,0,1,4.9,3.08Zm-1.372,7.28a20.1,20.1,0,0,0-4.956-2.716l-1.176,1.54a21.432,21.432,0,0,1,4.956,2.912Zm-.728,4.424a82.312,82.312,0,0,1-4.76,9.044l1.848,1.288c1.456-2.6,3.22-6.1,4.508-9.072Zm17.052-14.9a58.3,58.3,0,0,1-11.4,3.388l-1.792-.532v7.532c0,4.228-.336,9.856-3.472,14.084a4.438,4.438,0,0,1,1.624,1.316c3.36-4.592,3.836-10.92,3.836-15.372v-5.236A70.685,70.685,0,0,0,165.4-21.84ZM165.4-12.488a31.78,31.78,0,0,1-3.836,3.556c-.364-1.568-.672-3.22-.9-4.928a37.43,37.43,0,0,0,5.432-1.792l-1.652-1.568a56.318,56.318,0,0,1-11.9,3.332,7.586,7.586,0,0,1,.672,1.652c.56-.112,1.148-.224,1.736-.336V2.1h1.988V-12.964c.672-.168,1.372-.308,2.044-.476.924,7.028,2.66,12.74,6.552,15.652A6.372,6.372,0,0,1,166.992.448c-2.352-1.54-3.92-4.312-4.956-7.728,1.456-.98,3.22-2.436,4.76-3.724Zm9.1-8.428.112,2.3c.588-.056,1.428-.14,2.128-.2,1.2-.112,6.1-.336,7.364-.42-1.792,1.568-6.216,5.46-9.268,7.56-1.4.168-3.3.42-4.816.56l.2,2.1c3.36-.532,7.084-.98,10.08-1.232a6.752,6.752,0,0,0-3.248,5.292c0,4.312,3.724,6.44,10.556,6.16l.448-2.3a19.49,19.49,0,0,1-4-.056C181.5-1.512,179.2-2.464,179.2-5.292c0-2.632,2.688-4.928,5.4-5.32a40.426,40.426,0,0,1,7.112-.14v-2.072a129.022,129.022,0,0,0-13.328.84c2.24-1.792,6.3-5.18,8.372-6.888a16.6,16.6,0,0,1,1.512-1.064l-1.428-1.6a9.244,9.244,0,0,1-1.512.28c-1.624.168-7.392.42-8.624.42C175.868-20.832,175.168-20.86,174.5-20.916ZM188.384-18l-1.428.616a23.326,23.326,0,0,1,2.1,3.612l1.428-.672A27.743,27.743,0,0,0,188.384-18Zm2.94-1.12-1.4.644a22.817,22.817,0,0,1,2.184,3.556l1.428-.7A26.962,26.962,0,0,0,191.324-19.124ZM202.5-20.44l.056,2.352c.588-.084,1.372-.168,1.988-.2,1.4-.084,6.636-.308,8.344-.392-2.38,2.436-9.772,8.624-13.86,11.816l1.708,1.736c3.5-3.36,6.048-5.824,10.892-5.824,3.584,0,5.88,1.848,5.88,4.536,0,4.144-5.068,6.216-12.824,5.264L205.3,1.12c9.268.756,14.56-2.156,14.56-7.5,0-3.808-3.192-6.412-7.84-6.412a11.587,11.587,0,0,0-4,.756c2.324-1.9,5.684-4.648,7.756-6.384A10.431,10.431,0,0,1,217-19.236l-1.344-1.624a13.106,13.106,0,0,1-1.568.252c-1.764.112-8.148.252-9.632.252A19.06,19.06,0,0,1,202.5-20.44Zm27.748.9-2.716-.056a12.63,12.63,0,0,1,.2,2.492c0,1.624.056,5.04.308,7.476.756,7.252,3.3,9.884,5.964,9.884,1.876,0,3.584-1.624,5.264-6.384L237.5-8.12c-.728,2.8-2.044,5.712-3.472,5.712-1.988,0-3.36-3.108-3.808-7.784-.2-2.324-.224-4.872-.2-6.636A21.319,21.319,0,0,1,230.244-19.544Zm14.588.784L242.648-18c2.688,3.276,4.368,9.016,4.872,14.084l2.24-.924C249.34-9.576,247.324-15.512,244.832-18.76Z" transform="translate(-336.176 3269.464)"/>
  </g>
</svg>
