<svg xmlns="http://www.w3.org/2000/svg" width="852" height="132" viewBox="0 0 852 132">
  <g id="グループ_67" data-name="グループ 67" transform="translate(660 -1655)">
    <g id="長方形_334" data-name="長方形 334" transform="translate(-660 1655)" fill="#fff" stroke="#333" stroke-width="1">
      <rect width="840" height="120" stroke="none"/>
      <rect x="0.5" y="0.5" width="839" height="119" fill="none"/>
    </g>
    <g id="長方形_333" data-name="長方形 333" transform="translate(-648 1667)" fill="none" stroke="#45ccc4" stroke-width="2">
      <rect width="840" height="120" stroke="none"/>
      <rect x="1" y="1" width="838" height="118" fill="none"/>
    </g>
    <rect id="長方形_335" data-name="長方形 335" width="249" height="16" transform="translate(-476 1727)" fill="#ff0"/>
    <path id="パス_73" data-name="パス 73" d="M3.116,0h16.91V-4.522H14.744V-28.158H10.6a17.543,17.543,0,0,1-6.536,2.394v3.458H9.158V-4.522H3.116Z" transform="translate(-599.116 1737.158)" fill="#fff"/>
    <g id="グループ_62" data-name="グループ 62" transform="translate(-16.5 320.868)">
      <line id="線_3" data-name="線 3" y1="13.735" x2="14.136" transform="translate(106.364 1393.132)" fill="none" stroke="#000" stroke-width="2"/>
      <line id="線_4" data-name="線 4" x2="13.278" y2="13.735" transform="translate(94.5 1393.132)" fill="none" stroke="#000" stroke-width="2"/>
    </g>
    <g id="グループ_58" data-name="グループ 58" transform="translate(309 172)">
      <g id="楕円形_33" data-name="楕円形 33" transform="translate(-927 1517)" fill="#333" stroke="#707070" stroke-width="1">
        <circle cx="32" cy="32" r="32" stroke="none"/>
        <circle cx="32" cy="32" r="31.5" fill="none"/>
      </g>
      <path id="パス_80" data-name="パス 80" d="M8.768.448c4.512,0,8.32-2.528,8.32-6.88a5.922,5.922,0,0,0-4.7-5.824v-.16a5.62,5.62,0,0,0,3.936-5.408c0-4.032-3.1-6.3-7.68-6.3a10.506,10.506,0,0,0-7.1,2.912l2.4,2.88a6.436,6.436,0,0,1,4.48-2.08c2.016,0,3.168,1.088,3.168,2.944,0,2.112-1.408,3.616-5.76,3.616v3.36c5.152,0,6.528,1.472,6.528,3.776,0,2.144-1.632,3.328-4.032,3.328A7.522,7.522,0,0,1,3.04-5.824L.832-2.848A10.066,10.066,0,0,0,8.768.448Z" transform="translate(-903.832 1561.128)" fill="#fff"/>
    </g>
    <path id="パス_84" data-name="パス 84" d="M9.688-22.568H2.464v2.044H9.688ZM7.728-5.124v4.032H4.452V-5.124Zm2.184-2.1H2.3V2.184H4.452V.98h5.46ZM2.324-9.072H9.8v-2.016H2.324ZM9.8-14.9H2.324v2.016H9.8Zm-8.68-1.82h9.436v-2.072H1.12Zm18.7,12.6V-5.824h3.248v1.708Zm-5.4-1.708h3.192v1.708H14.42ZM17.612-9.24v1.708H14.42V-9.24Zm5.46,0v1.708H19.824V-9.24Zm-6.16-6.8H20.8v1.54H16.912Zm0-3.36H20.8v1.484H16.912ZM26.964-4.116H25.48v-7H19.824V-12.46h7.084V-14.5H23.156v-1.54H25.9V-17.92H23.156V-19.4h3.3v-1.9h-3.3v-2.184H20.8v2.184H16.912v-2.184H14.56v2.184H11.424v1.9H14.56v1.484h-2.6v1.876h2.6v1.54H10.668v2.044h6.944v1.344h-5.4v7H10.64v2.072h1.568V2.212H14.42V-2.044h8.652V-.28c0,.336-.084.448-.448.476-.364,0-1.6,0-2.8-.056a8.127,8.127,0,0,1,.616,2.044,12.02,12.02,0,0,0,3.948-.336c.868-.336,1.092-.924,1.092-2.1V-2.044h1.484Zm9.8-2.772v4.144H32.62V-6.888Zm-.252-6.692H32.62v-3.556h3.892ZM32.62-11.368h6.216v-7.98H34.944c.532-1.148,1.064-2.548,1.54-3.836l-2.856-.336a31.031,31.031,0,0,1-1.008,4.172H30.3V1.316H32.62V-.532h6.468v-8.6H32.62ZM54.684-19.74v-2.38h-14.9v2.38h6.188v3.024H40.768v14.7h2.38V-14.392h2.828V2.156h2.436V-14.392h3.08v9.828c0,.28-.084.364-.364.364-.252.028-1.036.028-1.9,0A8.231,8.231,0,0,1,49.9-1.96a7.273,7.273,0,0,0,3.136-.392c.7-.392.868-1.092.868-2.184v-12.18H48.412V-19.74ZM68.824-3.5c0-1.2,1.316-2.016,3.192-2.016a9.024,9.024,0,0,1,2.6.392v.756c0,1.764-.644,2.828-2.716,2.828C70.112-1.54,68.824-2.184,68.824-3.5Zm8.4-18.228H74.06a13.777,13.777,0,0,1,.168,1.792v3.3c-.784.028-1.54.056-2.324.056a45.586,45.586,0,0,1-4.844-.252l.028,2.632c1.624.112,3.164.2,4.788.2.784,0,1.568-.028,2.352-.056.056,2.184.168,4.592.28,6.552a14.9,14.9,0,0,0-2.268-.168c-3.752,0-5.964,1.9-5.964,4.48,0,2.688,2.212,4.256,5.992,4.256,3.892,0,5.124-2.212,5.124-4.788v-.14A26.622,26.622,0,0,1,81.284-.756L82.8-3.108A18.473,18.473,0,0,0,77.28-6.72C77.2-8.876,77-11.4,76.972-14.2c1.624-.112,3.192-.308,4.648-.532v-2.716a43.309,43.309,0,0,1-4.648.644c.028-1.288.056-2.492.084-3.192C77.084-20.552,77.14-21.168,77.224-21.728Zm-13.748.252-3.052-.28c-.028.728-.14,1.624-.224,2.324A85.913,85.913,0,0,0,58.968-7.7,32.772,32.772,0,0,0,60.06,1.2l2.492-.2C62.524.672,62.5.252,62.468-.028a7.228,7.228,0,0,1,.14-1.288c.308-1.428,1.26-4.284,2.016-6.412l-1.4-1.092c-.448,1.036-1.064,2.436-1.456,3.584a18.215,18.215,0,0,1-.224-3A74.022,74.022,0,0,1,62.916-19.32C63.028-19.824,63.308-20.972,63.476-21.476ZM88.788-15.82v-2.772h18.284v2.772H99.2v-1.988H96.572v1.988ZM110.264-4.872V-7.14H98.84a14.9,14.9,0,0,0,.336-2.24h7.952v-2.156H99.2v-2.128h8.372v-1.624h2.156v-5.6H99.316v-2.576H96.628v2.576H86.24v5.6h2.38v1.624h7.952v2.128h-7.5V-9.38h7.476a10.515,10.515,0,0,1-.42,2.24H85.9v2.268H94.92C93.436-2.968,90.664-1.2,85.512.112a10.3,10.3,0,0,1,1.6,2.072C93.268.42,96.348-2.016,97.86-4.7c2.156,3.864,5.712,6.048,11.172,6.972A9.343,9.343,0,0,1,110.6,0c-4.7-.616-8.092-2.212-10.052-4.872Zm15.652-12.684v-5.88h-2.744v5.88h-8.82v2.66h8.68c-.42,5.04-2.24,10.976-9.52,15.148a11.008,11.008,0,0,1,2.016,2.1c7.952-4.7,9.856-11.48,10.276-17.248h8.764C134.092-5.74,133.5-1.9,132.552-1.008a1.571,1.571,0,0,1-1.288.42c-.7,0-2.408,0-4.256-.168a6.561,6.561,0,0,1,.924,2.688,33.349,33.349,0,0,0,4.452,0A3.406,3.406,0,0,0,134.96.644c1.232-1.428,1.764-5.572,2.38-16.912.028-.364.056-1.288.056-1.288Zm22.932-2.968a18.654,18.654,0,0,0-4.928-2.8l-1.428,1.9a20.291,20.291,0,0,1,4.844,3.052Zm-1.4,7.28a21.582,21.582,0,0,0-4.956-2.632l-1.428,1.96a20.709,20.709,0,0,1,4.872,2.856Zm-1.12,4.536a87.345,87.345,0,0,1-4.7,9.016l2.324,1.54c1.456-2.632,3.108-6.02,4.4-8.988Zm18.928-3.752a30.3,30.3,0,0,1-3.3,3.22,39.521,39.521,0,0,1-.728-4.312,39.81,39.81,0,0,0,4.984-1.68l-2.044-2.016a51.451,51.451,0,0,1-11.284,3.3v-3.948a71.231,71.231,0,0,0,12.712-3.584L163.38-23.52a54.46,54.46,0,0,1-10.752,3.36l-2.24-.644v7.588c0,4.172-.308,9.8-3.248,13.944a6.519,6.519,0,0,1,2.016,1.652c3.276-4.592,3.724-11.144,3.724-15.568v-.5a8.655,8.655,0,0,1,.7,1.82l1.4-.252V2.156h2.464V-12.628c.56-.112,1.092-.252,1.652-.392.84,6.8,2.408,12.32,6.16,15.288a10.165,10.165,0,0,1,1.792-2.24C164.892-1.456,163.464-4,162.512-7.14c1.344-.9,3-2.212,4.508-3.388Zm9.016-8.68.14,2.856c.728-.084,1.6-.168,2.324-.224,1.176-.112,5.432-.308,6.636-.392a104.935,104.935,0,0,1-8.652,7.056c-1.428.168-3.36.392-4.872.56l.252,2.66c3.136-.532,6.608-.952,9.38-1.2A6.674,6.674,0,0,0,176.792-4.9c0,4.452,3.892,6.608,10.892,6.3l.588-2.884a22.918,22.918,0,0,1-4.116-.056c-2.548-.336-4.592-1.26-4.592-3.808,0-2.492,2.464-4.592,5.1-4.956a44.693,44.693,0,0,1,7.168-.112l-.028-2.6c-3.752,0-8.624.336-12.656.756,2.1-1.652,5.6-4.564,7.644-6.244.476-.364,1.316-.952,1.792-1.26l-1.764-2.016a10.078,10.078,0,0,1-1.708.308c-1.652.168-7.2.42-8.4.42C175.812-21.056,175.056-21.084,174.272-21.14Zm14.28,3.164-1.68.728a22.725,22.725,0,0,1,1.96,3.5l1.764-.784A31.052,31.052,0,0,0,188.552-17.976Zm3.024-1.176-1.68.756a21.2,21.2,0,0,1,2.072,3.444l1.736-.812A24.96,24.96,0,0,0,191.576-19.152Zm10.752-1.6.056,2.912c.588-.084,1.456-.168,2.128-.2,1.372-.084,6.02-.308,7.644-.364-2.3,2.352-9.492,8.316-13.412,11.34l2.1,2.184c3.3-3.192,6.048-5.8,10.668-5.8,3.444,0,5.628,1.764,5.628,4.228,0,3.948-4.872,5.824-12.628,4.872l.756,2.856c9.772.784,14.84-2.268,14.84-7.7,0-3.864-3.248-6.58-8.008-6.58a10.829,10.829,0,0,0-3.416.56c2.352-1.876,5.432-4.368,7.308-5.852a14.656,14.656,0,0,1,1.372-.868L215.8-21.168a8.927,8.927,0,0,1-1.764.28c-1.792.112-8.12.252-9.632.252A18.686,18.686,0,0,1,202.328-20.748Zm28.364,1.008-3.416-.056a14.325,14.325,0,0,1,.224,2.632c0,1.68.028,5.04.308,7.5C228.564-2.3,231.168.392,234,.392c2.044,0,3.78-1.652,5.544-6.44l-2.212-2.6c-.644,2.548-1.876,5.6-3.276,5.6-1.876,0-3.024-2.968-3.444-7.364a62.69,62.69,0,0,1-.2-6.3A22.92,22.92,0,0,1,230.692-19.74Zm14.336.7-2.772.924c2.828,3.36,4.424,9.576,4.9,14.392l2.884-1.12C249.676-9.38,247.6-15.792,245.028-19.04Z" transform="translate(-477.12 1731.57)"/>
  </g>
</svg>
