<svg xmlns="http://www.w3.org/2000/svg" width="852" height="132" viewBox="0 0 852 132">
  <g id="グループ_68" data-name="グループ 68" transform="translate(660 -1810)">
    <g id="長方形_337" data-name="長方形 337" transform="translate(-660 1810)" fill="#fff" stroke="#333" stroke-width="1">
      <rect width="840" height="120" stroke="none"/>
      <rect x="0.5" y="0.5" width="839" height="119" fill="none"/>
    </g>
    <g id="長方形_336" data-name="長方形 336" transform="translate(-648 1822)" fill="none" stroke="#45ccc4" stroke-width="2">
      <rect width="840" height="120" stroke="none"/>
      <rect x="1" y="1" width="838" height="118" fill="none"/>
    </g>
    <rect id="長方形_338" data-name="長方形 338" width="275" height="16" transform="translate(-476 1882)" fill="#ff0"/>
    <path id="パス_75" data-name="パス 75" d="M3.116,0h16.91V-4.522H14.744V-28.158H10.6a17.543,17.543,0,0,1-6.536,2.394v3.458H9.158V-4.522H3.116Z" transform="translate(-599.116 1892.158)" fill="#fff"/>
    <g id="グループ_63" data-name="グループ 63" transform="translate(-16.5 476.132)">
      <line id="線_3" data-name="線 3" y1="13.735" x2="14.136" transform="translate(106.364 1393.132)" fill="none" stroke="#000" stroke-width="2"/>
      <line id="線_4" data-name="線 4" x2="13.278" y2="13.735" transform="translate(94.5 1393.132)" fill="none" stroke="#000" stroke-width="2"/>
    </g>
    <g id="グループ_59" data-name="グループ 59" transform="translate(224 327)">
      <g id="楕円形_32" data-name="楕円形 32" transform="translate(-842 1517)" fill="#333" stroke="#707070" stroke-width="1">
        <circle cx="32" cy="32" r="32" stroke="none"/>
        <circle cx="32" cy="32" r="31.5" fill="none"/>
      </g>
      <path id="パス_81" data-name="パス 81" d="M5.248-9.728l3.68-5.888c.672-1.28,1.312-2.592,1.888-3.872h.128c-.064,1.408-.16,3.552-.16,4.928v4.832ZM10.784,0h4.384V-6.144h2.784V-9.728H15.168V-23.712H9.5L.672-9.344v3.2H10.784Z" transform="translate(-819.672 1560.712)" fill="#fff"/>
    </g>
    <path id="パス_85" data-name="パス 85" d="M6.356-19.32H26.124v-2.492H3.724V-13.8c0,4.312-.2,10.388-2.772,14.616A10.592,10.592,0,0,1,3.276,2.184c2.688-4.508,3.08-11.368,3.08-16.016ZM17.276-1.176v-8.4h7.532V-12.04H17.276v-5.936H14.644v5.936H7.616v2.464h7.028v8.4H5.74V1.288H26.656V-1.176ZM36.428-19.824h2.6a50.278,50.278,0,0,1-1.54,5.236q-.966.042-1.764.084l.224,2.324c2.352-.2,5.348-.476,8.344-.756.168.56.336,1.092.42,1.54l2.016-.756a24.011,24.011,0,0,0-2.6-6.02l-1.848.644c.42.784.84,1.652,1.232,2.52l-3.752.252c.644-1.512,1.344-3.36,1.932-5.068h4.62v-2.128h-9.8l.252-.756-2.408-.672a32.248,32.248,0,0,1-5.768,11A24.474,24.474,0,0,1,29.9-9.632a26.8,26.8,0,0,0,2.212-3.052V2.184H34.5V-17.052a48.335,48.335,0,0,0,1.932-4.676Zm6.02,13.3h3.528V-8.792H42.448v-3.08H40.012v3.08h-3.7v2.268h3.7V-1.96c-1.68.252-3.248.476-4.508.644L35.9,1.036c3-.476,7-1.148,10.864-1.82l-.168-2.184c-1.372.224-2.772.448-4.144.644ZM49.2-19.936H46.928V-4.452H49.2Zm2.436-3.08V-.784c0,.42-.14.532-.5.532S49.56-.224,48.272-.28a10.521,10.521,0,0,1,.812,2.52,9.224,9.224,0,0,0,3.808-.5c.784-.42,1.064-1.148,1.064-2.52V-23.016ZM60.788-2.968V-9.156H66v6.188ZM66-16.744v5.32H60.788v-5.32Zm7.924-2.408c.448-1.232.812-2.52,1.148-3.808l-2.52-.588a26.739,26.739,0,0,1-4.172,9.828v-5.292H63.9c.448-1.176.98-2.66,1.456-4.06l-2.828-.476a32.826,32.826,0,0,1-.98,4.536H58.408V1.456h2.38V-.672h7.588V-13.524a13.736,13.736,0,0,1,2.044,1.456,28.161,28.161,0,0,0,2.548-4.7h6.608c-.364,10.556-.728,14.784-1.624,15.708a1.255,1.255,0,0,1-1.176.476c-.7,0-2.324-.028-4.116-.168a6.1,6.1,0,0,1,.84,2.52,30.076,30.076,0,0,0,4.228,0A3.123,3.123,0,0,0,80.164.448c1.12-1.4,1.456-5.74,1.848-18.368.028-.336.028-1.232.028-1.232ZM77.5-6.524a50.271,50.271,0,0,0-4.228-6.244L71.232-11.62A45.59,45.59,0,0,1,75.32-5.152ZM96.88-22.372,93.8-22.68a22.851,22.851,0,0,1-.812,4.788c-.98.084-1.96.112-2.884.112-1.12,0-2.464-.056-3.556-.168l.2,2.6c1.12.056,2.3.084,3.36.084.672,0,1.344-.028,2.044-.056A42.049,42.049,0,0,1,86.268-5.1l2.688,1.372a50.1,50.1,0,0,0,6.076-11.9,37.585,37.585,0,0,0,5.012-1.008l-.084-2.576a26.772,26.772,0,0,1-4.116.952C96.264-19.824,96.656-21.392,96.88-22.372Zm-1.512,19.4c0-1.148,1.26-1.988,3.108-1.988a9.749,9.749,0,0,1,2.6.364c.028.364.028.7.028.952,0,1.512-.7,2.688-2.828,2.688C96.376-.952,95.368-1.764,95.368-2.968Zm8.092-10.724h-2.744c.056,1.848.2,4.48.28,6.692a16.053,16.053,0,0,0-2.38-.2c-3.472,0-5.852,1.848-5.852,4.48C92.764.2,95.4,1.6,98.644,1.6c3.7,0,5.124-1.932,5.124-4.312V-3.5a21.852,21.852,0,0,1,4.2,3.136l1.484-2.38a18.246,18.246,0,0,0-5.8-3.528c-.084-1.6-.168-3.22-.2-4.144C103.432-11.536,103.4-12.516,103.46-13.692Zm5.264,1.064,1.6-2.324A49.566,49.566,0,0,0,103.6-18.7l-1.428,2.156A35.6,35.6,0,0,1,108.724-12.628Zm23.324,5.964v5.488h-12.04V-6.664ZM117.46,2.24h2.548V1.148h12.04V2.24h2.66V-9.016H117.46ZM119.616-14.5a29.951,29.951,0,0,0,6.3-6.384,32.051,32.051,0,0,0,6.608,6.384Zm4.844-8.932c-2.128,3.5-6.72,7.7-11.508,10.136a10.008,10.008,0,0,1,1.6,2.072,38.146,38.146,0,0,0,4.508-2.856v1.9H133v-1.988a36.472,36.472,0,0,0,4.536,2.828,11.559,11.559,0,0,1,1.708-2.324,31.054,31.054,0,0,1-12.124-9.772ZM154.9-8.036a23.345,23.345,0,0,0,4-2.8,21.072,21.072,0,0,0,4.144,2.8Zm.42,6.888V-5.824h6.916v4.676Zm-3.948-8.988c-.532-.644-2.716-3.332-3.472-4.144v-.952H150.3l-.2.168a13.643,13.643,0,0,1,2.016,1.736,24.588,24.588,0,0,0,2.464-2.6,21.447,21.447,0,0,0,2.548,3.388A22.022,22.022,0,0,1,150.248-8.6Zm10.36-8.148a17.729,17.729,0,0,1-2.884,4.144,16.756,16.756,0,0,1-2.8-3.752l.252-.392Zm1.652-2.352-.476.112h-5.32a24.754,24.754,0,0,0,1.064-2.324l-2.492-.672a20.575,20.575,0,0,1-4.844,7.392V-17.64H147.9v-5.852H145.46v5.852h-3.948v2.408h3.7a29.571,29.571,0,0,1-4.34,10.052,10.9,10.9,0,0,1,1.26,2.324,27.209,27.209,0,0,0,3.332-7.056v12.1H147.9V-11.34c.672,1.008,1.4,2.128,1.82,2.912l-.168.056a9.565,9.565,0,0,1,1.484,2.1c.644-.224,1.26-.476,1.876-.756v9.24h2.408V1.12h6.916V2.128h2.52v-9.38c.308.14.616.252.924.364A11.349,11.349,0,0,1,167.3-9.072a19.262,19.262,0,0,1-6.664-3.444A20.2,20.2,0,0,0,165-19.88ZM176.26-7.42c2.688-.2,6.132-.448,9.6-.728a12.056,12.056,0,0,1,.728,1.512l1.988-.98a14.04,14.04,0,0,0-1.6-2.772,32.342,32.342,0,0,1,5.6,3.668l1.932-1.624a38.907,38.907,0,0,0-6.16-3.7l-1.6,1.288c-.476-.672-1.008-1.316-1.484-1.9l-1.876.812c.448.56.924,1.2,1.344,1.848l-3.948.2c1.9-1.82,3.92-4.032,5.572-5.964l-2.072-.952a42.081,42.081,0,0,1-2.744,3.472c-.532-.42-1.176-.9-1.82-1.344.84-.98,1.848-2.212,2.716-3.36l-.588-.224h11.788v-2.38H183.26v-2.94h-2.688v2.94H170.464v2.38h9.408c-.476.812-1.092,1.764-1.68,2.576-.28-.168-.5-.308-.756-.448l-1.26,1.456a39.068,39.068,0,0,1,3.948,2.94c-.672.7-1.344,1.372-1.96,1.96L176.4-9.6l.476-.224-.476-1.96c-2.576,1.064-5.236,2.128-7,2.716l1.26,2.128c1.54-.7,3.416-1.568,5.236-2.436Zm-5.936-8.428a26.985,26.985,0,0,1,4.284,3.108l1.82-1.568a23.053,23.053,0,0,0-4.4-2.94Zm18.7,2.828a32.828,32.828,0,0,0,4.48-3.416l-2.324-1.148a27.829,27.829,0,0,1-4.06,3.528ZM183.26-7.532h-2.688v2.016H169.6v2.408h10.976V2.24h2.688V-3.108h11.2V-5.516h-11.2Zm38.388-2.3c0-5.852-4.256-10.556-10.976-10.556-7.028,0-12.516,5.376-12.516,11.648,0,4.676,2.548,7.756,5.32,7.756s5.1-3.164,6.776-8.876a55.757,55.757,0,0,0,1.68-7.868,7.445,7.445,0,0,1,6.776,7.812c0,4.508-3.192,7.14-6.776,7.952a17.306,17.306,0,0,1-2.492.392l1.652,2.632C217.9.084,221.648-3.948,221.648-9.828Zm-20.664.812a9.36,9.36,0,0,1,7.98-8.652,44.578,44.578,0,0,1-1.54,7.224c-1.288,4.312-2.6,6.132-3.864,6.132C202.356-4.312,200.984-5.8,200.984-9.016Zm39.984,6.944h-5.992v-2.38h5.992Zm8.148-7.952H227.08V2.212h2.548V-7.84h16.884V-.756c0,.364-.14.476-.588.476a23.106,23.106,0,0,1-2.632.028V-6.3H232.708V1.092h2.268V-.252h7.476a9.4,9.4,0,0,1,.812,2.408,13.957,13.957,0,0,0,4.62-.42c.952-.42,1.232-1.148,1.232-2.464Zm-6.216-3.3h-9.912V-15.6H242.9Zm-12.432-4.06v5.852h15.064v-5.852ZM239.176-21v-2.52h-2.66V-21H225.9v2.268h24.164V-21Zm27.272,1.148c.2.56.448,1.288.728,2.156a57.771,57.771,0,0,1-10.948-.364l.056,2.828a73.628,73.628,0,0,0,11.872.084,38.53,38.53,0,0,0,3.052,5.824c-.952-.112-2.94-.28-4.424-.392l-.2,2.324a67.146,67.146,0,0,1,7.056.84l1.4-2.016A13.262,13.262,0,0,1,273.7-10.22a31.2,31.2,0,0,1-2.884-5.208,48.258,48.258,0,0,0,5.46-1.092l-.336-2.8a34.6,34.6,0,0,1-6.048,1.344,30.45,30.45,0,0,1-1.2-4.62l-3.024.364C265.972-21.392,266.252-20.468,266.448-19.852Zm-5.32,10.976-2.772-.616a10.991,10.991,0,0,0-1.4,4.9c0,3.892,3.472,5.936,8.96,5.964A38.243,38.243,0,0,0,273.28.756l.14-2.8a35.407,35.407,0,0,1-7.336.672c-4.032-.028-6.3-1.12-6.3-3.64A7.086,7.086,0,0,1,261.128-8.876Z" transform="translate(-476.952 1888.918)"/>
  </g>
</svg>
