<svg xmlns="http://www.w3.org/2000/svg" width="792" height="208" viewBox="0 0 792 208">
  <g id="グループ_16" data-name="グループ 16" transform="translate(613 -3699)">
    <rect id="長方形_320" data-name="長方形 320" width="780" height="160" transform="translate(-601 3747)" fill="#45ccc4"/>
    <g id="長方形_321" data-name="長方形 321" transform="translate(-613 3735)" fill="none" stroke="#333" stroke-width="1">
      <rect width="780" height="160" stroke="none"/>
      <rect x="0.5" y="0.5" width="779" height="159" fill="none"/>
    </g>
    <g id="楕円形_24" data-name="楕円形 24" transform="translate(-259 3699)" fill="#333" stroke="#333" stroke-width="1">
      <circle cx="36" cy="36" r="36" stroke="none"/>
      <circle cx="36" cy="36" r="35.5" fill="none"/>
    </g>
    <path id="パス_40" data-name="パス 40" d="M10.488.532a9.5,9.5,0,0,0,9.842-9.88c0-6.118-3.952-8.93-8.664-8.93a7.386,7.386,0,0,0-3.382.8l.532-5.966H19.038v-4.712H3.99l-.76,13.68,2.546,1.672a6.728,6.728,0,0,1,4.218-1.482c2.85,0,4.75,1.824,4.75,5.092,0,3.306-2.052,5.168-4.978,5.168a8.741,8.741,0,0,1-6.194-2.85L.988-3.306A12.816,12.816,0,0,0,10.488.532Z" transform="translate(-233.988 3749.158)" fill="#fff"/>
    <path id="パス_47" data-name="パス 47" d="M9.66-22.456H2.52v1.68H9.66ZM8.092-5.544V-.868h-4V-5.544ZM9.884-7.252H2.324V2.1H4.088V.84h5.8ZM2.38-9.408H9.772V-11.06H2.38Zm7.392-5.46H2.38v1.652H9.772Zm-8.6-2.156H10.5v-1.708H1.176ZM19.6-3.948V-5.964h3.808v2.016ZM14.168-5.964h3.668v2.016H14.168Zm3.668-3.5V-7.42H14.168V-9.464Zm5.572,0V-7.42H19.6V-9.464ZM16.66-16.156h4.424v1.876H16.66Zm0-3.3h4.424V-17.7H16.66ZM26.88-3.948H25.34v-7.084H19.6v-1.6h7.252V-14.28H22.96v-1.876h2.912V-17.7H22.96V-19.46h3.472v-1.6H22.96v-2.352H21.084v2.352H16.66v-2.352h-1.9v2.352h-3.3v1.6h3.3V-17.7H12.012v1.54h2.744v1.876H10.7v1.652h7.14v1.6H12.348v7.084h-1.68v1.68h1.68v4.4h1.82v-4.4h9.24v2.3c0,.336-.084.42-.476.42-.336.028-1.6.028-2.94,0a7.32,7.32,0,0,1,.532,1.68A12.747,12.747,0,0,0,24.36,1.82c.756-.28.98-.784.98-1.764V-2.268h1.54ZM42.616-12.18c2.128-.784,4.844-1.792,7.42-2.772l-.308-1.54c-2.912,1.036-5.852,2.072-7.868,2.716ZM48.1-17.5a15.442,15.442,0,0,0-3.752-2.548l-1.092,1.26a13.364,13.364,0,0,1,3.7,2.66Zm-9.3,4.676c0,.308-.084.42-.42.42-.336.028-1.456.028-2.688,0a7.716,7.716,0,0,1,.532,1.54,11.958,11.958,0,0,0,3.612-.252c.672-.28.9-.756.9-1.68v-9.212H30.128V-20.3h8.68Zm-7.5-5.992a14.379,14.379,0,0,1,3.64,2.744l1.12-1.344A15.456,15.456,0,0,0,32.4-20.048ZM36.96-15.96c-2.772,1.092-5.6,2.128-7.5,2.716l.812,1.708c2.016-.784,4.536-1.82,7-2.884ZM48.888-5.012H35.308V-7.728h13.58ZM35.308-.532V-3.36h13.58V-.532Zm5.6-11.452a24.087,24.087,0,0,1-1.092,2.632H33.264V2.212h2.044V1.12h13.58V2.212h2.1V-9.352H41.86c.392-.672.812-1.456,1.2-2.212ZM53.2-22.008H42.5V-20.3H51.24v7.5c0,.336-.112.42-.448.448-.392,0-1.6,0-2.912-.056a6.144,6.144,0,0,1,.588,1.652,12.785,12.785,0,0,0,3.78-.28c.728-.308.952-.784.952-1.764Zm9.688-1.4a22.383,22.383,0,0,1-5.88,5.824,12.165,12.165,0,0,1,1.176,1.512,29.717,29.717,0,0,0,6.608-6.636Zm.672,5.656A26.576,26.576,0,0,1,56.7-10a13.323,13.323,0,0,1,1.176,1.82,28.453,28.453,0,0,0,3.164-3V2.212h1.932V-13.44a32.009,32.009,0,0,0,2.436-3.668ZM70.392-7.364h7.056a13.513,13.513,0,0,1-3.64,3.836A14.22,14.22,0,0,1,70.252-7.2ZM78.9-9.1l-.336.112h-6.72a17.264,17.264,0,0,0,1.568-2.268l6.748-.252A17.962,17.962,0,0,1,81.4-9.464l1.736-1.008a31.624,31.624,0,0,0-4.62-6.048l-1.624.868A30.55,30.55,0,0,1,78.96-13.16c-2.548.056-5.124.112-7.5.168a95.041,95.041,0,0,0,7.644-7.28l-1.848-1.036A53.417,53.417,0,0,1,72.24-15.96a22.685,22.685,0,0,0-2.492-2.156c1.26-1.232,2.716-2.884,3.948-4.368l-1.82-.952a34.581,34.581,0,0,1-3.528,4.312c-.56-.42-1.12-.784-1.652-1.12l-1.26,1.316a35.584,35.584,0,0,1,5.32,4.312c-.644.616-1.316,1.148-1.932,1.68l-4.312.056.168,1.9c1.82-.056,4.06-.112,6.468-.2A20.729,20.729,0,0,1,64.176-5.04a7.88,7.88,0,0,1,1.4,1.512A25,25,0,0,0,68.964-6.02a17.487,17.487,0,0,0,3.22,3.528A26.93,26.93,0,0,1,64.092.448a5.935,5.935,0,0,1,1.064,1.764,27.934,27.934,0,0,0,8.68-3.472,23.563,23.563,0,0,0,8.036,3.416A8.6,8.6,0,0,1,83.132.42a24.44,24.44,0,0,1-7.644-2.856,15.427,15.427,0,0,0,4.76-5.992ZM96.4-22.008l-2.52-.168a9.605,9.605,0,0,1-.028,1.988c-.056.812-.168,1.82-.308,2.94a27.763,27.763,0,0,1-6.132-1.036L87.3-16.24a38.617,38.617,0,0,0,6.02.98c-.224,1.652-.448,3.416-.616,5.068a24.988,24.988,0,0,1-5.964-1.148l-.112,2.156a27.673,27.673,0,0,0,5.852,1.008c-.14,1.316-.224,2.436-.224,3.22,0,4.592,3.052,6.244,6.86,6.244,5.544,0,9.24-2.52,9.24-6.692,0-2.408-.924-4.34-2.856-6.468l-2.464.5a7.767,7.767,0,0,1,3.052,5.712c0,2.884-2.716,4.76-6.972,4.76-3.192,0-4.7-1.68-4.7-4.4,0-.672.056-1.652.168-2.772h1.008a50.718,50.718,0,0,0,5.488-.28l.056-2.128a41.179,41.179,0,0,1-5.824.364H94.78c.2-1.652.42-3.416.616-5.068h.2c2.268,0,3.892-.084,5.684-.252l.056-2.1a37.757,37.757,0,0,1-5.684.364c.168-1.176.308-2.156.392-2.884A15.627,15.627,0,0,1,96.4-22.008Zm41.776,2.716v-2.016H113.82v2.016h7.532c-.168,7.14-.56,15.764-8.316,19.88a5.946,5.946,0,0,1,1.512,1.624c5.516-3.08,7.588-8.288,8.4-13.776H133.42c-.392,7.392-.868,10.472-1.708,11.228A1.69,1.69,0,0,1,130.4.028,46.848,46.848,0,0,1,125.524-.2a4.21,4.21,0,0,1,.728,2.044,39,39,0,0,0,4.928.112A3.178,3.178,0,0,0,133.56.952c1.092-1.176,1.54-4.508,2.044-13.524.028-.28.028-1.008.028-1.008H123.2c.2-1.932.28-3.864.336-5.712Zm14.56-4.172A33.4,33.4,0,0,1,141.148-12.8a8.536,8.536,0,0,1,1.288,1.652A37.366,37.366,0,0,0,153.888-21.42c2.52,3.528,7.42,7.644,11.7,10.136a9.289,9.289,0,0,1,1.372-1.848,35.568,35.568,0,0,1-12.152-10.332ZM154.98-5.1h8.484V-6.944H154.98v-4.368h7.42v-1.876H145.768v1.876h7.084v4.368h-8.344V-5.1h8.344V-.532H142.24v1.9H165.9v-1.9H154.98Zm38.444-4.7c0-5.684-4.172-10.3-10.724-10.3-6.832,0-12.236,5.32-12.236,11.4,0,4.62,2.492,7.476,4.984,7.476,2.6,0,4.816-2.94,6.524-8.708A55.082,55.082,0,0,0,183.652-18a7.8,7.8,0,0,1,7.476,8.12c0,4.844-3.528,7.5-7.112,8.316a21.151,21.151,0,0,1-2.408.364L182.924.868C189.56,0,193.424-3.92,193.424-9.8Zm-20.776.9c0-3.808,3.3-8.4,8.68-9.072a45.747,45.747,0,0,1-1.568,7.56c-1.428,4.732-2.912,6.608-4.228,6.608C174.272-3.808,172.648-5.376,172.648-8.9Zm47.46-9.716L218.4-19.712a5.749,5.749,0,0,1-1.484.14H202.86c-.924,0-2.016-.084-2.8-.168v2.464c.728-.028,1.68-.084,2.8-.084h14.308A21.3,21.3,0,0,1,213.5-8.232c-2.352,3-5.488,5.376-10.92,6.748l1.9,2.1a21.4,21.4,0,0,0,11.032-7.5c2.212-2.884,3.584-7.392,4.172-10.332A5.9,5.9,0,0,1,220.108-18.62Zm22.12,1.484h-2.38a11.881,11.881,0,0,1,.2,1.9c.028.532.056,1.316.084,2.268H231.7a16.823,16.823,0,0,1-2.072-.112v2.24c.672-.056,1.372-.112,2.128-.112h7.476a28.809,28.809,0,0,1-10.36,8.568L230.44-.644a31.409,31.409,0,0,0,9.744-8.26c.056,2.968.084,6.1.084,7.868a.709.709,0,0,1-.756.812A26.533,26.533,0,0,1,236.1-.476l.112,2.044c1.12.084,2.94.168,4.06.168a1.886,1.886,0,0,0,2.1-1.932c-.028-2.632-.112-7.224-.168-10.752h4.06c.532,0,1.344.056,1.82.084v-2.212a17.8,17.8,0,0,1-1.876.112h-4.032c-.028-.952-.056-1.736-.056-2.268A14.2,14.2,0,0,1,242.228-17.136Zm13.86-2.044c.056.672.056,1.54.056,2.184V-3.22c0,.98-.056,3.052-.084,3.416h2.408c-.028-.224-.028-.9-.056-1.624H273.7c0,.756-.028,1.428-.028,1.624h2.408c-.028-.308-.056-2.492-.056-3.388V-17c0-.7,0-1.484.056-2.184-.84.056-1.848.056-2.464.056H258.58C257.936-19.124,257.18-19.152,256.088-19.18Zm2.324,2.268h15.316v13.3H258.412Zm24.444,4.788V-9.38c.868-.084,2.352-.14,3.892-.14H302.12c1.26,0,2.436.112,3,.14v-2.744c-.616.056-1.624.14-3.024.14H286.748C285.18-11.984,283.7-12.068,282.856-12.124Z" transform="translate(-364.176 3837.464)"/>
  </g>
</svg>
