<svg xmlns="http://www.w3.org/2000/svg" width="852" height="132" viewBox="0 0 852 132">
  <g id="グループ_65" data-name="グループ 65" transform="translate(666 -1334)">
    <g id="長方形_10" data-name="長方形 10" transform="translate(-666 1334)" fill="#fff" stroke="#333" stroke-width="1">
      <rect width="840" height="120" stroke="none"/>
      <rect x="0.5" y="0.5" width="839" height="119" fill="none"/>
    </g>
    <rect id="長方形_82" data-name="長方形 82" width="251" height="16" transform="translate(-482 1406)" fill="#ff0"/>
    <path id="パス_27" data-name="パス 27" d="M3.116,0h16.91V-4.522H14.744V-28.158H10.6a17.543,17.543,0,0,1-6.536,2.394v3.458H9.158V-4.522H3.116Z" transform="translate(-605.116 1416.158)" fill="#fff"/>
    <path id="パス_70" data-name="パス 70" d="M21.28-18.144H17.752v-1.624H21.28Zm0,3.36H17.752v-1.652H21.28ZM6.412-16.436h3.3v1.652h-3.3Zm0-3.332h3.3v1.624h-3.3Zm9.1,3.332v1.652H11.956v-1.652Zm0-3.332v1.624H11.956v-1.624Zm8.26-1.792h-6.02v-1.96h-2.24v1.96H11.956v-1.96H9.716v1.96H3.976v8.568h19.8Zm2.3,9.772H1.988v1.9h24.08ZM17.92-3.08A18.385,18.385,0,0,1,16.464-.532l.532.2H10.64l.7-.252A12.022,12.022,0,0,0,10.024-3.08ZM7.644-6.888H20.216v2.044H7.644ZM18.928-.336c.476-.7,1.008-1.54,1.484-2.408L19.46-3.08H22.9V-8.652H5.1V-3.08h3.7l-1.2.364A14.723,14.723,0,0,1,8.82-.336h-7.2V1.68H26.432V-.336Zm21.7-5.628v1.82H34.776v-1.82Zm8.652,1.82h-6.1v-1.82h6.1Zm-6.1,3.612v-1.9h6.1v1.9Zm-8.4-1.9h5.852v1.9H34.776Zm-2.464,4.62h2.464V1.428h14.5V2.1h2.576v-10H32.312ZM36.54-12.992H47.488V-11H36.54ZM34.16-9.24H50.008v-5.516H34.16Zm.084-8.736v1.848h15.54v-1.848Zm9.016-3.78v-1.736H40.6v1.736H30.324v5.6h2.464v-3.388H51.212v3.388h2.576v-5.6Zm25.62-.616L65.8-22.68a22.851,22.851,0,0,1-.812,4.788c-.98.084-1.96.112-2.884.112-1.12,0-2.464-.056-3.556-.168l.2,2.6c1.12.056,2.3.084,3.36.084.672,0,1.344-.028,2.044-.056A42.049,42.049,0,0,1,58.268-5.1l2.688,1.372a50.1,50.1,0,0,0,6.076-11.9,37.585,37.585,0,0,0,5.012-1.008l-.084-2.576a26.772,26.772,0,0,1-4.116.952C68.264-19.824,68.656-21.392,68.88-22.372Zm-1.512,19.4c0-1.148,1.26-1.988,3.108-1.988a9.749,9.749,0,0,1,2.6.364c.028.364.028.7.028.952,0,1.512-.7,2.688-2.828,2.688C68.376-.952,67.368-1.764,67.368-2.968ZM75.46-13.692H72.716c.056,1.848.2,4.48.28,6.692a16.053,16.053,0,0,0-2.38-.2c-3.472,0-5.852,1.848-5.852,4.48C64.764.2,67.4,1.6,70.644,1.6c3.7,0,5.124-1.932,5.124-4.312V-3.5a21.852,21.852,0,0,1,4.2,3.136l1.484-2.38a18.246,18.246,0,0,0-5.8-3.528c-.084-1.6-.168-3.22-.2-4.144C75.432-11.536,75.4-12.516,75.46-13.692Zm5.264,1.064,1.6-2.324A49.566,49.566,0,0,0,75.6-18.7l-1.428,2.156A35.6,35.6,0,0,1,80.724-12.628ZM98.5-22.2H95.228a17.808,17.808,0,0,1,.2,2.408q0,1.428-.084,2.688H90.832c-1.092,0-2.352-.084-3.416-.168v2.912c1.064-.084,2.38-.112,3.416-.112h4.256c-.7,5.068-2.408,8.456-5.124,11a14.942,14.942,0,0,1-3.22,2.352L89.32.98c4.816-3.388,7.588-7.672,8.624-15.456h7.168c0,3.024-.364,9.352-1.316,11.312a1.48,1.48,0,0,1-1.6.952,32.057,32.057,0,0,1-4.06-.336l.336,2.94c1.428.112,3.052.2,4.564.2a3.122,3.122,0,0,0,3.248-1.9c1.232-2.744,1.6-10.752,1.68-13.58.028-.336.112-.952.2-1.428l-1.96-.952a12.731,12.731,0,0,1-1.932.168H98.224c.056-.868.112-1.792.14-2.744C98.392-20.524,98.448-21.56,98.5-22.2Zm35.56.756h-3.332a21.647,21.647,0,0,1,.168,2.576v4.816c0,4.9-.364,7.084-2.324,9.324a13.06,13.06,0,0,1-6.72,3.64l2.324,2.436a15.292,15.292,0,0,0,6.692-4.088c2.072-2.352,3.08-4.732,3.08-11.144v-4.984C133.952-19.88,134.008-20.72,134.064-21.448Zm-12.992.224h-3.22a18.085,18.085,0,0,1,.112,2.072v9.38c0,.812-.084,1.792-.112,2.268h3.22c-.056-.56-.112-1.54-.112-2.268v-9.38C120.96-19.936,121.016-20.636,121.072-21.224ZM150.64-19.88c.084.392.28,1.4.56,2.8-2.548.392-4.872.728-5.908.84-.868.084-1.652.14-2.436.2l.588,3.08c.9-.224,1.568-.364,2.408-.5.98-.168,3.3-.56,5.88-.98.308,1.624.644,3.416.98,5.152-3.024.476-5.88.924-7.252,1.12-.784.112-1.96.252-2.66.28l.644,3c.616-.168,1.456-.336,2.6-.532,1.316-.252,4.144-.728,7.2-1.232.476,2.6.9,4.7,1.008,5.4.168.84.252,1.736.392,2.744L157.864.9c-.28-.84-.532-1.82-.728-2.632-.168-.756-.56-2.856-1.064-5.376,2.6-.42,5.068-.812,6.524-1.036,1.064-.168,2.072-.364,2.716-.42l-.588-2.94c-.644.2-1.568.392-2.632.616-1.344.252-3.836.672-6.552,1.12-.336-1.736-.672-3.528-.98-5.124,2.52-.392,4.872-.756,6.1-.952.784-.112,1.736-.252,2.24-.308l-.532-2.94c-.56.168-1.428.364-2.3.532-1.092.224-3.472.616-6.02,1.036-.28-1.456-.476-2.52-.532-2.856-.14-.616-.224-1.484-.308-2.016l-3.136.5A15.949,15.949,0,0,1,150.64-19.88Zm38.248,6.552-2.128-1.036a5.673,5.673,0,0,1-1.68.224h-7.952a24.225,24.225,0,0,1-2.464-.14v2.912c.756-.028,1.652-.084,2.492-.084h8.316c-.084,1.568-.812,6.384-1.2,8.764H174.58a22.749,22.749,0,0,1-2.52-.14V.056c.952-.028,1.6-.056,2.52-.056h15.092c.672,0,1.848.028,2.38.056V-2.8c-.644.056-1.792.112-2.436.112h-2.352c.392-2.6,1.176-7.84,1.4-9.632C188.72-12.6,188.8-13.02,188.888-13.328Zm13.5-7.784v2.884c.784-.056,1.792-.084,2.688-.084h10.864c.952,0,2.072.028,2.772.084v-2.884a26.75,26.75,0,0,1-2.744.14H205.072A25.614,25.614,0,0,1,202.384-21.112Zm18.536,7.7-1.988-1.232a5.556,5.556,0,0,1-1.792.252H202.8c-.812,0-1.876-.084-2.968-.2v2.912c1.064-.084,2.3-.112,2.968-.112h14.252a13.2,13.2,0,0,1-3.108,5.6,18.838,18.838,0,0,1-9.8,5.04l2.184,2.52a20.69,20.69,0,0,0,10.024-5.964,19.811,19.811,0,0,0,4.116-7.84A4.918,4.918,0,0,1,220.92-13.412Zm17.248-7.56-3.5-.728a17.674,17.674,0,0,1-.616,2.912c-.784,2.828-3.444,11.2-5.012,15.2-.42.028-.812.028-1.148.056-.84.056-1.932.056-2.8.056l.5,3.248c.84-.112,1.764-.252,2.464-.336,3.64-.336,12.6-1.316,17.052-1.848.588,1.288,1.092,2.52,1.456,3.5l2.968-1.344a82.065,82.065,0,0,0-6.16-11.508l-2.716,1.176a37.694,37.694,0,0,1,3.192,5.46c-3,.392-7.728.924-11.536,1.26,1.4-3.7,3.948-11.62,4.788-14.28C237.524-19.376,237.86-20.216,238.168-20.972Z" transform="translate(-482 1411)"/>
    <g id="グループ_50" data-name="グループ 50" transform="translate(21 127)">
      <g id="楕円形_25" data-name="楕円形 25" transform="translate(-639 1241)" fill="#333" stroke="#707070" stroke-width="1">
        <circle cx="32" cy="32" r="32" stroke="none"/>
        <circle cx="32" cy="32" r="31.5" fill="none"/>
      </g>
      <path id="パス_69" data-name="パス 69" d="M2.624,0h14.24V-3.808H12.416v-19.9H8.928a14.773,14.773,0,0,1-5.5,2.016v2.912H7.712V-3.808H2.624Z" transform="translate(-616.624 1284.712)" fill="#fff"/>
    </g>
    <g id="グループ_56" data-name="グループ 56" transform="translate(-16.5 0.079)">
      <line id="線_3" data-name="線 3" y1="13.735" x2="14.136" transform="translate(106.364 1393.132)" fill="none" stroke="#000" stroke-width="2"/>
      <line id="線_4" data-name="線 4" x2="13.278" y2="13.735" transform="translate(94.5 1393.132)" fill="none" stroke="#000" stroke-width="2"/>
    </g>
    <g id="長方形_329" data-name="長方形 329" transform="translate(-654 1346)" fill="none" stroke="#45ccc4" stroke-width="2">
      <rect width="840" height="120" stroke="none"/>
      <rect x="1" y="1" width="838" height="118" fill="none"/>
    </g>
  </g>
</svg>
