<svg xmlns="http://www.w3.org/2000/svg" width="852" height="132" viewBox="0 0 852 132">
  <g id="グループ_69" data-name="グループ 69" transform="translate(660 -1965)">
    <g id="長方形_340" data-name="長方形 340" transform="translate(-660 1965)" fill="#fff" stroke="#333" stroke-width="1">
      <rect width="840" height="120" stroke="none"/>
      <rect x="0.5" y="0.5" width="839" height="119" fill="none"/>
    </g>
    <g id="長方形_339" data-name="長方形 339" transform="translate(-648 1977)" fill="none" stroke="#45ccc4" stroke-width="2">
      <rect width="840" height="120" stroke="none"/>
      <rect x="1" y="1" width="838" height="118" fill="none"/>
    </g>
    <rect id="長方形_341" data-name="長方形 341" width="304" height="16" transform="translate(-476 2037)" fill="#ff0"/>
    <path id="パス_77" data-name="パス 77" d="M3.116,0h16.91V-4.522H14.744V-28.158H10.6a17.543,17.543,0,0,1-6.536,2.394v3.458H9.158V-4.522H3.116Z" transform="translate(-599.116 2047.158)" fill="#fff"/>
    <g id="グループ_64" data-name="グループ 64" transform="translate(-16.5 631)">
      <line id="線_3" data-name="線 3" y1="13.735" x2="14.136" transform="translate(106.364 1393.132)" fill="none" stroke="#000" stroke-width="2"/>
      <line id="線_4" data-name="線 4" x2="13.278" y2="13.735" transform="translate(94.5 1393.132)" fill="none" stroke="#000" stroke-width="2"/>
    </g>
    <g id="グループ_60" data-name="グループ 60" transform="translate(139 482)">
      <g id="楕円形_31" data-name="楕円形 31" transform="translate(-757 1517)" fill="#333" stroke="#707070" stroke-width="1">
        <circle cx="32" cy="32" r="32" stroke="none"/>
        <circle cx="32" cy="32" r="31.5" fill="none"/>
      </g>
      <path id="パス_82" data-name="パス 82" d="M8.832.448a8,8,0,0,0,8.288-8.32c0-5.152-3.328-7.52-7.3-7.52a6.22,6.22,0,0,0-2.848.672l.448-5.024h8.608v-3.968H3.36l-.64,11.52,2.144,1.408a5.666,5.666,0,0,1,3.552-1.248c2.4,0,4,1.536,4,4.288A3.976,3.976,0,0,1,8.224-3.392a7.361,7.361,0,0,1-5.216-2.4L.832-2.784A10.793,10.793,0,0,0,8.832.448Z" transform="translate(-733.832 1560.712)" fill="#fff"/>
    </g>
    <path id="パス_86" data-name="パス 86" d="M9.688-22.568H2.464v2.044H9.688ZM7.728-5.124v4.032H4.452V-5.124Zm2.184-2.1H2.3V2.184H4.452V.98h5.46ZM2.324-9.072H9.8v-2.016H2.324ZM9.8-14.9H2.324v2.016H9.8Zm-8.68-1.82h9.436v-2.072H1.12Zm18.7,12.6V-5.824h3.248v1.708Zm-5.4-1.708h3.192v1.708H14.42ZM17.612-9.24v1.708H14.42V-9.24Zm5.46,0v1.708H19.824V-9.24Zm-6.16-6.8H20.8v1.54H16.912Zm0-3.36H20.8v1.484H16.912ZM26.964-4.116H25.48v-7H19.824V-12.46h7.084V-14.5H23.156v-1.54H25.9V-17.92H23.156V-19.4h3.3v-1.9h-3.3v-2.184H20.8v2.184H16.912v-2.184H14.56v2.184H11.424v1.9H14.56v1.484h-2.6v1.876h2.6v1.54H10.668v2.044h6.944v1.344h-5.4v7H10.64v2.072h1.568V2.212H14.42V-2.044h8.652V-.28c0,.336-.084.448-.448.476-.364,0-1.6,0-2.8-.056a8.127,8.127,0,0,1,.616,2.044,12.02,12.02,0,0,0,3.948-.336c.868-.336,1.092-.924,1.092-2.1V-2.044h1.484Zm15.736-7.9c2.1-.756,4.76-1.736,7.252-2.688l-.42-1.9C46.7-15.6,43.792-14.616,41.8-14Zm5.46-5.628a15.045,15.045,0,0,0-3.724-2.436l-1.288,1.512a18.217,18.217,0,0,1,3.668,2.6ZM36.708-16.016c-2.744.98-5.488,1.96-7.392,2.576l.98,2.128c1.988-.784,4.424-1.848,6.8-2.828Zm-.784-1.54a14.1,14.1,0,0,0-3.612-2.492l-1.288,1.512A15.632,15.632,0,0,1,34.58-15.9ZM48.5-5.1H35.7v-2.24H48.5ZM35.7-.812v-2.3H48.5v2.3Zm5.04-11.06a3.906,3.906,0,0,0,.14-1.12v-9.156H30.044V-20.1H38.5v7.112c0,.28-.084.392-.448.392-.336,0-1.4,0-2.52-.028a8.132,8.132,0,0,1,.672,1.9,10.678,10.678,0,0,0,3.668-.308,1.588,1.588,0,0,0,.588-.42,18.277,18.277,0,0,1-.812,2.128H33.1V2.268h2.6V1.232H48.5V2.268h2.716V-9.324H42.2c.392-.672.784-1.4,1.176-2.128ZM53.368-22.148H42.5V-20.1h8.4v7.084c0,.308-.084.392-.448.42-.364,0-1.6,0-2.772-.056a8.035,8.035,0,0,1,.7,2.044,11.731,11.731,0,0,0,3.892-.336c.84-.364,1.092-.924,1.092-2.072Zm9.268-1.344a22.015,22.015,0,0,1-5.684,5.712,14.841,14.841,0,0,1,1.4,1.876A28.954,28.954,0,0,0,64.988-22.6Zm.616,5.8a24.5,24.5,0,0,1-6.58,7.448A19.812,19.812,0,0,1,58.1-7.868a23.623,23.623,0,0,0,2.744-2.6V2.268H63.28V-13.384a32.289,32.289,0,0,0,2.268-3.5ZM70.616-7.112h6.328a12.518,12.518,0,0,1-3.22,3.332A13.884,13.884,0,0,1,70.56-7.028Zm8.176-2.072-.448.084H72.352a22.885,22.885,0,0,0,1.372-1.988c2.016-.056,4.144-.14,6.216-.224a18.653,18.653,0,0,1,1.092,1.96l2.156-1.26a28.5,28.5,0,0,0-4.424-6.048L76.72-15.568c.588.672,1.2,1.4,1.792,2.184-2.184.056-4.34.084-6.384.112a90.013,90.013,0,0,0,7.28-6.888l-2.324-1.288a55.373,55.373,0,0,1-4.76,5.152,20.994,20.994,0,0,0-2.128-1.82c1.232-1.2,2.632-2.8,3.864-4.256l-2.268-1.176a32.782,32.782,0,0,1-3.276,4.172c-.56-.392-1.12-.728-1.624-1.064l-1.568,1.68a32.769,32.769,0,0,1,5.152,4.172c-.532.476-1.092.952-1.6,1.372-1.624.028-3.08.056-4.312.056l.224,2.352c1.736-.056,3.808-.112,6.048-.168A18.8,18.8,0,0,1,64.2-5.32,10.13,10.13,0,0,1,65.94-3.388a20.982,20.982,0,0,0,2.968-2.156,17.025,17.025,0,0,0,2.8,3.052A24.707,24.707,0,0,1,64.176.084,8.234,8.234,0,0,1,65.436,2.3,27.4,27.4,0,0,0,73.752-.952a23.434,23.434,0,0,0,7.9,3.22A10.392,10.392,0,0,1,83.216.028a24.525,24.525,0,0,1-7.364-2.464,15,15,0,0,0,4.536-6.02ZM96.712-22.2l-3.136-.168a11.856,11.856,0,0,1-.028,2.212c-.056.728-.14,1.624-.28,2.632A27.246,27.246,0,0,1,87.3-18.592l-.14,2.576a35.554,35.554,0,0,0,5.824.98c-.2,1.484-.392,3.052-.588,4.536a23.681,23.681,0,0,1-5.74-1.12l-.14,2.688a30.615,30.615,0,0,0,5.6.952c-.112,1.26-.2,2.324-.2,3.052,0,4.648,3.108,6.412,7.168,6.412,5.8,0,9.548-2.744,9.548-6.944,0-2.408-.924-4.368-2.8-6.58l-3.108.644A7.679,7.679,0,0,1,105.7-5.8c0,2.632-2.464,4.452-6.552,4.452-3,0-4.48-1.484-4.48-4.032,0-.588.056-1.456.14-2.436h1.064c1.82,0,3.528-.112,5.236-.28l.084-2.632a44.716,44.716,0,0,1-5.74.336H95.06c.168-1.456.364-3.052.56-4.508h.056a53.852,53.852,0,0,0,5.628-.28l.084-2.632a37.409,37.409,0,0,1-5.432.364c.14-1.064.252-1.932.336-2.548C96.4-20.664,96.516-21.336,96.712-22.2Zm41.468,3.276v-2.548H113.848v2.548h7.084c-.224,6.972-.532,15.036-8.008,19.068a7.8,7.8,0,0,1,1.876,2.1c5.376-3.08,7.392-8.092,8.2-13.468h9.94c-.364,6.8-.784,9.744-1.6,10.444a1.586,1.586,0,0,1-1.316.336c-.756,0-2.744,0-4.732-.168a6.067,6.067,0,0,1,.9,2.548,35.539,35.539,0,0,0,4.872.028A3.455,3.455,0,0,0,133.7.812c1.092-1.2,1.568-4.564,2.044-13.356.028-.364.028-1.2.028-1.2H123.34c.168-1.736.224-3.472.28-5.18Zm7.98,5.572A33.929,33.929,0,0,0,153.888-21a36.646,36.646,0,0,0,8.064,7.644Zm9.128,8.428h8.148V-7.2h-8.148V-11.06h7v-2.072a35.071,35.071,0,0,0,3.08,1.96,15.268,15.268,0,0,1,1.708-2.3,33.133,33.133,0,0,1-11.984-10.108h-2.66A31.877,31.877,0,0,1,140.98-13.16a10.261,10.261,0,0,1,1.652,2.1,33.043,33.043,0,0,0,3.22-2.072v2.072h6.692V-7.2h-8.008v2.268h8.008v4.06H142.268V1.484H165.9V-.868H155.288Zm38.36-4.9c0-5.852-4.256-10.556-10.976-10.556-7.028,0-12.516,5.376-12.516,11.648,0,4.676,2.548,7.756,5.32,7.756s5.1-3.164,6.776-8.876a55.757,55.757,0,0,0,1.68-7.868,7.445,7.445,0,0,1,6.776,7.812c0,4.508-3.192,7.14-6.776,7.952a17.306,17.306,0,0,1-2.492.392l1.652,2.632C189.9.084,193.648-3.948,193.648-9.828Zm-20.664.812a9.36,9.36,0,0,1,7.98-8.652,44.578,44.578,0,0,1-1.54,7.224c-1.288,4.312-2.6,6.132-3.864,6.132C174.356-4.312,172.984-5.8,172.984-9.016Zm47.46-9.6-2.156-1.4a7.135,7.135,0,0,1-1.792.2h-13.58a25.111,25.111,0,0,1-3.024-.224v3.136c.7-.056,1.82-.112,3.024-.112h13.748a19.335,19.335,0,0,1-3.5,8.6c-2.3,2.94-5.46,5.32-10.948,6.664L204.624.868A21.577,21.577,0,0,0,215.768-6.72c2.268-2.968,3.556-7.42,4.172-10.276A8.508,8.508,0,0,1,220.444-18.62Zm22.064,1.372H239.6a19.059,19.059,0,0,1,.2,2.072c.028.56.056,1.232.084,2.044h-8.092a14.9,14.9,0,0,1-2.268-.168v2.772c.728-.056,1.568-.084,2.324-.084h6.86A28.266,28.266,0,0,1,228.564-2.52L230.5-.308a31.954,31.954,0,0,0,9.464-7.9c.028,2.632.056,5.264.056,6.86,0,.56-.224.868-.728.868a26.622,26.622,0,0,1-3.332-.28l.168,2.548c1.176.084,2.94.168,4.172.168A2.152,2.152,0,0,0,242.676-.2c-.028-2.744-.112-6.972-.2-10.416h3.752c.588,0,1.4.028,1.96.056V-13.3a13.67,13.67,0,0,1-2.044.168h-3.724c0-.812-.028-1.512-.028-2.044A12.513,12.513,0,0,1,242.508-17.248Zm13.328-2.24c.056.728.056,1.708.056,2.436V-3.3c0,1.12-.056,3.36-.084,3.612h3.052c-.028-.14-.028-.812-.028-1.568h14.5c-.028.784-.028,1.428-.056,1.568h3.052c0-.224-.056-2.632-.056-3.612V-17.052c0-.784,0-1.652.056-2.408-.924.028-1.932.028-2.576.028h-15.2C257.852-19.432,256.956-19.432,255.836-19.488Zm2.968,2.856h14.532V-4.06H258.8Zm23.912,4.144v3.472c.952-.084,2.632-.14,4.172-.14H302.12c1.232,0,2.52.112,3.136.14v-3.472c-.7.056-1.792.168-3.136.168H286.888C285.376-12.32,283.64-12.432,282.716-12.488Z" transform="translate(-477.12 2041.704)"/>
  </g>
</svg>
