<svg xmlns="http://www.w3.org/2000/svg" width="852" height="132" viewBox="0 0 852 132">
  <g id="グループ_66" data-name="グループ 66" transform="translate(660 -1489)">
    <g id="長方形_331" data-name="長方形 331" transform="translate(-660 1489)" fill="#fff" stroke="#333" stroke-width="1">
      <rect width="840" height="120" stroke="none"/>
      <rect x="0.5" y="0.5" width="839" height="119" fill="none"/>
    </g>
    <g id="長方形_330" data-name="長方形 330" transform="translate(-648 1501)" fill="none" stroke="#45ccc4" stroke-width="2">
      <rect width="840" height="120" stroke="none"/>
      <rect x="1" y="1" width="838" height="118" fill="none"/>
    </g>
    <rect id="長方形_332" data-name="長方形 332" width="268" height="16" transform="translate(-476 1561)" fill="#ff0"/>
    <path id="パス_71" data-name="パス 71" d="M3.116,0h16.91V-4.522H14.744V-28.158H10.6a17.543,17.543,0,0,1-6.536,2.394v3.458H9.158V-4.522H3.116Z" transform="translate(-599.116 1571.158)" fill="#fff"/>
    <g id="グループ_61" data-name="グループ 61" transform="translate(-16.5 155)">
      <line id="線_3" data-name="線 3" y1="13.735" x2="14.136" transform="translate(106.364 1393.132)" fill="none" stroke="#000" stroke-width="2"/>
      <line id="線_4" data-name="線 4" x2="13.278" y2="13.735" transform="translate(94.5 1393.132)" fill="none" stroke="#000" stroke-width="2"/>
    </g>
    <g id="グループ_57" data-name="グループ 57" transform="translate(406 6)">
      <g id="楕円形_34" data-name="楕円形 34" transform="translate(-1023 1517)" fill="#333" stroke="#707070" stroke-width="1">
        <circle cx="32" cy="32" r="32" stroke="none"/>
        <circle cx="32" cy="32" r="31.5" fill="none"/>
      </g>
      <path id="パス_79" data-name="パス 79" d="M1.376,0H17.248V-3.968h-5.12c-1.12,0-2.688.128-3.872.256,4.32-4.224,7.872-8.832,7.872-13.12,0-4.416-2.976-7.3-7.456-7.3-3.232,0-5.344,1.248-7.52,3.584l2.56,2.56c1.216-1.312,2.624-2.432,4.352-2.432,2.272,0,3.552,1.44,3.552,3.84,0,3.648-3.808,8.1-10.24,13.856Z" transform="translate(-1000.152 1561.128)" fill="#fff"/>
    </g>
    <path id="パス_83" data-name="パス 83" d="M22.848-23.632C17.976-22.6,9.52-21.9,2.324-21.616a7.343,7.343,0,0,1,.56,2.212,151.356,151.356,0,0,0,21.784-2.1ZM4.48-13.216H23.436v3.5h2.548v-5.8h-4.4c.784-1.12,1.6-2.52,2.324-3.78L21.2-20.02a30.688,30.688,0,0,1-2.24,4.508H13.384l2.352-.588a15.892,15.892,0,0,0-1.4-3.864l-2.324.5a15.964,15.964,0,0,1,1.26,3.948H7.224l1.512-.476a14.837,14.837,0,0,0-1.792-3.5l-2.268.644a18.952,18.952,0,0,1,1.6,3.332H2.044v5.8H4.48ZM18.7-8.12A14.091,14.091,0,0,1,14.056-4a15.486,15.486,0,0,1-4.9-4.116Zm2.156-2.492-.476.084H5.684V-8.12h1.2l-.5.224a18.978,18.978,0,0,0,5.1,5.152A38.043,38.043,0,0,1,1.428-.28,8.21,8.21,0,0,1,2.94,2.072,39.146,39.146,0,0,0,14-1.2,34.46,34.46,0,0,0,24.92,2.044a11.276,11.276,0,0,1,1.6-2.464A36.9,36.9,0,0,1,16.66-2.744a17.121,17.121,0,0,0,5.964-6.8ZM37.688-22.568H30.464v2.044h7.224ZM35.728-5.124v4.032H32.452V-5.124Zm2.184-2.1H30.3V2.184h2.156V.98h5.46ZM30.324-9.072H37.8v-2.016H30.324ZM37.8-14.9H30.324v2.016H37.8Zm-8.68-1.82h9.436v-2.072H29.12Zm18.7,12.6V-5.824h3.248v1.708Zm-5.4-1.708h3.192v1.708H42.42ZM45.612-9.24v1.708H42.42V-9.24Zm5.46,0v1.708H47.824V-9.24Zm-6.16-6.8H48.8v1.54H44.912Zm0-3.36H48.8v1.484H44.912ZM54.964-4.116H53.48v-7H47.824V-12.46h7.084V-14.5H51.156v-1.54H53.9V-17.92H51.156V-19.4h3.3v-1.9h-3.3v-2.184H48.8v2.184H44.912v-2.184H42.56v2.184H39.424v1.9H42.56v1.484h-2.6v1.876h2.6v1.54H38.668v2.044h6.944v1.344h-5.4v7H38.64v2.072h1.568V2.212H42.42V-2.044h8.652V-.28c0,.336-.084.448-.448.476-.364,0-1.6,0-2.8-.056a8.127,8.127,0,0,1,.616,2.044,12.02,12.02,0,0,0,3.948-.336c.868-.336,1.092-.924,1.092-2.1V-2.044h1.484ZM71.4-1.176v-6.44h8.708v-2.492H71.4v-5.6h9.744v-2.548H71.4v-5.208H68.712v5.208H63.644c.532-1.344,1.036-2.772,1.456-4.2l-2.688-.616c-1.036,3.92-2.8,7.756-5.068,10.136a16.676,16.676,0,0,1,2.38,1.568,24.174,24.174,0,0,0,2.772-4.34h6.216v5.6h-7.98v2.492h7.98v6.44H57.624v2.52H82.488v-2.52Zm38.248-8.652c0-5.852-4.256-10.556-10.976-10.556-7.028,0-12.516,5.376-12.516,11.648,0,4.676,2.548,7.756,5.32,7.756s5.1-3.164,6.776-8.876a55.754,55.754,0,0,0,1.68-7.868,7.445,7.445,0,0,1,6.776,7.812c0,4.508-3.192,7.14-6.776,7.952a17.305,17.305,0,0,1-2.492.392l1.652,2.632C105.9.084,109.648-3.948,109.648-9.828Zm-20.664.812a9.36,9.36,0,0,1,7.98-8.652,44.579,44.579,0,0,1-1.54,7.224c-1.288,4.312-2.6,6.132-3.864,6.132C90.356-4.312,88.984-5.8,88.984-9.016Zm31.724-11.228a18.381,18.381,0,0,0-4.788-2.968l-1.54,1.848a20.1,20.1,0,0,1,4.732,3.136Zm-1.176,7.084a21.316,21.316,0,0,0-5.124-2.52l-1.372,2.016a19.076,19.076,0,0,1,5.012,2.716ZM116.088,1.848c1.4-2.632,3-5.964,4.228-8.9l-2.044-1.568A84.8,84.8,0,0,1,113.764.308Zm11.06-20.44h4.424v2.632h-4.424Zm11.62,4.984V-15.96h-4.7v-2.632h3.92V-20.86h-3.92v-2.632h-2.492v2.632h-4.424v-2.632h-2.436v2.632H120.9v2.268h3.808v2.632h-4.7v2.352h8.064v2.044h-7.056V2.184h2.324V-9.268h4.984v5.124h-1.792v-3.78h-1.624V-.56h1.624V-2.24h5.684v1.176h1.624v-6.86h-1.624v3.78h-1.9V-9.268h5.208v8.82c0,.336-.112.448-.476.448s-1.6,0-2.884-.056a9.624,9.624,0,0,1,.644,2.184,12.711,12.711,0,0,0,4.088-.336c.84-.364,1.064-1.036,1.064-2.24V-11.564h-7.364v-2.044Zm8.512-6.076H161.2v4.732H147.28ZM155.512-6.1h9.24V-8.54h-9.24v-3.948h8.428v-9.688H144.7v9.688h8.148V-1.764a8.826,8.826,0,0,1-4.7-5.04,31.3,31.3,0,0,0,.7-3.444l-2.716-.336c-.42,3.92-1.708,8.568-4.872,11a13.687,13.687,0,0,1,1.848,1.764,13.494,13.494,0,0,0,4.06-5.908C149.912.84,154.224,1.9,159.992,1.9h6.02a9.011,9.011,0,0,1,.952-2.548c-1.344.056-5.8.056-6.832.056a24.157,24.157,0,0,1-4.62-.364ZM173.88-18.536h20.5V-20.86H184.184v-2.632h-2.716v2.632h-10.08v7.9c0,4.06-.2,9.744-2.464,13.72a11.785,11.785,0,0,1,2.128,1.428c2.436-4.256,2.828-10.752,2.828-15.148Zm13.468,4.928v2.464H181.3v-2.464Zm2.548,4.48v-4.48h4.284v-2.128H189.9v-2.128h-2.548v2.128H181.3v-2.128h-2.464v2.128h-4.144v2.128h4.144v4.48ZM188.72-5.572a12.9,12.9,0,0,1-4.144,3.024,12.045,12.045,0,0,1-4.06-3.024ZM190.9-7.756l-.476.084H175v2.1h4.284l-1.26.476a14.905,14.905,0,0,0,3.864,3.612A39.039,39.039,0,0,1,173.88.056a7.983,7.983,0,0,1,1.092,2.184,36.757,36.757,0,0,0,9.52-2.3,31.687,31.687,0,0,0,8.876,2.324A9.272,9.272,0,0,1,194.88.028a36.816,36.816,0,0,1-7.588-1.484A13.5,13.5,0,0,0,192.5-6.888ZM198.408,0h11.76V-2.66h-4.032V-20.636H203.7a12.119,12.119,0,0,1-4.48,1.6V-17h3.7V-2.66h-4.508ZM219.94.364c4.032,0,6.664-3.584,6.664-10.752C226.6-17.5,223.972-21,219.94-21s-6.664,3.472-6.664,10.612C213.276-3.22,215.908.364,219.94.364Zm0-2.548c-2.1,0-3.584-2.24-3.584-8.2,0-5.908,1.484-8.064,3.584-8.064s3.584,2.156,3.584,8.064C223.524-4.424,222.04-2.184,219.94-2.184ZM235.9.364c4.032,0,6.664-3.584,6.664-10.752C242.564-17.5,239.932-21,235.9-21s-6.664,3.472-6.664,10.612C229.236-3.22,231.868.364,235.9.364Zm0-2.548c-2.1,0-3.584-2.24-3.584-8.2,0-5.908,1.484-8.064,3.584-8.064s3.584,2.156,3.584,8.064C239.484-4.424,238-2.184,235.9-2.184Zm13.8-5.768c2.884,0,4.844-2.408,4.844-6.552S252.588-21,249.7-21s-4.816,2.352-4.816,6.5S246.82-7.952,249.7-7.952Zm0-1.9c-1.428,0-2.464-1.484-2.464-4.648,0-3.192,1.036-4.592,2.464-4.592,1.456,0,2.492,1.4,2.492,4.592C252.2-11.34,251.16-9.856,249.7-9.856Zm.644,10.22h2.044L263.676-21h-2.044Zm14,0c2.856,0,4.816-2.38,4.816-6.524s-1.96-6.5-4.816-6.5c-2.884,0-4.844,2.352-4.844,6.5S261.464.364,264.348.364Zm0-1.876c-1.456,0-2.464-1.484-2.464-4.648,0-3.192,1.008-4.592,2.464-4.592,1.428,0,2.464,1.4,2.464,4.592C266.812-3,265.776-1.512,264.348-1.512Z" transform="translate(-477.428 1565.682)"/>
  </g>
</svg>
