<svg xmlns="http://www.w3.org/2000/svg" width="350" height="119" viewBox="0 0 350 119">
  <g id="グループ_142" data-name="グループ 142" transform="translate(3086 -1299.955)">
    <rect id="長方形_314" data-name="長方形 314" width="343" height="92" transform="translate(-3079 1326.954)" fill="#45ccc4"/>
    <path id="長方形_315" data-name="長方形 315" d="M.572.572V90.931H342.565V.572H.572M0,0H343.137V91.5H0Z" transform="translate(-3086 1320.588)" fill="#333"/>
    <g id="グループ_25" data-name="グループ 25" transform="translate(-2928.157 1300)">
      <g id="楕円形_9" data-name="楕円形 9" transform="translate(0.157 -0.046)" fill="#333" stroke="#333" stroke-width="1">
        <circle cx="20.5" cy="20.5" r="20.5" stroke="none"/>
        <circle cx="20.5" cy="20.5" r="20" fill="none"/>
      </g>
      <path id="パス_37" data-name="パス 37" d="M1.52-12.266H12.3v-2.695H8.822c-.761,0-1.825.087-2.63.174,2.934-2.869,5.346-6,5.346-8.91a4.718,4.718,0,0,0-5.064-4.955,6.455,6.455,0,0,0-5.107,2.434l1.739,1.739a4.208,4.208,0,0,1,2.956-1.652,2.3,2.3,0,0,1,2.412,2.608c0,2.477-2.586,5.5-6.954,9.41Z" transform="translate(13.501 41.234)" fill="#fff"/>
    </g>
    <path id="パス_42" data-name="パス 42" d="M13.746-23.52A83.722,83.722,0,0,1,2.008-22.335a3.619,3.619,0,0,1,.272,1.009,84.159,84.159,0,0,0,12.3-1.233ZM9.487-19.245a9.622,9.622,0,0,0-.849-2.322l-1.073.24a9.308,9.308,0,0,1,.8,2.354ZM2.969-17.819H14.306v2.178h1.169v-3.235H12.737c.48-.7,1.041-1.569,1.473-2.354l-1.2-.368a19.81,19.81,0,0,1-1.489,2.722H4.554l.945-.3a9.433,9.433,0,0,0-1.137-2.1l-1.025.288a11.3,11.3,0,0,1,1.057,2.114H1.848v3.235H2.969ZM11.744-14.9A8.723,8.723,0,0,1,8.7-12.151,9.4,9.4,0,0,1,5.563-14.9Zm.993-1.153-.24.048H3.77v1.1h.689l-.16.064a11.327,11.327,0,0,0,3.235,3.3,22.138,22.138,0,0,1-6.021,1.6,4.507,4.507,0,0,1,.7,1.057A21.529,21.529,0,0,0,8.67-10.87a18.706,18.706,0,0,0,6.389,1.986,4.525,4.525,0,0,1,.721-1.1,20.431,20.431,0,0,1-5.925-1.553,9.976,9.976,0,0,0,3.667-4.019Zm9.448-6.854H18.1v.961h4.083Zm-.9,9.672v2.674H19V-13.24Zm1.025-.977H17.989v5.348H19v-.721h3.315Zm-4.292-1.233h4.227v-.945H18.021Zm4.227-3.123H18.021v.945h4.227ZM17.333-19.8h5.332v-.977H17.333ZM27.87-12.327V-13.48h2.178v1.153ZM24.763-13.48h2.1v1.153h-2.1Zm2.1-2v1.169h-2.1v-1.169Zm3.187,0v1.169H27.87v-1.169Zm-3.859-3.827h2.53v1.073h-2.53Zm0-1.89h2.53v1.009h-2.53Zm5.845,8.871h-.881v-4.051H27.87v-.913h4.147v-.945H29.791v-1.073h1.665v-.881H29.791V-21.2h1.986v-.913H29.791v-1.345H28.718v1.345h-2.53v-1.345H25.1v1.345H23.21v.913H25.1v1.009H23.53v.881H25.1v1.073H22.777v.945h4.083v.913H23.722v4.051h-.961v.961h.961v2.514h1.041v-2.514h5.284v1.313c0,.192-.048.24-.272.24-.192.016-.913.016-1.681,0a4.186,4.186,0,0,1,.3.961,7.29,7.29,0,0,0,2.194-.176c.432-.16.56-.448.56-1.009v-1.329h.881ZM41.32-10.5v-4.067h5.14v-1.153H41.32v-3.491h5.733v-1.169H41.32v-3.075H40.1v3.075H36.853a21.979,21.979,0,0,0,.9-2.562l-1.2-.256a14.6,14.6,0,0,1-2.962,5.893,7.973,7.973,0,0,1,1.089.7,14.368,14.368,0,0,0,1.665-2.61H40.1v3.491H35.348v1.153H40.1V-10.5H33.618v1.153H47.806V-10.5Zm21.906-5.172a5.8,5.8,0,0,0-6.133-5.893,6.825,6.825,0,0,0-7,6.517c0,2.642,1.425,4.275,2.85,4.275,1.489,0,2.754-1.681,3.731-4.98a31.5,31.5,0,0,0,.961-4.612,4.459,4.459,0,0,1,4.275,4.644,4.836,4.836,0,0,1-4.067,4.756,12.1,12.1,0,0,1-1.377.208l.753,1.185C61.017-10.069,63.226-12.311,63.226-15.674Zm-11.882.512a5.586,5.586,0,0,1,4.964-5.188,26.163,26.163,0,0,1-.9,4.324c-.817,2.706-1.665,3.779-2.418,3.779C52.273-12.247,51.345-13.144,51.345-15.161Zm18.239-6.421a10.916,10.916,0,0,0-2.77-1.713l-.689.849a10.823,10.823,0,0,1,2.722,1.777Zm-.657,4.1A12.822,12.822,0,0,0,66-18.94l-.657.913a11.776,11.776,0,0,1,2.914,1.569ZM66.813-9.06c.817-1.489,1.761-3.459,2.466-5.14l-.9-.7A45.318,45.318,0,0,1,65.772-9.8ZM73.17-20.766H76v1.793H73.17ZM79.944-17.9v-1.073h-2.8v-1.793h2.37v-1.041h-2.37v-1.649H76v1.649H73.17v-1.649h-1.1v1.649h-2.29v1.041h2.29v1.793H69.231V-17.9H74v1.345H69.9v7.686h1.073V-15.5h3.139v3.251H72.834v-2.386h-.8v4.259h.8v-.961h3.555v.737h.785v-4.035h-.785v2.386H75.044V-15.5h3.283v5.364c0,.192-.064.256-.288.272-.224,0-.977,0-1.793-.032a4.318,4.318,0,0,1,.32,1.009,8.347,8.347,0,0,0,2.322-.16c.432-.176.544-.5.544-1.089v-6.421H75.156V-17.9Zm4.676-3.635h8.487V-18.4H84.62Zm4.788,7.846h5.364v-1.1H89.408v-2.466H94.34v-5.428H83.451v5.428h4.756v6.485a5.04,5.04,0,0,1-2.978-3.155,18.44,18.44,0,0,0,.4-2l-1.265-.144c-.224,2.29-.993,4.98-2.882,6.437a4.9,4.9,0,0,1,.833.8,7.968,7.968,0,0,0,2.45-3.6c1.521,2.77,3.971,3.379,7.366,3.379h3.523a4.171,4.171,0,0,1,.432-1.153c-.673.016-3.395.016-3.891.016a13.791,13.791,0,0,1-2.786-.24Zm22.37-7.11v-1.089h-5.973v-1.569h-1.217v1.569H98.711v4.58c0,2.306-.112,5.541-1.425,7.814a4.6,4.6,0,0,1,.977.673c1.377-2.418,1.569-6.021,1.569-8.487V-20.8Zm-3.843,2.77v1.681H104.06v-1.681Zm1.153,2.642v-2.642h2.578V-19h-2.578V-20.4h-1.153V-19H104.06V-20.4h-1.137V-19h-2.546v.977h2.546v2.642Zm-.256,1.986a7.359,7.359,0,0,1-2.706,2.034,7.173,7.173,0,0,1-2.594-2.034Zm.993-1.025-.208.048h-9.047v.977h2.466l-.641.24a8.057,8.057,0,0,0,2.514,2.29,21.722,21.722,0,0,1-4.932,1.025,4.115,4.115,0,0,1,.5.993,21.689,21.689,0,0,0,5.637-1.377,18.266,18.266,0,0,0,5.268,1.409,3.53,3.53,0,0,1,.689-1.009,20.363,20.363,0,0,1-4.708-1.009,7.91,7.91,0,0,0,3.219-3.187Zm4.324,4.356h6.437v-1.217h-2.354V-21.823H117.11a7.071,7.071,0,0,1-2.434.849v.929h2.082v8.759h-2.61Zm11.93.208c2.226,0,3.651-2.034,3.651-6.117,0-4.067-1.425-6.053-3.651-6.053-2.242,0-3.667,1.97-3.667,6.053S123.836-9.861,126.078-9.861Zm0-1.169c-1.345,0-2.242-1.489-2.242-4.948,0-3.427.9-4.884,2.242-4.884,1.329,0,2.226,1.457,2.226,4.884C128.3-12.519,127.407-11.03,126.078-11.03Zm8.887,1.169c2.226,0,3.651-2.034,3.651-6.117,0-4.067-1.425-6.053-3.651-6.053-2.242,0-3.667,1.97-3.667,6.053S132.723-9.861,134.965-9.861Zm0-1.169c-1.345,0-2.242-1.489-2.242-4.948,0-3.427.9-4.884,2.242-4.884,1.329,0,2.226,1.457,2.226,4.884C137.191-12.519,136.294-11.03,134.965-11.03Zm7.718-3.587c1.617,0,2.674-1.361,2.674-3.731,0-2.354-1.057-3.683-2.674-3.683-1.6,0-2.658,1.329-2.658,3.683C140.025-15.978,141.082-14.617,142.683-14.617Zm0-.913c-.913,0-1.553-.945-1.553-2.818s.641-2.786,1.553-2.786c.929,0,1.569.913,1.569,2.786S143.612-15.529,142.683-15.529Zm.352,5.669h.977l6.485-12.17H149.5Zm7.83,0c1.6,0,2.658-1.345,2.658-3.715,0-2.354-1.057-3.683-2.658-3.683s-2.674,1.329-2.674,3.683C148.192-11.206,149.265-9.861,150.866-9.861Zm0-.9c-.929,0-1.553-.945-1.553-2.818s.625-2.786,1.553-2.786c.913,0,1.553.913,1.553,2.786S151.779-10.758,150.866-10.758Z" transform="translate(-2985.143 1389.288)"/>
  </g>
</svg>
