<svg id="logo" xmlns="http://www.w3.org/2000/svg" width="247.259" height="21.944" viewBox="0 0 247.259 21.944">
  <path id="パス_1" data-name="パス 1" d="M5.533,2.591H9.595l5.556,17.3H11.532l-1.214-4.436h-5.6L3.5,19.89H0ZM5.463,12.77H9.572l-.514-1.891c-.537-1.8-1-3.782-1.494-5.65H7.447C7,7.121,6.49,9.081,5.977,10.879Z" fill="#fff"/>
  <path id="パス_2" data-name="パス 2" d="M16.527,17.812,24.581,5.486H17.3V2.591H28.83V4.669L20.776,17H28.9v2.9H16.527Z" fill="#fff"/>
  <path id="パス_3" data-name="パス 3" d="M35.739,2.591H39.8l5.556,17.3H41.738l-1.214-4.436h-5.6L33.707,19.89H30.2Zm-.07,10.179h4.109l-.514-1.891c-.537-1.8-1-3.782-1.494-5.649h-.117c-.444,1.891-.957,3.852-1.471,5.649Z" fill="#fff"/>
  <path id="パス_4" data-name="パス 4" d="M47.388,2.591h3.829l2.942,8.1c.374,1.073.7,2.218,1.05,3.314h.117c.374-1.1.677-2.241,1.051-3.314l2.872-8.1h3.829v17.3H59.926V12.676c0-1.635.257-4.039.444-5.673h-.117l-1.4,4.062L56.19,18.326H54.206l-2.685-7.261L50.144,7h-.093c.163,1.634.443,4.038.443,5.673V19.89h-3.1V2.591Z" fill="#fff"/>
  <path id="パス_5" data-name="パス 5" d="M66.856,2.591h3.455v17.3H66.856Z" fill="#fff"/>
  <path id="パス_6" data-name="パス 6" d="M74.093,2.591h3.525l5.019,9.221,1.728,3.735h.117c-.163-1.8-.443-4.085-.443-6.047V2.59h3.269v17.3h-3.5l-5-9.245L77.059,6.932h-.117c.164,1.867.42,4.039.42,6.023v6.934H74.093V2.591Z" fill="#fff"/>
  <path id="パス_7" data-name="パス 7" d="M94.893,2.591h4.062l5.557,17.3h-3.618l-1.215-4.436h-5.6L92.862,19.89h-3.5ZM94.822,12.77H98.93l-.514-1.891c-.536-1.8-1-3.782-1.494-5.649h-.116c-.443,1.891-.957,3.852-1.471,5.649Z" fill="#fff"/>
  <path id="パス_8" data-name="パス 8" d="M116.462,16.622c.91,1.564,2.545,2.218,4.926,2.312,2.8.116,8.312.047,11.533-.21a12.64,12.64,0,0,0-.864,2.708c-2.9.14-7.844.187-10.692.07-2.777-.117-4.646-.794-6.046-2.592-.935.91-1.892,1.8-3.082,2.8l-1.308-2.755a28.076,28.076,0,0,0,2.9-2.148V11.72H111.21V9.175h5.253v7.447ZM114.805,6.163a18.168,18.168,0,0,0-3.5-3.875L113.427.7a20.271,20.271,0,0,1,3.666,3.712Zm4.108,2.1c-.42.444-.84.841-1.261,1.215a19.508,19.508,0,0,0-2.031-2.195,16.929,16.929,0,0,0,5.16-7.1l2.755.794a26.833,26.833,0,0,1-1.191,2.475h2.662a28.991,28.991,0,0,0,.98-3.082l3.059.583c-.421.84-.841,1.7-1.261,2.5h4.132V5.79h-4.646V7.26h4.016V9.5h-4.016v1.541h3.922v2.241h-3.922v1.588h5.042v2.335h-13.4V8.264Zm5.72-2.474H121.6V7.26h3.035Zm0,3.711H121.6v1.541h3.035Zm0,3.782H121.6v1.588h3.035Z" fill="#fff"/>
  <path id="パス_9" data-name="パス 9" d="M155.681,15.828h-8.988v3.105c0,1.447-.3,2.171-1.447,2.568a14.182,14.182,0,0,1-4.529.443,12.409,12.409,0,0,0-1.144-2.708c1.494.069,3.222.069,3.688.046.49,0,.607-.093.607-.42V15.827H134.9V13.282h8.965V11.741h1.33a15.773,15.773,0,0,0,1.8-1.283h-7.914v-2.4h10.482l.606-.14,1.751,1.354a22.566,22.566,0,0,1-5.065,4.016h8.824v2.544Zm-17.86-6.349h-2.614V3.805h3.175a19.745,19.745,0,0,0-1.611-2.4L139.129.35a12.726,12.726,0,0,1,2.124,3.058l-.84.4h3.665A16.233,16.233,0,0,0,142.607.887L145.059,0a13.675,13.675,0,0,1,1.821,3.362l-1.121.443h3.525A19.5,19.5,0,0,0,151.292.257l3.012.91c-.631.887-1.331,1.821-1.961,2.638h3.1V9.478h-2.731V6.257h-14.9V9.479Z" fill="#fff"/>
  <path id="パス_10" data-name="パス 10" d="M174.659,5.51a34.371,34.371,0,0,1-3.665,6.42,65.638,65.638,0,0,1,6.514,6.677l-2.662,2.312a53.215,53.215,0,0,0-5.883-6.607,30.769,30.769,0,0,1-8.778,6.561l-2.4-2.521a26.155,26.155,0,0,0,9.571-6.7,18.073,18.073,0,0,0,3.479-5.72h-7.914c-.98,0-2.265.14-2.755.164V2.778a25.936,25.936,0,0,0,2.755.164h8.241a8.375,8.375,0,0,0,2.4-.3l1.915,1.424A10.856,10.856,0,0,0,174.659,5.51Z" fill="#fff"/>
  <path id="パス_11" data-name="パス 11" d="M190.369,4.062c-.023.047-.047.07-.07.117h4.692a7.5,7.5,0,0,0,2.031-.28L199.4,5.37a9.321,9.321,0,0,0-.771,1.681,24.362,24.362,0,0,1-4.062,7.8,21.806,21.806,0,0,1-9.432,6.584l-2.755-2.475a18.612,18.612,0,0,0,9.408-5.767,16.6,16.6,0,0,0,3.315-6.374h-6.561a26.6,26.6,0,0,1-5.883,5.65l-2.615-1.938a20.548,20.548,0,0,0,7.284-7.517A11.2,11.2,0,0,0,188.383.559l3.408,1.121C191.256,2.5,190.649,3.548,190.369,4.062Z" fill="#fff"/>
  <path id="パス_12" data-name="パス 12" d="M207.2,9.222h12.537c1.1,0,2.124-.094,2.731-.141v3.665c-.561-.022-1.751-.116-2.731-.116H207.2c-1.33,0-2.9.047-3.759.116V9.081C204.281,9.151,205.985,9.222,207.2,9.222Z" fill="#fff"/>
  <path id="パス_13" data-name="パス 13" d="M229.539,13.447c.654-2.008.678-6.42.678-9.245a8.81,8.81,0,0,0-.211-2.148h3.433a15.405,15.405,0,0,0-.164,2.125c0,2.755-.069,7.681-.7,10.039a13.686,13.686,0,0,1-4.155,6.7l-2.849-1.892A11,11,0,0,0,229.539,13.447Zm7.027,4.2V4.039a10.292,10.292,0,0,0-.187-2.008h3.479a11.924,11.924,0,0,0-.163,2.031v12.21a14.78,14.78,0,0,0,5.766-4.927l1.8,2.568a25.71,25.71,0,0,1-7.914,6.373,4.955,4.955,0,0,0-1,.7l-1.961-1.611A8.9,8.9,0,0,0,236.566,17.649Z" fill="#fff"/>
</svg>
