<svg xmlns="http://www.w3.org/2000/svg" xmlns:xlink="http://www.w3.org/1999/xlink" width="290" height="290" viewBox="0 0 290 290">
  <defs>
    <linearGradient id="linear-gradient" x1="0.5" x2="0.5" y2="1" gradientUnits="objectBoundingBox">
      <stop offset="0" stop-color="#e6b422"/>
      <stop offset="1" stop-color="#f6dd93"/>
    </linearGradient>
  </defs>
  <g id="グループ_5" data-name="グループ 5" transform="translate(-1068 -568)">
    <path id="パス_25" data-name="パス 25" d="M145,0A145,145,0,1,1,0,145,145,145,0,0,1,145,0Z" transform="translate(1068 568)" fill="url(#linear-gradient)"/>
    <path id="パス_24" data-name="パス 24" d="M-47.425-8.26a1.058,1.058,0,0,0,1.05-1.05,1.058,1.058,0,0,0-1.05-1.05,1.058,1.058,0,0,0-1.05,1.05A1.058,1.058,0,0,0-47.425-8.26Zm0,2.534-4.62-4.62-.406.406,4.62,4.62L-52.465-.686l.406.406,4.634-4.634,4.62,4.62L-42.4-.7l-4.62-4.62,4.62-4.62-.406-.406Zm-2.94.406a1.058,1.058,0,0,0-1.05-1.05,1.058,1.058,0,0,0-1.05,1.05,1.058,1.058,0,0,0,1.05,1.05A1.058,1.058,0,0,0-50.365-5.32Zm5.88,0a1.058,1.058,0,0,0,1.05,1.05,1.058,1.058,0,0,0,1.05-1.05,1.058,1.058,0,0,0-1.05-1.05A1.058,1.058,0,0,0-44.485-5.32Zm-2.94,2.94a1.058,1.058,0,0,0-1.05,1.05,1.058,1.058,0,0,0,1.05,1.05,1.058,1.058,0,0,0,1.05-1.05A1.058,1.058,0,0,0-47.425-2.38ZM-39.809,0h6.454V-1.106H-36.2c-.518,0-1.148.056-1.68.1,2.408-2.282,4.018-4.368,4.018-6.412a2.815,2.815,0,0,0-2.982-3.038,3.925,3.925,0,0,0-3.024,1.512l.742.728A2.874,2.874,0,0,1-37-9.408a1.8,1.8,0,0,1,1.89,2.03c0,1.764-1.484,3.808-4.7,6.622Zm11.046.182c1.946,0,3.192-1.778,3.192-5.348s-1.246-5.292-3.192-5.292-3.206,1.722-3.206,5.292S-30.723.182-28.763.182Zm0-1.022c-1.176,0-1.96-1.3-1.96-4.326,0-3,.784-4.27,1.96-4.27s1.946,1.274,1.946,4.27C-26.817-2.142-27.6-.84-28.763-.84Zm4.494.84h6.454V-1.106h-2.842c-.518,0-1.148.056-1.68.1,2.408-2.282,4.018-4.368,4.018-6.412A2.815,2.815,0,0,0-21.3-10.458a3.925,3.925,0,0,0-3.024,1.512l.742.728a2.874,2.874,0,0,1,2.128-1.19,1.8,1.8,0,0,1,1.89,2.03c0,1.764-1.484,3.808-4.7,6.622Zm7.77,0h6.454V-1.106h-2.842c-.518,0-1.148.056-1.68.1,2.408-2.282,4.018-4.368,4.018-6.412a2.815,2.815,0,0,0-2.982-3.038,3.925,3.925,0,0,0-3.024,1.512l.742.728a2.874,2.874,0,0,1,2.128-1.19,1.8,1.8,0,0,1,1.89,2.03c0,1.764-1.484,3.808-4.7,6.622ZM-5.3-3.136V-5.908h3.136v2.772Zm9.254,0H-1.113V-5.908h4.1v-.98h-4.1V-9.016H3.311v-1.008H-5.033c.224-.476.448-.98.644-1.47l-1.05-.252a11.847,11.847,0,0,1-3.15,4.83,6.444,6.444,0,0,1,.9.658A12.935,12.935,0,0,0-5.565-9.016h3.4v2.128H-6.335v3.752h-2.3v1.008h6.468V1.078h1.05V-2.128H3.955ZM8.351.182a2.987,2.987,0,0,0,3.29-2.926,2.64,2.64,0,0,0-2.17-2.6V-5.4a2.563,2.563,0,0,0,1.82-2.478c0-1.624-1.26-2.576-2.982-2.576a4.109,4.109,0,0,0-2.87,1.232l.686.812a3,3,0,0,1,2.128-.994A1.575,1.575,0,0,1,9.989-7.784c0,1.106-.728,1.96-2.842,1.96v.98c2.366,0,3.192.826,3.192,2.044A1.892,1.892,0,0,1,8.253-.882,3.393,3.393,0,0,1,5.7-2.058l-.644.84A4.248,4.248,0,0,0,8.351.182Zm7.9-4.466A17.577,17.577,0,0,0,16.4-6.636h6.4v2.352ZM22.8-9.954V-7.63H16.4V-9.954Zm1.078-1.022H15.351v4.284c0,2.226-.224,5.068-2.45,7.028a3.94,3.94,0,0,1,.77.756,7.9,7.9,0,0,0,2.408-4.354H22.8v2.8c0,.308-.112.406-.434.42s-1.442.014-2.6-.028A4.966,4.966,0,0,1,20.2,1.008a11.258,11.258,0,0,0,2.954-.2c.518-.168.728-.532.728-1.26Zm6.65,1.12v3.108H28.5V-9.856ZM28.5-2.6V-5.838h2.03V-2.6Zm3.01-8.19H27.545V-.532H28.5V-1.666h3.01Zm1.148,7.84A10.8,10.8,0,0,1,34.433-.49l.882-.56A9.9,9.9,0,0,0,33.5-3.43Zm7.224-3.472V-7.35H36.267V-9.128h3.01v-.924h-3.01v-1.666H35.245v1.666H32.333v.924h2.912V-7.35H31.731v.924h5.362v1.582H31.8v.924h5.292V-.182c0,.21-.07.266-.308.28s-.994.014-1.862-.014a3.179,3.179,0,0,1,.336.966A8.01,8.01,0,0,0,37.527.882c.42-.154.574-.462.574-1.05V-3.92h1.624v-.924H38.1V-6.426ZM51.037-4H43.771V-6.5h7.266Zm1.05-3.472H47.831V-9.24h5.292v-.98H47.831V-11.7H46.8v4.228H42.777v4.452h9.31Zm-10.08,8.54a9.608,9.608,0,0,0,1.932-3l-.98-.252A8.122,8.122,0,0,1,41.055.6ZM45.2-1.806A16.109,16.109,0,0,1,45.507.952l1.036-.14a17.677,17.677,0,0,0-.35-2.7Zm2.87.014a13.352,13.352,0,0,1,.98,2.7L50.057.672A13.993,13.993,0,0,0,49.007-2Zm2.842-.126A15.008,15.008,0,0,1,52.7.952l.98-.392a15.266,15.266,0,0,0-1.862-2.828ZM-65.66,6.772a20.352,20.352,0,0,1-1.806,3.472l.9.364a30.11,30.11,0,0,0,2-3.458Zm-6.678,3.3A12.967,12.967,0,0,0-74.2,6.9l-.91.378a13.379,13.379,0,0,1,1.778,3.234Zm3.024-3.794h-1.12V11.21h-4.494v1.022h9.1v2.03h-8.638V15.27h8.638v2.17h-9.366v1.022h9.366v.616h1.078V11.21h-4.564Zm12.908,7.924c-.35-.308-1.582-1.386-2.24-1.9a12.58,12.58,0,0,0,1.82-3.052l-.588-.392L-57.6,8.9h-1.218V6.3h-1.022V8.9h-2.2v.952h3.892a12.144,12.144,0,0,1-4.382,4.592,4.709,4.709,0,0,1,.546.938,13.22,13.22,0,0,0,2.142-1.75v5.432h1.022v-5.8c.63.588,1.4,1.372,1.764,1.778ZM-52.6,17.65V11.84h2.982V10.832H-52.6V6.394h-1.036v4.438h-3V11.84h3v5.81h-3.542v1.022h7.84V17.65Zm7.924-11.13a10.216,10.216,0,0,1-1.12,1.666,8.824,8.824,0,0,0-1.526-1.68l-.728.56a7.622,7.622,0,0,1,1.61,1.89,14.131,14.131,0,0,1-1.834,1.638,4.578,4.578,0,0,1,.714.658A15.8,15.8,0,0,0-46,9.88a7.531,7.531,0,0,1,.49,1.932A9.512,9.512,0,0,1-48.342,15a3.809,3.809,0,0,1,.714.784A12.6,12.6,0,0,0-45.4,13.352v.462c0,1.834-.14,3.514-.476,3.976a.64.64,0,0,1-.462.252,9.175,9.175,0,0,1-1.512-.014,2.333,2.333,0,0,1,.294,1.008,6.817,6.817,0,0,0,1.624-.07,1.3,1.3,0,0,0,.8-.448c.574-.784.728-2.66.728-4.69a10.452,10.452,0,0,0-.868-4.746A13.129,13.129,0,0,0-43.764,7Zm2.282,6.748V9.95h2.044v3.318Zm5.11-3.318v3.318h-2.03V9.95Zm1.862,8.694a33.447,33.447,0,0,0-1.708-3.92l-.966.28c.28.574.574,1.232.854,1.862l-2.072.21v-2.9h3.08V9.026h-3.08v-2.7h-1.036v2.7H-43.4v5.152h3.052v3.01c-1.456.154-2.772.294-3.78.378l.2,1.078c1.876-.2,4.522-.49,7.084-.812a11.5,11.5,0,0,1,.392,1.176Zm3.92-1.316V15.256h7.462v2.072Zm7.462-5.082v2.03H-31.5v-2.03Zm0-3.066v2.086H-31.5V9.18Zm-3.948-.994c.238-.532.49-1.162.7-1.764l-1.19-.154a17.646,17.646,0,0,1-.546,1.918h-3.514V19.092H-31.5v-.784h7.462v.714h1.078V8.186ZM-16.17,6.772h-3.444v.84h3.444Zm.392,1.834h-4.494V9.46h4.494Zm-.364,1.89H-19.7v.826h3.556ZM-19.7,13.184h3.556v-.84H-19.7Zm2.688,1.89v2.338h-1.862V15.074Zm.868,3.178V14.22h-3.57v4.69h.84v-.658Zm2.618-6.86v.8h4.1v-.8h-1.694V10.048h1.484v-.8h-1.484v-1.2h-.854v1.2h-1.442v.8h1.442v1.344Zm3.01,2.674v2H-12.53v-2Zm.8,2.8v-3.6h-3.612v4.144h.8v-.546Zm1.82-10h-7.182v4.984c0,2.058-.084,4.788-1.176,6.72a3.514,3.514,0,0,1,.812.574c1.162-2.044,1.316-5.124,1.316-7.294V7.78h5.278v9.968c0,.238-.07.294-.28.294-.238.014-.966.028-1.708-.014a4.983,4.983,0,0,1,.308,1.022,6.407,6.407,0,0,0,2.114-.182c.392-.168.518-.5.518-1.12ZM-2.7,16.81h5.67v1.022H-2.7Zm5.67-3.556v.994H-2.7v-.994Zm0,2.786H-2.7V15.018h5.67Zm1.05-3.668H-3.71v5.46H-6.062v.938H6.356v-.938H4.018Zm2.3-3.4V8.046H.6V6.282H-.406V8.046h-5.6V8.97h4.48a12.179,12.179,0,0,1-4.788,3.108,3.987,3.987,0,0,1,.658.812A13.077,13.077,0,0,0-.406,9v2.94H.6V9.012a12.809,12.809,0,0,0,5.306,3.78,3.222,3.222,0,0,1,.686-.826,12.465,12.465,0,0,1-4.9-3Zm7.21-.42V9.67a32.908,32.908,0,0,0,5.754,0V8.536A23.953,23.953,0,0,1,13.524,8.55Zm.546,5.7-1.008-.1a7.524,7.524,0,0,0-.238,1.652c0,1.316,1.05,2.1,3.4,2.1a18.972,18.972,0,0,0,3.5-.294L19.7,16.432a15.444,15.444,0,0,1-3.472.364c-1.9,0-2.366-.616-2.366-1.26A4.889,4.889,0,0,1,14.07,14.248ZM10.85,7.472,9.6,7.36a6.127,6.127,0,0,1-.1.994,39.379,39.379,0,0,0-.63,5.614,17.627,17.627,0,0,0,.518,4.494l1.008-.07c-.014-.14-.028-.336-.042-.49a2.7,2.7,0,0,1,.07-.63,28.573,28.573,0,0,1,.994-3.136l-.588-.448c-.238.574-.574,1.414-.812,2.044a15.355,15.355,0,0,1-.126-1.96,32.509,32.509,0,0,1,.7-5.362C10.654,8.158,10.78,7.71,10.85,7.472ZM24.024,16.39c0-.77.826-1.274,2.268-1.274a6.428,6.428,0,0,1,1.372.14c0,.364.014.672.014.9,0,.966-.5,1.442-1.526,1.442C24.808,17.594,24.024,17.16,24.024,16.39Zm4.69-9.38h-1.33A7.048,7.048,0,0,1,27.5,8.4c.014.6.014,1.75.014,2.562,0,.84.056,2.128.112,3.262a8.355,8.355,0,0,0-1.19-.084c-2.422,0-3.528,1.036-3.528,2.3,0,1.6,1.428,2.212,3.36,2.212,1.862,0,2.562-.98,2.562-2.128,0-.252-.014-.574-.028-.938a9.939,9.939,0,0,1,3.64,2.324l.672-1.064a11.1,11.1,0,0,0-4.354-2.38c-.07-1.218-.14-2.576-.14-3.5v-.112c1.148-.014,2.94-.1,4.186-.224l-.042-1.05c-1.26.154-3.038.224-4.144.252,0-.546-.014-1.05,0-1.428C28.63,7.976,28.672,7.3,28.714,7.01Zm10.892-.056-1.232-.042c-.028.378-.056.784-.112,1.2a36.995,36.995,0,0,0-.434,4.522,17.049,17.049,0,0,0,.154,2.226l1.078-.084a6.525,6.525,0,0,1-.028-1.722c.168-1.834,1.792-4.382,3.542-4.382,1.47,0,2.226,1.6,2.226,3.808,0,3.514-2.38,4.76-5.418,5.208L40.04,18.7c3.472-.63,5.908-2.338,5.908-6.23,0-2.94-1.33-4.8-3.192-4.8-1.778,0-3.234,1.75-3.808,3.178A25.992,25.992,0,0,1,39.606,6.954Zm14.658,8.89a2.068,2.068,0,0,0,.014-.294v-.924h3.556v1.218ZM52.4,13.1h7.14v.84H52.4Zm0-1.47h7.14v.8H52.4Zm0-1.484h7.14v.812H52.4Zm5.726-1.96a7.29,7.29,0,0,1,.938,1.26H55.93a8.171,8.171,0,0,0,1.078-1.26Zm3.962,7.658H58.884V14.626h1.722V9.446H59.22l.742-.336a4.772,4.772,0,0,0-.658-.924h2.66V7.332H57.512a6.874,6.874,0,0,0,.392-.868L56.91,6.24a6.329,6.329,0,0,1-1.946,2.744,5,5,0,0,1,.84.462H53.06l.756-.294a5.27,5.27,0,0,0-.532-.966h2.394V7.332H52.01c.14-.28.28-.56.406-.84l-.952-.252a7.665,7.665,0,0,1-2.058,2.884,5.292,5.292,0,0,1,.854.56,9.776,9.776,0,0,0,1.232-1.5h.714a7.649,7.649,0,0,1,.686,1.26H51.38v5.18h1.876v.91a2.373,2.373,0,0,1-.014.308H49.7v.868h3.206a4.883,4.883,0,0,1-2.982,1.6,3.763,3.763,0,0,1,.644.784c2.24-.658,3.15-1.512,3.5-2.38h3.766V19.05h1.05V16.712H62.09ZM74.256,13.3v3.878H70.322V12.4H74.76V7.612H73.682v3.78h-3.36V6.366H69.258v5.026H66.052V7.612H65.016V12.4h4.242v4.774H65.52V13.3H64.484v5.768H65.52V18.2h8.736v.84H75.32V13.3Z" transform="translate(1213.194 791)"/>
    <path id="パス_21" data-name="パス 21" d="M11.59-27.322a25.905,25.905,0,0,0-6.574-4.066L3.382-29.374a25.684,25.684,0,0,1,6.46,4.218Zm-1.558,9.728a30.427,30.427,0,0,0-6.954-3.458L1.52-18.886a27.946,27.946,0,0,1,6.916,3.724ZM5.016,2.394C6.954-1.14,9.2-5.814,10.868-9.8L8.74-11.476A107.541,107.541,0,0,1,2.546.646ZM20.1-25.384h6.726v4.256H20.1Zm16.074,6.8v-2.546h-6.65v-4.256H35.15v-2.47H29.526v-3.914h-2.7v3.914H20.1v-3.914H17.48v3.914H12.046v2.47H17.48v4.256H10.754v2.546H22.078v3.192H12.35V2.85H14.9V-12.882h7.448v7.714H19.3V-10.83H17.4V-.722h1.9V-3H27.74v1.748H29.6V-10.83H27.74v5.662H24.548v-7.714h7.79V-.152c0,.456-.152.608-.684.646-.532,0-2.318,0-4.256-.076a10.246,10.246,0,0,1,.76,2.394c2.7,0,4.446,0,5.51-.38,1.026-.418,1.292-1.178,1.292-2.584V-15.39H24.814v-3.192Zm11.1-8.626h20.14v7.448H47.272ZM58.634-8.588h12.73V-11.21H58.634v-5.852h11.7V-29.944H44.5v12.882H55.784v15.39a11.961,11.961,0,0,1-7.068-7.486,43.758,43.758,0,0,0,.95-4.75l-3-.342c-.532,5.434-2.356,11.818-6.84,15.276a11.636,11.636,0,0,1,1.976,1.9,18.908,18.908,0,0,0,5.814-8.55c3.61,6.574,9.424,8.018,17.48,8.018h8.36A9.9,9.9,0,0,1,74.48-.342c-1.6.038-8.056.038-9.234.038a32.726,32.726,0,0,1-6.612-.57ZM111.72-25.46v-2.584H97.546v-3.724H94.658v3.724H80.712v10.868c0,5.472-.266,13.148-3.382,18.544a10.924,10.924,0,0,1,2.318,1.6c3.268-5.738,3.724-14.288,3.724-20.14V-25.46Zm-9.12,6.574v3.99H93.4v-3.99Zm2.736,6.27v-6.27h6.118V-21.2h-6.118V-24.51H102.6V-21.2H93.4V-24.51h-2.7V-21.2H84.664v2.318h6.042v6.27ZM104.728-7.9a17.464,17.464,0,0,1-6.422,4.826A17.021,17.021,0,0,1,92.15-7.9Zm2.356-2.432-.494.114H85.12V-7.9h5.852l-1.52.57A19.12,19.12,0,0,0,95.418-1.9,51.547,51.547,0,0,1,83.714.532a9.764,9.764,0,0,1,1.178,2.356A51.469,51.469,0,0,0,98.268-.38a43.346,43.346,0,0,0,12.5,3.344A8.377,8.377,0,0,1,112.4.57a48.322,48.322,0,0,1-11.172-2.394,18.77,18.77,0,0,0,7.638-7.562Z" transform="translate(1156.48 662)"/>
    <path id="パス_22" data-name="パス 22" d="M6.56,0h35.6V-9.52H31.04V-59.28H22.32c-3.76,2.4-7.84,3.92-13.76,5.04v7.28H19.28V-9.52H6.56ZM70.72,1.12c12.08,0,20-10.56,20-30.96s-7.92-30.48-20-30.48-20.08,10-20.08,30.48C50.64-9.44,58.64,1.12,70.72,1.12Zm0-9.2c-5.12,0-8.96-5.12-8.96-21.76,0-16.56,3.84-21.36,8.96-21.36s8.88,4.8,8.88,21.36C79.6-13.2,75.84-8.08,70.72-8.08Zm47.12,9.2c12.08,0,20-10.56,20-30.96s-7.92-30.48-20-30.48-20.08,10-20.08,30.48C97.76-9.44,105.76,1.12,117.84,1.12Zm0-9.2c-5.12,0-8.96-5.12-8.96-21.76,0-16.56,3.84-21.36,8.96-21.36s8.88,4.8,8.88,21.36C126.72-13.2,122.96-8.08,117.84-8.08Z" transform="translate(1117 749)"/>
    <path id="パス_23" data-name="パス 23" d="M10.176-13.68c5.088,0,8.688-4.176,8.688-11.328,0-7.1-3.6-11.184-8.688-11.184s-8.64,4.08-8.64,11.184C1.536-17.856,5.088-13.68,10.176-13.68Zm0-3.984c-2.064,0-3.648-2.112-3.648-7.344s1.584-7.2,3.648-7.2,3.7,1.968,3.7,7.2S12.24-17.664,10.176-17.664ZM11.376.672h4.176l19.3-36.864H30.672ZM36,.672c5.04,0,8.688-4.224,8.688-11.328,0-7.152-3.648-11.232-8.688-11.232s-8.64,4.08-8.64,11.232C27.36-3.552,30.96.672,36,.672ZM36-3.36c-2.064,0-3.648-2.064-3.648-7.3S33.936-17.9,36-17.9s3.7,2.016,3.7,7.248S38.064-3.36,36-3.36Z" transform="translate(1265 747)"/>
  </g>
</svg>
