<svg xmlns="http://www.w3.org/2000/svg" width="13.342" height="128.82" viewBox="0 0 13.342 128.82">
  <g id="グループ_6" data-name="グループ 6" transform="translate(-1369 -256.4)">
    <path id="パス_20" data-name="パス 20" d="M4.83-10.64a18.21,18.21,0,0,0-2.954-1.008l-.728,1.134A18.029,18.029,0,0,1,4.074-9.38Zm-.8,7.9h6.062v.616H4.032Zm0-1.54h6.062v.6H4.032Zm0-1.54h6.062v.6H4.032ZM6.3-6.818A4.524,4.524,0,0,0,8.862-8.33,4.206,4.206,0,0,0,11-6.818Zm5.488,5.684V-6.58c.28.07.588.126.924.182a4.649,4.649,0,0,1,.826-1.358c-2.828-.336-3.626-1.106-3.92-2h1.554a7.969,7.969,0,0,1-.546.77l1.288.406a9.936,9.936,0,0,0,1.33-2.114l-1.106-.28-.252.042H7.756a6.43,6.43,0,0,0,.364-.686l-1.47-.238A6.079,6.079,0,0,1,4.592-9.422a4.456,4.456,0,0,1,1.246.784,7.7,7.7,0,0,0,1.12-1.12H7.966c-.308.994-1.05,1.6-3.276,1.96l-.14-1.26c-1.484.35-2.982.7-4.018.9l.616,1.456C2.2-7,3.5-7.378,4.7-7.728L4.69-7.784a4.179,4.179,0,0,1,.658.966H2.422v5.684H4.48A16.439,16.439,0,0,1,.63.042,16.886,16.886,0,0,1,1.862,1.26,17.348,17.348,0,0,0,6.23-.574l-1.274-.56H9.044l-1.26.728a27.6,27.6,0,0,1,3.64,1.652L13.356.5C12.4.042,10.794-.63,9.366-1.134ZM10.066,15.592A10.521,10.521,0,0,0,7.84,13.9l-.8,1.12a11.264,11.264,0,0,1,2.17,1.82ZM6.4,18.532a11.84,11.84,0,0,1,2.3,1.75l.84-1.33a11.692,11.692,0,0,0-2.352-1.61Zm-1.26-4.62a26.042,26.042,0,0,1-.77,3.276l1.05.294c.35-.812.756-2.142,1.12-3.262ZM2.422,17.188a14.037,14.037,0,0,0-.714-3.206L.546,14.29a13.844,13.844,0,0,1,.63,3.234Zm3.822,4.606c-.294-.392-1.624-1.96-2.03-2.366v-.1H6.286V17.776H4.214V13.2H2.674v4.578H.56V19.33h1.6A12.961,12.961,0,0,1,.308,22.956a9.893,9.893,0,0,1,.756,1.722,14.368,14.368,0,0,0,1.61-3.444v4.942h1.54V21.262a18.7,18.7,0,0,1,1.008,1.82Zm7.406.322L13.4,20.562l-1.428.266v-7.7H10.4v7.98l-4.158.742L6.5,23.4l3.906-.7v3.5H11.97v-3.78ZM5.278,38.576H1.162v1.26H5.278Zm.5,1.876H.462v1.316h5.32ZM5.32,42.4H1.12v1.274h4.2Zm-4.2,3.164h4.2V44.316H1.12Zm2.8,2v1.61H2.478v-1.61Zm1.414-1.316H1.078v4.774h1.4v-.546H5.334ZM8.26,47.536v-.658h2.9v.658Zm2.9-2.366v.63H8.26v-.63Zm1.554-1.176H6.734v7.2H8.26V48.628h2.9v1.008c0,.154-.042.21-.224.21s-.756.014-1.274,0a4.937,4.937,0,0,1,.434,1.33,4.967,4.967,0,0,0,2.016-.238c.476-.21.6-.574.6-1.274ZM10.4,42.272v-.56h2.6v-1.12H10.4v-.5h2.814V38.9H10.4v-.756H8.82V38.9h-2.7v1.19h2.7v.5H6.468v1.12H8.82v.56H5.782v1.2h7.686v-1.2ZM5.04,70.828C3.374,71.794,1.568,72.8.406,73.376l1.036,1.54c1.218-.7,2.772-1.666,4.158-2.562Zm-.2-1.064a13.287,13.287,0,0,0-2.184-2.45l-1.274.9a13.66,13.66,0,0,1,2.1,2.534Zm6.468-2.632a17.44,17.44,0,0,1-2.2,2.548,14.315,14.315,0,0,1-1.3-2.674v-.14h5.4v-1.61H11.662l.644-.728a17.255,17.255,0,0,0-2.6-1.456l-.966,1.05a19.329,19.329,0,0,1,1.932,1.134H7.812v-2.1H6.118v2.1H.84v1.61H6.118V74.16c0,.252-.1.336-.364.336s-1.162.014-2.016-.028a6.908,6.908,0,0,1,.574,1.75,6.425,6.425,0,0,0,2.73-.336c.588-.266.77-.728.77-1.708V70.422a11.589,11.589,0,0,0,4.606,4.844,6.688,6.688,0,0,1,1.232-1.484,10.124,10.124,0,0,1-3.626-2.856,32.257,32.257,0,0,0,2.758-2.772Z" transform="translate(1368.692 309)"/>
    <g id="グループ_3" data-name="グループ 3" transform="translate(0.147 13)">
      <path id="パス_21" data-name="パス 21" d="M12,.5H0v-1H12Z" transform="translate(1371.175 243.783) rotate(40)"/>
      <path id="パス_20-2" data-name="パス 20" d="M12,.5H0v-1H12Z" transform="translate(1371.175 258.714) rotate(-40)"/>
    </g>
  </g>
</svg>
