<svg xmlns="http://www.w3.org/2000/svg" xmlns:xlink="http://www.w3.org/1999/xlink" width="840" height="240" viewBox="0 0 840 240">
  <defs>
    <clipPath id="clip-path">
      <rect id="長方形_342" data-name="長方形 342" width="840" height="240" fill="#fff"/>
    </clipPath>
  </defs>
  <g id="グループ_73" data-name="グループ 73" transform="translate(-280 -9018)">
    <rect id="長方形_343" data-name="長方形 343" width="840" height="240" transform="translate(280 9018)" fill="#fff"/>
    <g id="マスクグループ_3" data-name="マスクグループ 3" transform="translate(280 9018)" clip-path="url(#clip-path)">
      <path id="前面オブジェクトで型抜き_1" data-name="前面オブジェクトで型抜き 1" d="M773.825,273.75H761.968L807.9,227.822,958.123,77.6V89.453l-131.3,131.3-53,53Zm-26,0H735.969L794.514,215.2,958.123,51.6V63.453l-144.68,144.68-65.616,65.616Zm-52,0H683.968L729.9,227.822,742.514,215.2l208-208L943.442.133,722.825,220.75l-53,53H657.968L716.513,215.2l208-208L917.442.133,696.825,220.75l-53,53H631.968L690.513,215.2l208-208L891.442.133,670.825,220.75l-53,53H605.968L664.513,215.2l208-208L865.443.133l-208,208L644.825,220.75l-53,53H579.968L638.513,215.2l208-208L839.443.133,618.825,220.75l-53,53H553.968L612.513,215.2l208-208L813.443.133,592.825,220.75l-53,53H527.968L573.9,227.822,794.514,7.2,787.442.133l-208,208-65.616,65.616H501.969L560.514,215.2l208-208L761.442.133,540.825,220.75l-53,53H475.969L534.514,215.2l208-208L735.442.133,514.825,220.75l-53,53H449.969L495.9,227.822,508.513,215.2l208-208L709.442.133,488.825,220.75l-53,53H423.968L482.513,215.2l208-208L683.442.133,462.825,220.75l-53,53H397.968L456.513,215.2l208-208L657.442.133,436.825,220.75l-53,53H371.968L430.513,215.2l208-208L631.443.133l-208,208L410.825,220.75l-53,53H345.968L404.513,215.2l208-208L605.443.133,384.825,220.75l-53,53H319.968L378.513,215.2l208-208L579.443.133,358.825,220.75l-53,53H293.968L339.9,227.822,560.514,7.2,553.442.133l-208,208-65.616,65.616H267.969L326.514,215.2l208-208L527.442.133,306.825,220.75l-53,53H241.969L300.514,215.2l208-208L501.442.133,280.825,220.75l-53,53H215.968L274.514,215.2l208-208L475.442.133,254.825,220.75l-53,53H189.968L248.514,215.2l208-208L449.442.133,228.825,220.75l-53,53H163.968L222.513,215.2l208-208L423.442.133,202.825,220.75l-53,53H137.968L196.513,215.2l208-208L397.443.133l-208,208L176.825,220.75l-53,53H111.968L170.513,215.2l208-208L371.443.133,150.825,220.75l-53,53H85.968L144.513,215.2l208-208L345.443.133,124.825,220.75l-53,53H59.968L105.9,227.822,326.514,7.2,319.442.133l-208,208L45.826,273.749H33.969L92.514,215.2l208-208L293.442.133,72.825,220.75l-53,53H7.969L53.9,227.822,66.514,215.2l208-208L267.442.133,46.825,220.75,0,267.575V255.718L40.514,215.2l208-208L241.442.133,20.825,220.75,0,241.575V229.718L14.514,215.2l208-208L215.442.133,0,215.575V203.718L196.513,7.2,189.442.133,0,189.575V177.718L170.513,7.2,163.443.133,0,163.575V151.718L144.513,7.2,137.443.133,0,137.575V125.717L118.513,7.2,111.443.133,0,111.575V99.718L92.514,7.2,85.442.133,0,85.576V73.718L66.514,7.2,59.442.133,0,59.576V47.718L40.514,7.2,33.442.133,0,33.575V21.718L14.514,7.2,7.442.133,0,7.575V0H958.123V11.452l-209.3,209.3-53,53Zm260,0H943.969L958.123,259.6v11.858l-2.3,2.3Zm-37.858,0L958.123,233.6v11.857l-28.3,28.3h0Zm-26,0L950.514,215.2l7.609-7.609v11.857l-1.3,1.3-53,53h0Zm-26,0L924.513,215.2l33.61-33.61v11.858l-27.3,27.3-53,53h0Zm-26,0L898.513,215.2l59.61-59.61v11.858l-53.3,53.3-53,53h0Zm-26,0L872.513,215.2l85.61-85.61v11.858l-66.681,66.68L878.825,220.75l-53,53h0Zm-26,0L846.513,215.2l111.61-111.61v11.858l-105.3,105.3-53,53h0Zm-78,0L768.514,215.2,958.123,25.6V37.453l-183.3,183.3-53,53h0Z" transform="translate(0 -33.75)" fill="#f5f5f5"/>
    </g>
  </g>
</svg>
