<svg xmlns="http://www.w3.org/2000/svg" width="612" height="208" viewBox="0 0 612 208">
  <g id="グループ_144" data-name="グループ 144" transform="translate(3086 -1910)">
    <rect id="長方形_318" data-name="長方形 318" width="600" height="160" transform="translate(-3074 1958)" fill="#45ccc4"/>
    <path id="長方形_319" data-name="長方形 319" d="M1,1V159H599V1H1M0,0H600V160H0Z" transform="translate(-3086 1946)" fill="#333"/>
    <g id="グループ_27" data-name="グループ 27" transform="translate(-1645 -1541)">
      <g id="楕円形_9" data-name="楕円形 9" transform="translate(-1165 3451)" fill="#333" stroke="#333" stroke-width="1">
        <circle cx="36" cy="36" r="36" stroke="none"/>
        <circle cx="36" cy="36" r="35.5" fill="none"/>
      </g>
      <path id="パス_39" data-name="パス 39" d="M6.232-11.552l4.37-6.992c.8-1.52,1.558-3.078,2.242-4.6H13c-.076,1.672-.19,4.218-.19,5.852v5.738ZM12.806,0h5.206V-7.3h3.306v-4.256H18.012V-28.158H11.286L.8-11.1v3.8H12.806Z" transform="translate(-1139.798 3501.158)" fill="#fff"/>
    </g>
    <path id="パス_46" data-name="パス 46" d="M5.992-19.572H26.124V-21.56H3.892V-13.5c0,4.312-.224,10.276-2.8,14.476a8.962,8.962,0,0,1,1.82,1.092c2.66-4.424,3.08-11.06,3.08-15.6ZM16.884-.84V-9.856h7.9v-1.988h-7.9v-6.244H14.812v6.244H7.448v1.988h7.364V-.84H5.572V1.148H26.628V-.84Zm29.54-19.236v-1.736H36.316v1.736h3a50.185,50.185,0,0,1-1.792,5.684c-.672.056-1.316.084-1.876.112l.2,1.9c2.436-.224,5.6-.5,8.764-.812a15.416,15.416,0,0,1,.532,1.624l1.6-.616a23.356,23.356,0,0,0-2.8-5.936l-1.484.56c.5.84,1.008,1.792,1.456,2.744-1.6.112-3.136.224-4.564.308.728-1.624,1.456-3.724,2.1-5.572ZM34.58-23.268a33.194,33.194,0,0,1-5.964,11.284,16.787,16.787,0,0,1,1.092,2.1,27.79,27.79,0,0,0,2.632-3.7V2.128h1.932v-19.32a45,45,0,0,0,2.24-5.544ZM42.224-2.1V-6.86h3.808V-8.68H42.224v-3.3h-1.96v3.3h-4v1.82h4v5.068c-1.82.28-3.472.532-4.816.728L35.784.812c3-.476,7.084-1.176,11-1.876L46.7-2.8Zm6.748-17.7H47.124V-4.564h1.848Zm3-3.108V-.364c0,.42-.112.532-.5.532S49.868.2,48.524.14a11.063,11.063,0,0,1,.7,2.044,9.5,9.5,0,0,0,3.612-.42c.756-.336,1.008-.924,1.008-2.156V-22.9ZM66.3-11.228h-5.88V-17.08H66.3ZM60.424-2.66V-9.38H66.3v6.72Zm2.352-20.832a34.559,34.559,0,0,1-1.12,4.536H58.52V1.428h1.9V-.784h7.784V-18.956H63.56c.476-1.2.98-2.744,1.456-4.116ZM81.9-19.04H73.528a39.333,39.333,0,0,0,1.2-4.032l-1.988-.476A28.411,28.411,0,0,1,68.46-13.384a15.3,15.3,0,0,1,1.708,1.176,23.577,23.577,0,0,0,2.632-4.9h7.112c-.364,11.144-.784,15.4-1.708,16.38-.28.364-.588.42-1.148.42-.644,0-2.324,0-4.144-.168a4.817,4.817,0,0,1,.7,2.044,29.509,29.509,0,0,0,4.144.028A2.785,2.785,0,0,0,79.968.476C81.088-.9,81.452-5.208,81.9-17.976ZM77.476-6.44a54.782,54.782,0,0,0-4.4-6.328l-1.624.952a49.817,49.817,0,0,1,4.256,6.468ZM96.628-22.232l-2.464-.224a23.227,23.227,0,0,1-.868,4.844c-1.092.084-2.156.14-3.164.14a26.411,26.411,0,0,1-3.416-.2l.14,2.1c1.064.056,2.24.084,3.276.084.812,0,1.652-.028,2.492-.084A41.435,41.435,0,0,1,86.632-5.1l2.156,1.12a49.523,49.523,0,0,0,6.1-11.816,37.973,37.973,0,0,0,5.1-1.036l-.056-2.1a27.06,27.06,0,0,1-4.4,1.036C95.984-19.516,96.376-21.224,96.628-22.232ZM95.088-2.8c0-1.288,1.4-2.24,3.444-2.24a9.708,9.708,0,0,1,2.884.42c.028.476.028.9.028,1.26,0,1.54-.784,2.772-3.108,2.772C96.152-.588,95.088-1.484,95.088-2.8Zm8.148-10.78h-2.184c.056,1.988.2,4.76.308,7.056a12.5,12.5,0,0,0-2.744-.28c-3.164,0-5.6,1.624-5.6,4.2,0,2.772,2.52,4.032,5.6,4.032,3.472,0,4.9-1.82,4.9-4.06,0-.336,0-.728-.028-1.176a20.929,20.929,0,0,1,4.536,3.22l1.2-1.9A19.21,19.21,0,0,0,103.4-5.964c-.056-1.736-.168-3.556-.2-4.592C103.18-11.564,103.18-12.432,103.236-13.58Zm5.6.756,1.26-1.848a42.294,42.294,0,0,0-6.524-3.724l-1.148,1.708A32.788,32.788,0,0,1,108.836-12.824Zm23.6,5.712V-.868H119.588V-7.112Zm-14.9,9.268h2.044V1.008H132.44V2.156h2.128V-8.988H117.544ZM119-14.336v1.848h14.028v-1.848Zm5.768-9.016c-2.184,3.584-6.86,7.84-11.732,10.3a7.568,7.568,0,0,1,1.288,1.652,34.479,34.479,0,0,0,11.62-9.94,37.449,37.449,0,0,0,11.844,9.772,9.507,9.507,0,0,1,1.372-1.792,33.262,33.262,0,0,1-12.292-10ZM154.336-8.064a26.106,26.106,0,0,0,4.564-3.164,20.345,20.345,0,0,0,4.7,3.164ZM154.868-.9V-6.272h7.812V-.9Zm1.2-17.724h6.1a17.483,17.483,0,0,1-3.3,4.76,18.45,18.45,0,0,1-3.136-4.256Zm7.42-1.9-.364.084h-5.992c.42-.812.812-1.624,1.148-2.464l-2.016-.56a21.264,21.264,0,0,1-4.956,7.56v-1.54H147.7v-5.992h-1.988v5.992H141.54v1.932h3.948A30.306,30.306,0,0,1,140.9-4.956a9.438,9.438,0,0,1,1.092,1.848,29.721,29.721,0,0,0,3.724-8.008V2.1H147.7V-11.872c.868,1.2,1.848,2.688,2.3,3.5L151.228-10c-.532-.672-2.716-3.36-3.528-4.256v-1.26h3.192c-.224.2-.476.392-.7.588a11.476,11.476,0,0,1,1.652,1.4,21.663,21.663,0,0,0,2.744-2.968,21.5,21.5,0,0,0,2.912,3.92,23.17,23.17,0,0,1-7.924,4.424,5.865,5.865,0,0,1,1.176,1.68,21.711,21.711,0,0,0,2.212-.924V2.156h1.9V.924h7.812v1.12h1.96V-7.588c.42.168.868.336,1.316.5a7.989,7.989,0,0,1,1.288-1.736,19.817,19.817,0,0,1-6.972-3.752,19.757,19.757,0,0,0,4.508-7.336ZM194.46-8.092a41.792,41.792,0,0,0-6.384-3.836l-1.456,1.176a37.24,37.24,0,0,1,6.3,3.976Zm-3-9.52a31.882,31.882,0,0,1-4.312,3.528l1.484.9a35.751,35.751,0,0,0,4.648-3.472ZM177.352-15.96l-1.036,1.232a39.09,39.09,0,0,1,4.06,3c-.784.84-1.568,1.624-2.3,2.324-.756.028-1.484.056-2.1.084l.28,1.764c2.688-.2,6.244-.42,9.8-.672a14.221,14.221,0,0,1,.812,1.568l1.6-.84a22.739,22.739,0,0,0-3.528-5.04l-1.512.672a26.646,26.646,0,0,1,1.652,2.128l-4.816.252a69.485,69.485,0,0,0,5.852-6.44l-1.652-.784a46.842,46.842,0,0,1-2.94,3.7c-.588-.5-1.344-1.064-2.128-1.624a40.834,40.834,0,0,0,2.8-3.472l-.728-.28h12.18v-1.876h-10.7v-3.136H180.88v3.136H170.436V-18.4h9.716a29.058,29.058,0,0,1-2.016,2.94Zm-1.036,1.736a24.1,24.1,0,0,0-4.452-3l-1.4,1.148a25.918,25.918,0,0,1,4.4,3.108Zm.2,2.6c-2.6,1.092-5.236,2.212-7.028,2.856l1.036,1.68c1.876-.812,4.172-1.932,6.384-2.968Zm6.44,4.06H180.88V-5.4H169.6v1.932H180.88V2.212h2.072V-3.472h11.48V-5.4h-11.48ZM221.424-9.8c0-5.684-4.172-10.3-10.724-10.3-6.832,0-12.236,5.32-12.236,11.4,0,4.62,2.492,7.476,4.984,7.476,2.6,0,4.816-2.94,6.524-8.708A55.082,55.082,0,0,0,211.652-18a7.8,7.8,0,0,1,7.476,8.12c0,4.844-3.528,7.5-7.112,8.316a21.151,21.151,0,0,1-2.408.364L210.924.868C217.56,0,221.424-3.92,221.424-9.8Zm-20.776.9c0-3.808,3.3-8.4,8.68-9.072a45.747,45.747,0,0,1-1.568,7.56c-1.428,4.732-2.912,6.608-4.228,6.608C202.272-3.808,200.648-5.376,200.648-8.9Zm40.8,4.06v2.856h-6.888V-4.844Zm1.848,4.4V-6.356H232.708V.952h1.848v-1.4ZM249-9.912h-21.84V2.128h1.988V-8.148h17.78V-.392c0,.392-.084.532-.56.532-.5.056-2.072.056-3.864,0a8.34,8.34,0,0,1,.672,1.932,17.765,17.765,0,0,0,4.7-.308c.868-.364,1.12-.98,1.12-2.1Zm-5.572-3.276h-10.92V-15.9h10.92Zm-12.908-4.2v5.712H245.5v-5.712Zm8.372-3.388v-2.66h-2.1v2.66H225.932v1.82h24.136v-1.82Zm27.776.924c.2.644.476,1.484.812,2.52a58.506,58.506,0,0,1-11.06-.336l.056,2.24a71.939,71.939,0,0,0,11.76.056,37.406,37.406,0,0,0,3.388,6.384c-1.008-.112-3.08-.28-4.648-.42l-.168,1.876a63.287,63.287,0,0,1,6.748.756l1.148-1.568c-.42-.476-.84-.952-1.232-1.484A29.792,29.792,0,0,1,270.34-15.6a41.628,41.628,0,0,0,5.8-1.148l-.252-2.184a35.963,35.963,0,0,1-6.244,1.372,33.451,33.451,0,0,1-1.288-4.788l-2.38.308C266.224-21.308,266.476-20.44,266.672-19.852ZM260.736-8.736l-2.184-.5a10.916,10.916,0,0,0-1.344,4.648c0,3.808,3.36,5.74,8.68,5.768A40.665,40.665,0,0,0,273.112.56l.112-2.24A31.211,31.211,0,0,1,266-.98c-4.144-.028-6.58-1.2-6.58-3.864A7.2,7.2,0,0,1,260.736-8.736Z" transform="translate(-2913.092 2048.548)"/>
  </g>
</svg>
