<svg xmlns="http://www.w3.org/2000/svg" width="350" height="119" viewBox="0 0 350 119">
  <g id="グループ_141" data-name="グループ 141" transform="translate(-20 -3086)">
    <rect id="長方形_322" data-name="長方形 322" width="343" height="92" transform="translate(27 3113)" fill="#45ccc4"/>
    <path id="長方形_323" data-name="長方形 323" d="M.572.572V90.931H342.565V.572H.572M0,0H343.137V91.5H0Z" transform="translate(20 3106.588)" fill="#333"/>
    <g id="グループ_22" data-name="グループ 22" transform="translate(177.843 3086)">
      <g id="楕円形_9" data-name="楕円形 9" transform="translate(0.157)" fill="#333" stroke="#333" stroke-width="1">
        <circle cx="20.5" cy="20.5" r="20.5" stroke="none"/>
        <circle cx="20.5" cy="20.5" r="20" fill="none"/>
      </g>
      <path id="パス_27" data-name="パス 27" d="M3.116-12.055h9.671v-2.586H9.766V-28.158H7.4a10.032,10.032,0,0,1-3.738,1.369v1.978H6.571v10.171H3.116Z" transform="translate(12.897 40.74)" fill="#fff"/>
    </g>
    <path id="パス_48" data-name="パス 48" d="M13.065-20.325H10.727v-1.137h2.338Zm0,1.954H10.727v-1.137h2.338ZM4.13-19.509H6.308v1.137H4.13Zm0-1.954H6.308v1.137H4.13ZM9.7-19.509v1.137H7.349v-1.137Zm0-1.954v1.137H7.349v-1.137Zm4.516-.849H10.727v-1.153H9.7v1.153H7.349v-1.153H6.308v1.153H3.025v4.8H14.218ZM15.6-16.674H1.824v.9H15.6Zm-4.42,4.8a10.626,10.626,0,0,1-.929,1.617l.336.128H6.612l.4-.144a6.619,6.619,0,0,0-.865-1.6ZM4.787-14.112h7.734V-12.7H4.787Zm6.549,3.987c.288-.416.625-.945.929-1.489l-.689-.256h2.146v-3.075H3.634v3.075H5.908l-.8.256a6.583,6.583,0,0,1,.769,1.489H1.568v.945H15.82v-.945Zm12.73-3.523v1.265H20.351v-1.265Zm5.028,1.265H25.219v-1.265h3.875Zm-3.875,2.13v-1.3h3.875v1.3Zm-4.868-1.3h3.715v1.3H20.351ZM19.214-8.828h1.137V-9.34h8.743v.448h1.169v-5.653H19.214ZM29.271-20.309H20.159v.865h9.111Zm-7.91,2.658h6.725v1.361H21.36Zm7.878,2.21V-18.5H20.271v3.058Zm-3.987-6.95v-1.057h-1.2v1.057H18.029v3.01h1.137v-1.986H30.231v1.986H31.4v-3.01Zm14.668-.368-1.409-.128a13.284,13.284,0,0,1-.5,2.77c-.625.048-1.233.08-1.809.08a15.1,15.1,0,0,1-1.954-.112l.08,1.2c.608.032,1.281.048,1.874.048.464,0,.945-.016,1.425-.048A23.7,23.7,0,0,1,34.2-12.959l1.233.641a28.322,28.322,0,0,0,3.491-6.758,21.716,21.716,0,0,0,2.914-.592l-.032-1.2a15.475,15.475,0,0,1-2.514.592C39.551-21.206,39.775-22.183,39.919-22.759Zm-.881,11.113c0-.737.8-1.281,1.97-1.281a5.552,5.552,0,0,1,1.649.24c.016.272.016.512.016.721,0,.881-.448,1.585-1.777,1.585C39.647-10.381,39.039-10.894,39.039-11.646Zm4.66-6.165H42.449c.032,1.137.112,2.722.176,4.035a7.146,7.146,0,0,0-1.569-.16c-1.809,0-3.2.929-3.2,2.4,0,1.585,1.441,2.306,3.2,2.306,1.986,0,2.8-1.041,2.8-2.322,0-.192,0-.416-.016-.673a11.969,11.969,0,0,1,2.594,1.842l.689-1.089a10.986,10.986,0,0,0-3.331-1.986c-.032-.993-.1-2.034-.112-2.626C43.666-16.658,43.666-17.155,43.7-17.811Zm3.2.432.721-1.057a24.187,24.187,0,0,0-3.731-2.13l-.657.977A18.751,18.751,0,0,1,46.9-17.379Zm9.944-5.268H55.34a9.707,9.707,0,0,1,.112,1.329c0,.576-.032,1.121-.064,1.633H52.57a16.76,16.76,0,0,1-1.825-.1v1.361a17.087,17.087,0,0,1,1.842-.064h2.69a10.3,10.3,0,0,1-3.171,6.742,7.893,7.893,0,0,1-1.649,1.185l1.169.945c2.674-1.842,4.34-4.275,4.916-8.871h4.484c0,1.713-.208,5.653-.817,6.87a.867.867,0,0,1-.929.528,19.482,19.482,0,0,1-2.386-.176l.16,1.329c.833.048,1.761.112,2.578.112a1.662,1.662,0,0,0,1.713-.977c.721-1.537.913-6.2.977-7.734a5.009,5.009,0,0,1,.08-.785l-.9-.448a5.771,5.771,0,0,1-1.025.08H56.669c.032-.528.064-1.073.08-1.649C56.765-21.719,56.8-22.279,56.845-22.647Zm20.3.448H75.644a11.487,11.487,0,0,1,.08,1.393v2.53c0,3.026-.192,4.324-1.329,5.653a7.341,7.341,0,0,1-3.827,2.13l1.041,1.1a8.553,8.553,0,0,0,3.811-2.338C76.573-13.1,77.1-14.369,77.1-18.212v-2.594C77.1-21.35,77.118-21.8,77.15-22.2Zm-7.43.128H68.262c.032.3.064.865.064,1.153v5.332a10.5,10.5,0,0,1-.08,1.233H69.72c-.032-.288-.064-.817-.064-1.217v-5.348C69.656-21.3,69.688-21.767,69.72-22.071Zm17.294.7c.048.192.16.817.336,1.681-1.505.24-2.9.448-3.523.512-.512.064-.929.1-1.329.112l.272,1.441c.48-.112.849-.192,1.3-.272.608-.112,2-.336,3.523-.576.192.993.416,2.13.641,3.219-1.825.288-3.571.56-4.372.673-.416.064-1.041.128-1.409.144l.288,1.393c.336-.1.785-.176,1.409-.288.785-.144,2.5-.432,4.308-.737.3,1.585.56,2.882.625,3.235.112.48.16.961.24,1.505L90.777-9.6c-.144-.448-.272-.993-.384-1.457-.08-.368-.336-1.649-.657-3.219,1.569-.24,3.058-.48,3.939-.625.592-.1,1.1-.176,1.441-.208L94.86-16.45c-.352.1-.8.192-1.425.3-.8.144-2.322.416-3.939.673-.208-1.073-.432-2.21-.641-3.2,1.537-.24,2.994-.48,3.731-.592.416-.064.913-.128,1.153-.16l-.272-1.345a10.044,10.044,0,0,1-1.137.272c-.673.128-2.146.368-3.7.625-.192-.9-.3-1.553-.336-1.729-.048-.352-.128-.8-.144-1.1l-1.441.256A7.5,7.5,0,0,1,87.014-21.366Zm21.538,3.7-.977-.464a2.749,2.749,0,0,1-.8.112h-4.868a10.933,10.933,0,0,1-1.265-.1v1.345c.4-.016.817-.048,1.281-.048h5.092c-.048.913-.512,4.035-.753,5.38h-5.8c-.48,0-.945-.032-1.329-.064v1.329c.464-.032.833-.048,1.329-.048h8.775c.336,0,.929.016,1.217.032v-1.3c-.336.032-.913.048-1.265.048h-1.569c.224-1.473.689-4.644.817-5.733A3.562,3.562,0,0,1,108.551-17.667Zm7.91-4.308v1.329c.432-.032.945-.048,1.441-.048h6.277c.544,0,1.089.016,1.473.048v-1.329a9.974,9.974,0,0,1-1.457.08H117.9A10.014,10.014,0,0,1,116.462-21.975Zm10.36,4.227-.913-.576a2.128,2.128,0,0,1-.881.128H116.59a15.134,15.134,0,0,1-1.569-.1v1.345c.576-.032,1.185-.048,1.569-.048h8.5a8.186,8.186,0,0,1-1.906,3.539,10.671,10.671,0,0,1-5.637,2.93l.993,1.137a11.6,11.6,0,0,0,5.733-3.347,11.028,11.028,0,0,0,2.338-4.548A2.8,2.8,0,0,1,126.822-17.747Zm9.832-4.243-1.6-.32a10.074,10.074,0,0,1-.3,1.537c-.448,1.569-2.082,6.693-2.978,8.9-.288.016-.56.032-.8.048-.464.016-1.009.032-1.489.016l.24,1.489c.464-.064.929-.144,1.329-.176,2.146-.192,7.51-.785,9.976-1.1.368.785.673,1.521.881,2.1l1.345-.608a45.119,45.119,0,0,0-3.555-6.517l-1.2.544a22.74,22.74,0,0,1,1.954,3.283c-1.761.24-4.836.576-7.19.8.8-2.082,2.386-7,2.85-8.5C136.318-21.174,136.494-21.59,136.654-21.991Z" transform="translate(125.948 3175.232)"/>
  </g>
</svg>
