<svg xmlns="http://www.w3.org/2000/svg" width="110.371" height="70.833" viewBox="0 0 110.371 70.833">
  <path id="パス_16" data-name="パス 16" d="M10.176-7.968c15.36,1.728,27.792-5.472,27.792-15.7,0-5.952-3.312-9.792-15.216-9.792A46.989,46.989,0,0,0,9.84-31.776c-1.344.384-2.784.768-3.648,1.968-.768,1.056-3.552,4.752-3.552,5.9,0,.432.48.48.768.48,1.44,0,8.112-3.072,16.512-3.216L12.288-16.56c-2.016.624-7.68,1.92-7.68,4.7,0,1.488,1.008,2.352,2.16,3.072C5.616-6.768,2.208-1.536,2.208.576c0,1.056.48,1.728,1.632,1.728C5.04,2.3,6.048.912,6.672.048,7.92-1.632,9.12-3.216,9.12-3.84c0-.528-.48-.768-.912-.864ZM21.648-24.144A4.561,4.561,0,0,0,22.7-27.072c2.208,0,11.232.576,11.76,3.5.528,3.024-5.664,9.888-15.072,10.416a15.025,15.025,0,0,1-4.944-.48L15.5-15.216c.768-.528,4.848-.768,4.848-1.728,0-.912-1.968-.24-3.744-.24ZM54.72-9.216c-1.488,1.1-2.832,2.928-4.944,2.544.912-1.872,1.872-3.552,1.872-5.664,0-1.44-.288-2.448-1.728-2.832.528-.288,1.1-.576,1.1-1.3,0-1.3-1.584-1.776-2.64-1.728a16.251,16.251,0,0,0-8.976,3.552c-2.688,2.064-4.464,4.464-4.368,8.064.192,4.368,2.5,6.864,4.992,6.864,3.024,0,5.376-1.536,7.392-3.6,3.5,0,5.616-1.152,7.776-3.888ZM45.888-12.96c.192.1-2.064,3.12-2.064,5.616A5.209,5.209,0,0,0,44.4-5.136c-1.1,1.008-2.112,1.92-3.7,1.92-1.2,0-2.112-.432-2.112-1.824A7.046,7.046,0,0,1,40.56-9.456,29.146,29.146,0,0,1,45.888-12.96Zm21.84,4.9c-1.92,1.392-4.416,3.936-6.96,3.936-2.208,0-2.928-1.056-2.544-3.024,2.016-1.392,6.768-5.664,6.768-8.064,0-1.056-1.3-1.344-2.112-1.344C60-16.56,54-10.848,54-4.992,54-2.544,55.3.72,58.128.72,61.776.72,66-3.6,68.16-6.24ZM65.472-17.52c2.064,0,3.84-2.352,3.84-4.272a1.518,1.518,0,0,0-1.584-1.488c-1.872,0-4.176,1.728-4.176,3.7A1.932,1.932,0,0,0,65.472-17.52ZM87.552-7.1c-.864.72-2.976,2.4-4.128,2.4a.892.892,0,0,1-.864-.864c0-3.312,5.9-6.96,5.9-8.832a11.168,11.168,0,0,0-.72-2.592c-.288-.672-.576-.912-.768-.912-1.392,0-10.224,5.9-14.064,10.8-.192.24-.624.672-.96.672a.533.533,0,0,1-.528-.528c0-1.152,6.048-6,6.048-7.872,0-.288.24-.96-2.64-1.056a2.384,2.384,0,0,0-1.872.576C70.176-12.96,67.152-8.112,67.3-4.8c.048,1.632.576,4.656,2.688,4.656,1.3,0,3.072-2.352,3.792-3.264a38.252,38.252,0,0,1,7.392-7.344l.1.1C79.728-8.448,77.136-5.28,77.136-2.4c0,1.632.864,3.168,2.688,3.168,3.5,0,8.448-5.9,10.992-8.16L90.432-9.5Zm16.176-13.152c.48-.672,1.872-2.256,1.872-3.12,0-.768-.912-.912-1.536-.912-2.784,0-3.84,2.256-5.28,4.224-5.136.192-5.52.96-8.112,5.184l-.528.864c2.544-.384,1.632-.192,4.56-.192a27.706,27.706,0,0,1-7.3,7.68L87.936-4.7l2.448-1.968.1.1a12.693,12.693,0,0,0-1.248,4.8A2.926,2.926,0,0,0,92.256,1.44c4.08,0,9.264-5.136,12.1-7.728l-.24-2.112c-4.992,3.552-6.72,4.992-8.256,4.992-1.1,0-1.44-.624-1.44-1.68,0-2.88,2.736-6.816,4.368-8.928,5.28.336,5.664-1.44,7.92-6Z" transform="translate(9.928 69.473) rotate(-21)"/>
</svg>
